<svg width="526" height="534" viewBox="0 0 526 534" fill="none" xmlns="http://www.w3.org/2000/svg">
<path fill-rule="evenodd" clip-rule="evenodd" d="M97.3011 340.902C110.642 380.116 141.954 422.818 189.328 446.464C236.702 470.111 288.343 461.162 344.779 432.96C450.674 380.045 491.786 270.458 469.624 224.797C448.924 182.147 421.312 165.622 365.126 164.579C308.941 163.536 269.463 162.364 233.346 140.671C197.765 119.3 171.407 111.647 145.383 128.78C117.236 147.311 96.1203 175.284 88.064 213.293C79.8449 252.07 84.8902 304.422 97.3011 340.902Z" fill="#A69FEC"/>
<g opacity="0.6">
<path d="M120.415 260.815V257.75C120.415 257.587 120.35 257.431 120.235 257.316C120.12 257.201 119.964 257.137 119.802 257.137C119.639 257.137 119.483 257.201 119.368 257.316C119.253 257.431 119.188 257.587 119.188 257.75V260.815H116.123C115.96 260.815 115.804 260.88 115.689 260.995C115.574 261.11 115.51 261.266 115.51 261.428C115.51 261.591 115.574 261.747 115.689 261.862C115.804 261.977 115.96 262.042 116.123 262.042H119.188V265.107C119.188 265.27 119.253 265.426 119.368 265.541C119.483 265.656 119.639 265.72 119.802 265.72C119.964 265.72 120.12 265.656 120.235 265.541C120.35 265.426 120.415 265.27 120.415 265.107V262.042H123.48C123.643 262.042 123.799 261.977 123.914 261.862C124.029 261.747 124.093 261.591 124.093 261.428C124.093 261.266 124.029 261.11 123.914 260.995C123.799 260.88 123.643 260.815 123.48 260.815H120.415Z" fill="#E2E8F0"/>
<path d="M149.844 260.815V257.75C149.844 257.587 149.78 257.431 149.665 257.316C149.55 257.201 149.394 257.137 149.231 257.137C149.069 257.137 148.913 257.201 148.798 257.316C148.683 257.431 148.618 257.587 148.618 257.75V260.815H145.553C145.39 260.815 145.234 260.88 145.119 260.995C145.004 261.11 144.939 261.266 144.939 261.428C144.939 261.591 145.004 261.747 145.119 261.862C145.234 261.977 145.39 262.042 145.553 262.042H148.618V265.107C148.618 265.27 148.683 265.426 148.798 265.541C148.913 265.656 149.069 265.72 149.231 265.72C149.394 265.72 149.55 265.656 149.665 265.541C149.78 265.426 149.844 265.27 149.844 265.107V262.042H152.91C153.072 262.042 153.228 261.977 153.343 261.862C153.458 261.747 153.523 261.591 153.523 261.428C153.523 261.266 153.458 261.11 153.343 260.995C153.228 260.88 153.072 260.815 152.91 260.815H149.844Z" fill="#E2E8F0"/>
<path d="M179.272 260.815V257.75C179.272 257.587 179.207 257.431 179.092 257.316C178.977 257.201 178.822 257.137 178.659 257.137C178.496 257.137 178.34 257.201 178.225 257.316C178.11 257.431 178.046 257.587 178.046 257.75V260.815H174.98C174.818 260.815 174.662 260.88 174.547 260.995C174.432 261.11 174.367 261.266 174.367 261.428C174.367 261.591 174.432 261.747 174.547 261.862C174.662 261.977 174.818 262.042 174.98 262.042H178.046V265.107C178.046 265.27 178.11 265.426 178.225 265.541C178.34 265.656 178.496 265.72 178.659 265.72C178.822 265.72 178.977 265.656 179.092 265.541C179.207 265.426 179.272 265.27 179.272 265.107V262.042H182.338C182.5 262.042 182.656 261.977 182.771 261.862C182.886 261.747 182.951 261.591 182.951 261.428C182.951 261.266 182.886 261.11 182.771 260.995C182.656 260.88 182.5 260.815 182.338 260.815H179.272Z" fill="#E2E8F0"/>
<path d="M208.702 260.816V257.75C208.702 257.587 208.637 257.432 208.522 257.317C208.407 257.202 208.251 257.137 208.089 257.137C207.926 257.137 207.77 257.202 207.655 257.317C207.54 257.432 207.476 257.587 207.476 257.75V260.816H204.41C204.247 260.816 204.091 260.88 203.976 260.995C203.861 261.11 203.797 261.266 203.797 261.429C203.797 261.591 203.861 261.747 203.976 261.862C204.091 261.977 204.247 262.042 204.41 262.042H207.476V265.107C207.476 265.27 207.54 265.426 207.655 265.541C207.77 265.656 207.926 265.72 208.089 265.72C208.251 265.72 208.407 265.656 208.522 265.541C208.637 265.426 208.702 265.27 208.702 265.107V262.042H211.767C211.93 262.042 212.086 261.977 212.201 261.862C212.316 261.747 212.38 261.591 212.38 261.429C212.38 261.266 212.316 261.11 212.201 260.995C212.086 260.88 211.93 260.816 211.767 260.816H208.702Z" fill="#E2E8F0"/>
<path d="M238.131 260.815V257.75C238.131 257.587 238.067 257.431 237.952 257.316C237.837 257.201 237.681 257.137 237.518 257.137C237.356 257.137 237.2 257.201 237.085 257.316C236.97 257.431 236.905 257.587 236.905 257.75V260.815H233.84C233.677 260.815 233.521 260.88 233.406 260.995C233.291 261.11 233.227 261.266 233.227 261.428C233.227 261.591 233.291 261.747 233.406 261.862C233.521 261.977 233.677 262.042 233.84 262.042H236.905V265.107C236.905 265.27 236.97 265.426 237.085 265.541C237.2 265.656 237.356 265.72 237.518 265.72C237.681 265.72 237.837 265.656 237.952 265.541C238.067 265.426 238.131 265.27 238.131 265.107V262.042H241.197C241.36 262.042 241.515 261.977 241.63 261.862C241.745 261.747 241.81 261.591 241.81 261.428C241.81 261.266 241.745 261.11 241.63 260.995C241.515 260.88 241.36 260.815 241.197 260.815H238.131Z" fill="#E2E8F0"/>
<path d="M267.559 260.815V257.75C267.559 257.587 267.495 257.431 267.38 257.316C267.265 257.201 267.109 257.137 266.946 257.137C266.783 257.137 266.627 257.201 266.513 257.316C266.398 257.431 266.333 257.587 266.333 257.75V260.815H263.267C263.105 260.815 262.949 260.88 262.834 260.995C262.719 261.11 262.654 261.266 262.654 261.428C262.654 261.591 262.719 261.747 262.834 261.862C262.949 261.977 263.105 262.042 263.267 262.042H266.333V265.107C266.333 265.27 266.398 265.426 266.513 265.541C266.627 265.656 266.783 265.72 266.946 265.72C267.109 265.72 267.265 265.656 267.38 265.541C267.495 265.426 267.559 265.27 267.559 265.107V262.042H270.625C270.787 262.042 270.943 261.977 271.058 261.862C271.173 261.747 271.238 261.591 271.238 261.428C271.238 261.266 271.173 261.11 271.058 260.995C270.943 260.88 270.787 260.815 270.625 260.815H267.559Z" fill="#E2E8F0"/>
<path d="M120.415 290.245V287.179C120.415 287.016 120.35 286.86 120.235 286.745C120.12 286.631 119.964 286.566 119.802 286.566C119.639 286.566 119.483 286.631 119.368 286.745C119.253 286.86 119.188 287.016 119.188 287.179V290.245H116.123C115.96 290.245 115.804 290.309 115.689 290.424C115.574 290.539 115.51 290.695 115.51 290.858C115.51 291.02 115.574 291.176 115.689 291.291C115.804 291.406 115.96 291.471 116.123 291.471H119.188V294.536C119.188 294.699 119.253 294.855 119.368 294.97C119.483 295.085 119.639 295.149 119.802 295.149C119.964 295.149 120.12 295.085 120.235 294.97C120.35 294.855 120.415 294.699 120.415 294.536V291.471H123.48C123.643 291.471 123.799 291.406 123.914 291.291C124.029 291.176 124.093 291.02 124.093 290.858C124.093 290.695 124.029 290.539 123.914 290.424C123.799 290.309 123.643 290.245 123.48 290.245H120.415Z" fill="#E2E8F0"/>
<path d="M149.844 290.245V287.179C149.844 287.016 149.78 286.86 149.665 286.745C149.55 286.631 149.394 286.566 149.231 286.566C149.069 286.566 148.913 286.631 148.798 286.745C148.683 286.86 148.618 287.016 148.618 287.179V290.245H145.553C145.39 290.245 145.234 290.309 145.119 290.424C145.004 290.539 144.939 290.695 144.939 290.858C144.939 291.02 145.004 291.176 145.119 291.291C145.234 291.406 145.39 291.471 145.553 291.471H148.618V294.536C148.618 294.699 148.683 294.855 148.798 294.97C148.913 295.085 149.069 295.149 149.231 295.149C149.394 295.149 149.55 295.085 149.665 294.97C149.78 294.855 149.844 294.699 149.844 294.536V291.471H152.91C153.072 291.471 153.228 291.406 153.343 291.291C153.458 291.176 153.523 291.02 153.523 290.858C153.523 290.695 153.458 290.539 153.343 290.424C153.228 290.309 153.072 290.245 152.91 290.245H149.844Z" fill="#E2E8F0"/>
<path d="M179.272 290.245V287.179C179.272 287.016 179.207 286.86 179.092 286.745C178.977 286.631 178.822 286.566 178.659 286.566C178.496 286.566 178.34 286.631 178.225 286.745C178.11 286.86 178.046 287.016 178.046 287.179V290.245H174.98C174.818 290.245 174.662 290.309 174.547 290.424C174.432 290.539 174.367 290.695 174.367 290.858C174.367 291.02 174.432 291.176 174.547 291.291C174.662 291.406 174.818 291.471 174.98 291.471H178.046V294.536C178.046 294.699 178.11 294.855 178.225 294.97C178.34 295.085 178.496 295.149 178.659 295.149C178.822 295.149 178.977 295.085 179.092 294.97C179.207 294.855 179.272 294.699 179.272 294.536V291.471H182.338C182.5 291.471 182.656 291.406 182.771 291.291C182.886 291.176 182.951 291.02 182.951 290.858C182.951 290.695 182.886 290.539 182.771 290.424C182.656 290.309 182.5 290.245 182.338 290.245H179.272Z" fill="#E2E8F0"/>
<path d="M208.702 290.245V287.179C208.702 287.016 208.637 286.86 208.522 286.745C208.407 286.631 208.251 286.566 208.089 286.566C207.926 286.566 207.77 286.631 207.655 286.745C207.54 286.86 207.476 287.016 207.476 287.179V290.245H204.41C204.247 290.245 204.091 290.309 203.976 290.424C203.861 290.539 203.797 290.695 203.797 290.858C203.797 291.02 203.861 291.176 203.976 291.291C204.091 291.406 204.247 291.471 204.41 291.471H207.476V294.536C207.476 294.699 207.54 294.855 207.655 294.97C207.77 295.085 207.926 295.149 208.089 295.149C208.251 295.149 208.407 295.085 208.522 294.97C208.637 294.855 208.702 294.699 208.702 294.536V291.471H211.767C211.93 291.471 212.086 291.406 212.201 291.291C212.316 291.176 212.38 291.02 212.38 290.858C212.38 290.695 212.316 290.539 212.201 290.424C212.086 290.309 211.93 290.245 211.767 290.245H208.702Z" fill="#E2E8F0"/>
<path d="M238.131 290.245V287.179C238.131 287.016 238.067 286.86 237.952 286.745C237.837 286.631 237.681 286.566 237.518 286.566C237.356 286.566 237.2 286.631 237.085 286.745C236.97 286.86 236.905 287.016 236.905 287.179V290.245H233.84C233.677 290.245 233.521 290.309 233.406 290.424C233.291 290.539 233.227 290.695 233.227 290.858C233.227 291.02 233.291 291.176 233.406 291.291C233.521 291.406 233.677 291.471 233.84 291.471H236.905V294.536C236.905 294.699 236.97 294.855 237.085 294.97C237.2 295.085 237.356 295.149 237.518 295.149C237.681 295.149 237.837 295.085 237.952 294.97C238.067 294.855 238.131 294.699 238.131 294.536V291.471H241.197C241.36 291.471 241.515 291.406 241.63 291.291C241.745 291.176 241.81 291.02 241.81 290.858C241.81 290.695 241.745 290.539 241.63 290.424C241.515 290.309 241.36 290.245 241.197 290.245H238.131Z" fill="#2563EB"/>
<path d="M267.559 290.245V287.179C267.559 287.016 267.495 286.86 267.38 286.745C267.265 286.631 267.109 286.566 266.946 286.566C266.783 286.566 266.627 286.631 266.513 286.745C266.398 286.86 266.333 287.016 266.333 287.179V290.245H263.267C263.105 290.245 262.949 290.309 262.834 290.424C262.719 290.539 262.654 290.695 262.654 290.858C262.654 291.02 262.719 291.176 262.834 291.291C262.949 291.406 263.105 291.471 263.267 291.471H266.333V294.536C266.333 294.699 266.398 294.855 266.513 294.97C266.627 295.085 266.783 295.149 266.946 295.149C267.109 295.149 267.265 295.085 267.38 294.97C267.495 294.855 267.559 294.699 267.559 294.536V291.471H270.625C270.787 291.471 270.943 291.406 271.058 291.291C271.173 291.176 271.238 291.02 271.238 290.858C271.238 290.695 271.173 290.539 271.058 290.424C270.943 290.309 270.787 290.245 270.625 290.245H267.559Z" fill="#E2E8F0"/>
<path d="M120.415 319.674V316.608C120.415 316.446 120.35 316.29 120.235 316.175C120.12 316.06 119.964 315.995 119.802 315.995C119.639 315.995 119.483 316.06 119.368 316.175C119.253 316.29 119.188 316.446 119.188 316.608V319.674H116.123C115.96 319.674 115.804 319.738 115.689 319.853C115.574 319.968 115.51 320.124 115.51 320.287C115.51 320.449 115.574 320.605 115.689 320.72C115.804 320.835 115.96 320.9 116.123 320.9H119.188V323.965C119.188 324.128 119.253 324.284 119.368 324.399C119.483 324.514 119.639 324.579 119.802 324.579C119.964 324.579 120.12 324.514 120.235 324.399C120.35 324.284 120.415 324.128 120.415 323.965V320.9H123.48C123.643 320.9 123.799 320.835 123.914 320.72C124.029 320.605 124.093 320.449 124.093 320.287C124.093 320.124 124.029 319.968 123.914 319.853C123.799 319.738 123.643 319.674 123.48 319.674H120.415Z" fill="#E2E8F0"/>
<path d="M149.844 319.674V316.608C149.844 316.446 149.78 316.29 149.665 316.175C149.55 316.06 149.394 315.995 149.231 315.995C149.069 315.995 148.913 316.06 148.798 316.175C148.683 316.29 148.618 316.446 148.618 316.608V319.674H145.553C145.39 319.674 145.234 319.738 145.119 319.853C145.004 319.968 144.939 320.124 144.939 320.287C144.939 320.449 145.004 320.605 145.119 320.72C145.234 320.835 145.39 320.9 145.553 320.9H148.618V323.965C148.618 324.128 148.683 324.284 148.798 324.399C148.913 324.514 149.069 324.579 149.231 324.579C149.394 324.579 149.55 324.514 149.665 324.399C149.78 324.284 149.844 324.128 149.844 323.965V320.9H152.91C153.072 320.9 153.228 320.835 153.343 320.72C153.458 320.605 153.523 320.449 153.523 320.287C153.523 320.124 153.458 319.968 153.343 319.853C153.228 319.738 153.072 319.674 152.91 319.674H149.844Z" fill="#E2E8F0"/>
<path d="M179.272 319.674V316.608C179.272 316.446 179.207 316.29 179.092 316.175C178.977 316.06 178.822 315.995 178.659 315.995C178.496 315.995 178.34 316.06 178.225 316.175C178.11 316.29 178.046 316.446 178.046 316.608V319.674H174.98C174.818 319.674 174.662 319.738 174.547 319.853C174.432 319.968 174.367 320.124 174.367 320.287C174.367 320.449 174.432 320.605 174.547 320.72C174.662 320.835 174.818 320.9 174.98 320.9H178.046V323.965C178.046 324.128 178.11 324.284 178.225 324.399C178.34 324.514 178.496 324.579 178.659 324.579C178.822 324.579 178.977 324.514 179.092 324.399C179.207 324.284 179.272 324.128 179.272 323.965V320.9H182.338C182.5 320.9 182.656 320.835 182.771 320.72C182.886 320.605 182.951 320.449 182.951 320.287C182.951 320.124 182.886 319.968 182.771 319.853C182.656 319.738 182.5 319.674 182.338 319.674H179.272Z" fill="#E2E8F0"/>
<path d="M208.702 319.674V316.608C208.702 316.446 208.637 316.29 208.522 316.175C208.407 316.06 208.251 315.995 208.089 315.995C207.926 315.995 207.77 316.06 207.655 316.175C207.54 316.29 207.476 316.446 207.476 316.608V319.674H204.41C204.247 319.674 204.091 319.738 203.976 319.853C203.861 319.968 203.797 320.124 203.797 320.287C203.797 320.449 203.861 320.605 203.976 320.72C204.091 320.835 204.247 320.9 204.41 320.9H207.476V323.965C207.476 324.128 207.54 324.284 207.655 324.399C207.77 324.514 207.926 324.579 208.089 324.579C208.251 324.579 208.407 324.514 208.522 324.399C208.637 324.284 208.702 324.128 208.702 323.965V320.9H211.767C211.93 320.9 212.086 320.835 212.201 320.72C212.316 320.605 212.38 320.449 212.38 320.287C212.38 320.124 212.316 319.968 212.201 319.853C212.086 319.738 211.93 319.674 211.767 319.674H208.702Z" fill="#E2E8F0"/>
<path d="M238.131 319.674V316.608C238.131 316.446 238.067 316.29 237.952 316.175C237.837 316.06 237.681 315.995 237.518 315.995C237.356 315.995 237.2 316.06 237.085 316.175C236.97 316.29 236.905 316.446 236.905 316.608V319.674H233.84C233.677 319.674 233.521 319.738 233.406 319.853C233.291 319.968 233.227 320.124 233.227 320.287C233.227 320.449 233.291 320.605 233.406 320.72C233.521 320.835 233.677 320.9 233.84 320.9H236.905V323.965C236.905 324.128 236.97 324.284 237.085 324.399C237.2 324.514 237.356 324.579 237.518 324.579C237.681 324.579 237.837 324.514 237.952 324.399C238.067 324.284 238.131 324.128 238.131 323.965V320.9H241.197C241.36 320.9 241.515 320.835 241.63 320.72C241.745 320.605 241.81 320.449 241.81 320.287C241.81 320.124 241.745 319.968 241.63 319.853C241.515 319.738 241.36 319.674 241.197 319.674H238.131Z" fill="#E2E8F0"/>
<path d="M267.559 319.674V316.608C267.559 316.446 267.495 316.29 267.38 316.175C267.265 316.06 267.109 315.995 266.946 315.995C266.783 315.995 266.627 316.06 266.513 316.175C266.398 316.29 266.333 316.446 266.333 316.608V319.674H263.267C263.105 319.674 262.949 319.738 262.834 319.853C262.719 319.968 262.654 320.124 262.654 320.287C262.654 320.449 262.719 320.605 262.834 320.72C262.949 320.835 263.105 320.9 263.267 320.9H266.333V323.965C266.333 324.128 266.398 324.284 266.513 324.399C266.627 324.514 266.783 324.579 266.946 324.579C267.109 324.579 267.265 324.514 267.38 324.399C267.495 324.284 267.559 324.128 267.559 323.965V320.9H270.625C270.787 320.9 270.943 320.835 271.058 320.72C271.173 320.605 271.238 320.449 271.238 320.287C271.238 320.124 271.173 319.968 271.058 319.853C270.943 319.738 270.787 319.674 270.625 319.674H267.559Z" fill="#E2E8F0"/>
<path d="M120.415 349.102V346.037C120.415 345.874 120.35 345.718 120.235 345.603C120.12 345.488 119.964 345.424 119.802 345.424C119.639 345.424 119.483 345.488 119.368 345.603C119.253 345.718 119.188 345.874 119.188 346.037V349.102H116.123C115.96 349.102 115.804 349.167 115.689 349.282C115.574 349.397 115.51 349.553 115.51 349.716C115.51 349.878 115.574 350.034 115.689 350.149C115.804 350.264 115.96 350.329 116.123 350.329H119.188V353.394C119.188 353.557 119.253 353.713 119.368 353.828C119.483 353.943 119.639 354.007 119.802 354.007C119.964 354.007 120.12 353.943 120.235 353.828C120.35 353.713 120.415 353.557 120.415 353.394V350.329H123.48C123.643 350.329 123.799 350.264 123.914 350.149C124.029 350.034 124.093 349.878 124.093 349.716C124.093 349.553 124.029 349.397 123.914 349.282C123.799 349.167 123.643 349.102 123.48 349.102H120.415Z" fill="#E2E8F0"/>
<path d="M149.844 349.103V346.037C149.844 345.875 149.78 345.719 149.665 345.604C149.55 345.489 149.394 345.424 149.231 345.424C149.069 345.424 148.913 345.489 148.798 345.604C148.683 345.719 148.618 345.875 148.618 346.037V349.103H145.553C145.39 349.103 145.234 349.167 145.119 349.282C145.004 349.397 144.939 349.553 144.939 349.716C144.939 349.878 145.004 350.034 145.119 350.149C145.234 350.264 145.39 350.329 145.553 350.329H148.618V353.394C148.618 353.557 148.683 353.713 148.798 353.828C148.913 353.943 149.069 354.008 149.231 354.008C149.394 354.008 149.55 353.943 149.665 353.828C149.78 353.713 149.844 353.557 149.844 353.394V350.329H152.91C153.072 350.329 153.228 350.264 153.343 350.149C153.458 350.034 153.523 349.878 153.523 349.716C153.523 349.553 153.458 349.397 153.343 349.282C153.228 349.167 153.072 349.103 152.91 349.103H149.844Z" fill="#E2E8F0"/>
<path d="M179.272 349.103V346.037C179.272 345.875 179.207 345.719 179.092 345.604C178.977 345.489 178.822 345.424 178.659 345.424C178.496 345.424 178.34 345.489 178.225 345.604C178.11 345.719 178.046 345.875 178.046 346.037V349.103H174.98C174.818 349.103 174.662 349.167 174.547 349.282C174.432 349.397 174.367 349.553 174.367 349.716C174.367 349.878 174.432 350.034 174.547 350.149C174.662 350.264 174.818 350.329 174.98 350.329H178.046V353.394C178.046 353.557 178.11 353.713 178.225 353.828C178.34 353.943 178.496 354.008 178.659 354.008C178.822 354.008 178.977 353.943 179.092 353.828C179.207 353.713 179.272 353.557 179.272 353.394V350.329H182.338C182.5 350.329 182.656 350.264 182.771 350.149C182.886 350.034 182.951 349.878 182.951 349.716C182.951 349.553 182.886 349.397 182.771 349.282C182.656 349.167 182.5 349.103 182.338 349.103H179.272Z" fill="#E2E8F0"/>
<path d="M208.702 349.102V346.037C208.702 345.874 208.637 345.718 208.522 345.603C208.407 345.488 208.251 345.424 208.089 345.424C207.926 345.424 207.77 345.488 207.655 345.603C207.54 345.718 207.476 345.874 207.476 346.037V349.102H204.41C204.247 349.102 204.091 349.167 203.976 349.282C203.861 349.397 203.797 349.553 203.797 349.716C203.797 349.878 203.861 350.034 203.976 350.149C204.091 350.264 204.247 350.329 204.41 350.329H207.476V353.394C207.476 353.557 207.54 353.713 207.655 353.828C207.77 353.943 207.926 354.007 208.089 354.007C208.251 354.007 208.407 353.943 208.522 353.828C208.637 353.713 208.702 353.557 208.702 353.394V350.329H211.767C211.93 350.329 212.086 350.264 212.201 350.149C212.316 350.034 212.38 349.878 212.38 349.716C212.38 349.553 212.316 349.397 212.201 349.282C212.086 349.167 211.93 349.102 211.767 349.102H208.702Z" fill="#E2E8F0"/>
<path d="M238.131 349.103V346.037C238.131 345.875 238.067 345.719 237.952 345.604C237.837 345.489 237.681 345.424 237.518 345.424C237.356 345.424 237.2 345.489 237.085 345.604C236.97 345.719 236.905 345.875 236.905 346.037V349.103H233.84C233.677 349.103 233.521 349.167 233.406 349.282C233.291 349.397 233.227 349.553 233.227 349.716C233.227 349.878 233.291 350.034 233.406 350.149C233.521 350.264 233.677 350.329 233.84 350.329H236.905V353.394C236.905 353.557 236.97 353.713 237.085 353.828C237.2 353.943 237.356 354.008 237.518 354.008C237.681 354.008 237.837 353.943 237.952 353.828C238.067 353.713 238.131 353.557 238.131 353.394V350.329H241.197C241.36 350.329 241.515 350.264 241.63 350.149C241.745 350.034 241.81 349.878 241.81 349.716C241.81 349.553 241.745 349.397 241.63 349.282C241.515 349.167 241.36 349.103 241.197 349.103H238.131Z" fill="#E2E8F0"/>
<path d="M267.559 349.103V346.037C267.559 345.875 267.495 345.719 267.38 345.604C267.265 345.489 267.109 345.424 266.946 345.424C266.783 345.424 266.627 345.489 266.513 345.604C266.398 345.719 266.333 345.875 266.333 346.037V349.103H263.267C263.105 349.103 262.949 349.167 262.834 349.282C262.719 349.397 262.654 349.553 262.654 349.716C262.654 349.878 262.719 350.034 262.834 350.149C262.949 350.264 263.105 350.329 263.267 350.329H266.333V353.394C266.333 353.557 266.398 353.713 266.513 353.828C266.627 353.943 266.783 354.008 266.946 354.008C267.109 354.008 267.265 353.943 267.38 353.828C267.495 353.713 267.559 353.557 267.559 353.394V350.329H270.625C270.787 350.329 270.943 350.264 271.058 350.149C271.173 350.034 271.238 349.878 271.238 349.716C271.238 349.553 271.173 349.397 271.058 349.282C270.943 349.167 270.787 349.103 270.625 349.103H267.559Z" fill="#EA580C"/>
<path d="M120.415 378.532V375.466C120.415 375.304 120.35 375.148 120.235 375.033C120.12 374.918 119.964 374.853 119.802 374.853C119.639 374.853 119.483 374.918 119.368 375.033C119.253 375.148 119.188 375.304 119.188 375.466V378.532H116.123C115.96 378.532 115.804 378.597 115.689 378.711C115.574 378.826 115.51 378.982 115.51 379.145C115.51 379.308 115.574 379.464 115.689 379.579C115.804 379.694 115.96 379.758 116.123 379.758H119.188V382.824C119.188 382.986 119.253 383.142 119.368 383.257C119.483 383.372 119.639 383.437 119.802 383.437C119.964 383.437 120.12 383.372 120.235 383.257C120.35 383.142 120.415 382.986 120.415 382.824V379.758H123.48C123.643 379.758 123.799 379.694 123.914 379.579C124.029 379.464 124.093 379.308 124.093 379.145C124.093 378.982 124.029 378.826 123.914 378.711C123.799 378.597 123.643 378.532 123.48 378.532H120.415Z" fill="#E2E8F0"/>
<path d="M149.844 378.532V375.466C149.844 375.304 149.78 375.148 149.665 375.033C149.55 374.918 149.394 374.853 149.231 374.853C149.069 374.853 148.913 374.918 148.798 375.033C148.683 375.148 148.618 375.304 148.618 375.466V378.532H145.553C145.39 378.532 145.234 378.597 145.119 378.711C145.004 378.826 144.939 378.982 144.939 379.145C144.939 379.308 145.004 379.464 145.119 379.579C145.234 379.694 145.39 379.758 145.553 379.758H148.618V382.824C148.618 382.986 148.683 383.142 148.798 383.257C148.913 383.372 149.069 383.437 149.231 383.437C149.394 383.437 149.55 383.372 149.665 383.257C149.78 383.142 149.844 382.986 149.844 382.824V379.758H152.91C153.072 379.758 153.228 379.694 153.343 379.579C153.458 379.464 153.523 379.308 153.523 379.145C153.523 378.982 153.458 378.826 153.343 378.711C153.228 378.597 153.072 378.532 152.91 378.532H149.844Z" fill="#E2E8F0"/>
<path d="M179.272 378.532V375.466C179.272 375.304 179.207 375.148 179.092 375.033C178.977 374.918 178.822 374.853 178.659 374.853C178.496 374.853 178.34 374.918 178.225 375.033C178.11 375.148 178.046 375.304 178.046 375.466V378.532H174.98C174.818 378.532 174.662 378.597 174.547 378.711C174.432 378.826 174.367 378.982 174.367 379.145C174.367 379.308 174.432 379.464 174.547 379.579C174.662 379.694 174.818 379.758 174.98 379.758H178.046V382.824C178.046 382.986 178.11 383.142 178.225 383.257C178.34 383.372 178.496 383.437 178.659 383.437C178.822 383.437 178.977 383.372 179.092 383.257C179.207 383.142 179.272 382.986 179.272 382.824V379.758H182.338C182.5 379.758 182.656 379.694 182.771 379.579C182.886 379.464 182.951 379.308 182.951 379.145C182.951 378.982 182.886 378.826 182.771 378.711C182.656 378.597 182.5 378.532 182.338 378.532H179.272Z" fill="#E2E8F0"/>
<path d="M208.702 378.532V375.467C208.702 375.304 208.637 375.148 208.522 375.033C208.407 374.918 208.251 374.854 208.089 374.854C207.926 374.854 207.77 374.918 207.655 375.033C207.54 375.148 207.476 375.304 207.476 375.467V378.532H204.41C204.247 378.532 204.091 378.597 203.976 378.712C203.861 378.827 203.797 378.983 203.797 379.145C203.797 379.308 203.861 379.464 203.976 379.579C204.091 379.694 204.247 379.758 204.41 379.758H207.476V382.824C207.476 382.986 207.54 383.142 207.655 383.257C207.77 383.372 207.926 383.437 208.089 383.437C208.251 383.437 208.407 383.372 208.522 383.257C208.637 383.142 208.702 382.986 208.702 382.824V379.758H211.767C211.93 379.758 212.086 379.694 212.201 379.579C212.316 379.464 212.38 379.308 212.38 379.145C212.38 378.983 212.316 378.827 212.201 378.712C212.086 378.597 211.93 378.532 211.767 378.532H208.702Z" fill="#E2E8F0"/>
<path d="M238.131 378.532V375.466C238.131 375.304 238.067 375.148 237.952 375.033C237.837 374.918 237.681 374.853 237.518 374.853C237.356 374.853 237.2 374.918 237.085 375.033C236.97 375.148 236.905 375.304 236.905 375.466V378.532H233.84C233.677 378.532 233.521 378.597 233.406 378.711C233.291 378.826 233.227 378.982 233.227 379.145C233.227 379.308 233.291 379.464 233.406 379.579C233.521 379.694 233.677 379.758 233.84 379.758H236.905V382.824C236.905 382.986 236.97 383.142 237.085 383.257C237.2 383.372 237.356 383.437 237.518 383.437C237.681 383.437 237.837 383.372 237.952 383.257C238.067 383.142 238.131 382.986 238.131 382.824V379.758H241.197C241.36 379.758 241.515 379.694 241.63 379.579C241.745 379.464 241.81 379.308 241.81 379.145C241.81 378.982 241.745 378.826 241.63 378.711C241.515 378.597 241.36 378.532 241.197 378.532H238.131Z" fill="#E2E8F0"/>
<path d="M267.559 378.532V375.466C267.559 375.304 267.495 375.148 267.38 375.033C267.265 374.918 267.109 374.853 266.946 374.853C266.783 374.853 266.627 374.918 266.513 375.033C266.398 375.148 266.333 375.304 266.333 375.466V378.532H263.267C263.105 378.532 262.949 378.597 262.834 378.711C262.719 378.826 262.654 378.982 262.654 379.145C262.654 379.308 262.719 379.464 262.834 379.579C262.949 379.694 263.105 379.758 263.267 379.758H266.333V382.824C266.333 382.986 266.398 383.142 266.513 383.257C266.627 383.372 266.783 383.437 266.946 383.437C267.109 383.437 267.265 383.372 267.38 383.257C267.495 383.142 267.559 382.986 267.559 382.824V379.758H270.625C270.787 379.758 270.943 379.694 271.058 379.579C271.173 379.464 271.238 379.308 271.238 379.145C271.238 378.982 271.173 378.826 271.058 378.711C270.943 378.597 270.787 378.532 270.625 378.532H267.559Z" fill="#E2E8F0"/>
<path d="M120.415 407.961V404.895C120.415 404.733 120.35 404.577 120.235 404.462C120.12 404.347 119.964 404.282 119.802 404.282C119.639 404.282 119.483 404.347 119.368 404.462C119.253 404.577 119.188 404.733 119.188 404.895V407.961H116.123C115.96 407.961 115.804 408.025 115.689 408.14C115.574 408.255 115.51 408.411 115.51 408.574C115.51 408.737 115.574 408.893 115.689 409.007C115.804 409.122 115.96 409.187 116.123 409.187H119.188V412.253C119.188 412.415 119.253 412.571 119.368 412.686C119.483 412.801 119.639 412.866 119.802 412.866C119.964 412.866 120.12 412.801 120.235 412.686C120.35 412.571 120.415 412.415 120.415 412.253V409.187H123.48C123.643 409.187 123.799 409.122 123.914 409.007C124.029 408.893 124.093 408.737 124.093 408.574C124.093 408.411 124.029 408.255 123.914 408.14C123.799 408.025 123.643 407.961 123.48 407.961H120.415Z" fill="#E2E8F0"/>
<path d="M149.844 407.961V404.895C149.844 404.733 149.78 404.577 149.665 404.462C149.55 404.347 149.394 404.282 149.231 404.282C149.069 404.282 148.913 404.347 148.798 404.462C148.683 404.577 148.618 404.733 148.618 404.895V407.961H145.553C145.39 407.961 145.234 408.025 145.119 408.14C145.004 408.255 144.939 408.411 144.939 408.574C144.939 408.737 145.004 408.893 145.119 409.007C145.234 409.122 145.39 409.187 145.553 409.187H148.618V412.253C148.618 412.415 148.683 412.571 148.798 412.686C148.913 412.801 149.069 412.866 149.231 412.866C149.394 412.866 149.55 412.801 149.665 412.686C149.78 412.571 149.844 412.415 149.844 412.253V409.187H152.91C153.072 409.187 153.228 409.122 153.343 409.007C153.458 408.893 153.523 408.737 153.523 408.574C153.523 408.411 153.458 408.255 153.343 408.14C153.228 408.025 153.072 407.961 152.91 407.961H149.844Z" fill="#E2E8F0"/>
<path d="M179.272 407.961V404.895C179.272 404.733 179.207 404.577 179.092 404.462C178.977 404.347 178.822 404.282 178.659 404.282C178.496 404.282 178.34 404.347 178.225 404.462C178.11 404.577 178.046 404.733 178.046 404.895V407.961H174.98C174.818 407.961 174.662 408.025 174.547 408.14C174.432 408.255 174.367 408.411 174.367 408.574C174.367 408.737 174.432 408.893 174.547 409.007C174.662 409.122 174.818 409.187 174.98 409.187H178.046V412.253C178.046 412.415 178.11 412.571 178.225 412.686C178.34 412.801 178.496 412.866 178.659 412.866C178.822 412.866 178.977 412.801 179.092 412.686C179.207 412.571 179.272 412.415 179.272 412.253V409.187H182.338C182.5 409.187 182.656 409.122 182.771 409.007C182.886 408.893 182.951 408.737 182.951 408.574C182.951 408.411 182.886 408.255 182.771 408.14C182.656 408.025 182.5 407.961 182.338 407.961H179.272Z" fill="#9333EA"/>
<path d="M208.702 407.961V404.895C208.702 404.733 208.637 404.577 208.522 404.462C208.407 404.347 208.251 404.282 208.089 404.282C207.926 404.282 207.77 404.347 207.655 404.462C207.54 404.577 207.476 404.733 207.476 404.895V407.961H204.41C204.247 407.961 204.091 408.025 203.976 408.14C203.861 408.255 203.797 408.411 203.797 408.574C203.797 408.737 203.861 408.893 203.976 409.007C204.091 409.122 204.247 409.187 204.41 409.187H207.476V412.253C207.476 412.415 207.54 412.571 207.655 412.686C207.77 412.801 207.926 412.866 208.089 412.866C208.251 412.866 208.407 412.801 208.522 412.686C208.637 412.571 208.702 412.415 208.702 412.253V409.187H211.767C211.93 409.187 212.086 409.122 212.201 409.007C212.316 408.893 212.38 408.737 212.38 408.574C212.38 408.411 212.316 408.255 212.201 408.14C212.086 408.025 211.93 407.961 211.767 407.961H208.702Z" fill="#E2E8F0"/>
<path d="M238.131 407.961V404.895C238.131 404.733 238.067 404.577 237.952 404.462C237.837 404.347 237.681 404.282 237.518 404.282C237.356 404.282 237.2 404.347 237.085 404.462C236.97 404.577 236.905 404.733 236.905 404.895V407.961H233.84C233.677 407.961 233.521 408.025 233.406 408.14C233.291 408.255 233.227 408.411 233.227 408.574C233.227 408.737 233.291 408.893 233.406 409.007C233.521 409.122 233.677 409.187 233.84 409.187H236.905V412.253C236.905 412.415 236.97 412.571 237.085 412.686C237.2 412.801 237.356 412.866 237.518 412.866C237.681 412.866 237.837 412.801 237.952 412.686C238.067 412.571 238.131 412.415 238.131 412.253V409.187H241.197C241.36 409.187 241.515 409.122 241.63 409.007C241.745 408.893 241.81 408.737 241.81 408.574C241.81 408.411 241.745 408.255 241.63 408.14C241.515 408.025 241.36 407.961 241.197 407.961H238.131Z" fill="#E2E8F0"/>
<path d="M267.559 407.961V404.895C267.559 404.733 267.495 404.577 267.38 404.462C267.265 404.347 267.109 404.282 266.946 404.282C266.783 404.282 266.627 404.347 266.513 404.462C266.398 404.577 266.333 404.733 266.333 404.895V407.961H263.267C263.105 407.961 262.949 408.025 262.834 408.14C262.719 408.255 262.654 408.411 262.654 408.574C262.654 408.737 262.719 408.893 262.834 409.007C262.949 409.122 263.105 409.187 263.267 409.187H266.333V412.253C266.333 412.415 266.398 412.571 266.513 412.686C266.627 412.801 266.783 412.866 266.946 412.866C267.109 412.866 267.265 412.801 267.38 412.686C267.495 412.571 267.559 412.415 267.559 412.253V409.187H270.625C270.787 409.187 270.943 409.122 271.058 409.007C271.173 408.893 271.238 408.737 271.238 408.574C271.238 408.411 271.173 408.255 271.058 408.14C270.943 408.025 270.787 407.961 270.625 407.961H267.559Z" fill="#E2E8F0"/>
</g>
<g filter="url(#filter0_d_141_326)">
<path fill-rule="evenodd" clip-rule="evenodd" d="M159.145 189.821C159.134 239.927 174.452 289.561 205.796 323.742C236.213 356.912 278.866 368.94 320.369 365.637C359.081 362.556 396.103 342.091 420.334 306.668C442.409 274.399 447.209 230.418 440.641 189.821C435.116 155.673 406.818 137.547 388.539 110.138C365.139 75.0508 357.261 20.4125 320.369 9.47278C279.651 -2.60147 236.203 22.0166 205.853 55.9658C174.891 90.6006 159.155 139.727 159.145 189.821Z" fill="#FFCF52"/>
</g>
<path d="M427.186 296.92L423.915 298.639L424.54 294.997L421.893 292.417L425.55 291.886L427.186 288.572L428.821 291.886L432.479 292.417L429.832 294.997L430.457 298.639L427.186 296.92Z" fill="#FB923C"/>
<path d="M334.992 51.0671L331.722 52.7865L332.346 49.1443L329.699 46.5649L333.356 46.0335L334.992 42.7192L336.628 46.0335L340.285 46.5649L337.639 49.1443L338.264 52.7865L334.992 51.0671Z" fill="#FB923C"/>
<path d="M443.081 220.636C441.618 220.636 440.432 219.45 440.432 217.987C440.432 216.523 441.618 215.337 443.081 215.337C444.544 215.337 445.73 216.523 445.73 217.987C445.73 219.45 444.544 220.636 443.081 220.636Z" fill="#FB923C"/>
<g clip-path="url(#clip0_141_326)">
<path d="M364.662 70.1461C362.223 70.1461 360.246 68.1693 360.246 65.7306C360.246 63.292 362.223 61.3152 364.662 61.3152C367.1 61.3152 369.077 63.292 369.077 65.7306C369.077 68.1693 367.1 70.1461 364.662 70.1461Z" fill="#FB923C"/>
</g>
<g clip-path="url(#clip1_141_326)">
<path d="M456.857 263.013C454.418 263.013 452.441 261.036 452.441 258.598C452.441 256.159 454.418 254.182 456.857 254.182C459.296 254.182 461.272 256.159 461.272 258.598C461.272 261.036 459.296 263.013 456.857 263.013Z" fill="#FB923C"/>
</g>
<path d="M329.694 92.9471C325.792 92.9471 322.629 89.7842 322.629 85.8823C322.629 81.9805 325.792 78.8176 329.694 78.8176C333.595 78.8176 336.758 81.9805 336.758 85.8823C336.758 89.7842 333.595 92.9471 329.694 92.9471Z" fill="#FB923C"/>
<path d="M369.96 108.637C368.497 108.637 367.311 107.451 367.311 105.988C367.311 104.525 368.497 103.339 369.96 103.339C371.423 103.339 372.609 104.525 372.609 105.988C372.609 107.451 371.423 108.637 369.96 108.637Z" fill="#FB923C"/>
<g clip-path="url(#clip2_141_326)">
<path d="M453.677 109.697C452.213 109.697 451.027 108.511 451.027 107.048C451.027 105.585 452.213 104.399 453.677 104.399C455.14 104.399 456.326 105.585 456.326 107.048C456.326 108.511 455.14 109.697 453.677 109.697Z" fill="#FB923C"/>
</g>
<g clip-path="url(#clip3_141_326)">
<path d="M437.782 52.6439C436.806 52.6439 436.016 51.8532 436.016 50.8778C436.016 49.9023 436.806 49.1116 437.782 49.1116C438.757 49.1116 439.548 49.9023 439.548 50.8778C439.548 51.8532 438.757 52.6439 437.782 52.6439Z" fill="#FB923C"/>
</g>
<g clip-path="url(#clip4_141_326)">
<path d="M311.676 40.9872C310.701 40.9872 309.91 40.1965 309.91 39.221C309.91 38.2456 310.701 37.4548 311.676 37.4548C312.652 37.4548 313.443 38.2456 313.443 39.221C313.443 40.1965 312.652 40.9872 311.676 40.9872Z" fill="#FB923C"/>
</g>
<path d="M422.874 196.351V192.819C422.874 192.632 422.8 192.452 422.668 192.319C422.535 192.187 422.355 192.113 422.168 192.113C421.981 192.113 421.801 192.187 421.668 192.319C421.536 192.452 421.461 192.632 421.461 192.819V196.351H417.929C417.742 196.351 417.562 196.426 417.43 196.558C417.297 196.691 417.223 196.87 417.223 197.058C417.223 197.245 417.297 197.425 417.43 197.557C417.562 197.69 417.742 197.764 417.929 197.764H421.461V201.297C421.461 201.484 421.536 201.664 421.668 201.796C421.801 201.929 421.981 202.003 422.168 202.003C422.355 202.003 422.535 201.929 422.668 201.796C422.8 201.664 422.874 201.484 422.874 201.297V197.764H426.407C426.594 197.764 426.774 197.69 426.906 197.557C427.039 197.425 427.113 197.245 427.113 197.058C427.113 196.87 427.039 196.691 426.906 196.558C426.774 196.426 426.594 196.351 426.407 196.351H422.874Z" fill="#FB923C"/>
<path d="M425.807 102.474V99.8248C425.807 99.6843 425.751 99.5495 425.652 99.4501C425.553 99.3507 425.418 99.2949 425.277 99.2949C425.137 99.2949 425.002 99.3507 424.903 99.4501C424.803 99.5495 424.747 99.6843 424.747 99.8248V102.474H422.098C421.958 102.474 421.823 102.53 421.724 102.629C421.624 102.729 421.568 102.863 421.568 103.004C421.568 103.144 421.624 103.279 421.724 103.379C421.823 103.478 421.958 103.534 422.098 103.534H424.747V106.183C424.747 106.324 424.803 106.458 424.903 106.558C425.002 106.657 425.137 106.713 425.277 106.713C425.418 106.713 425.553 106.657 425.652 106.558C425.751 106.458 425.807 106.324 425.807 106.183V103.534H428.456C428.597 103.534 428.732 103.478 428.831 103.379C428.93 103.279 428.986 103.144 428.986 103.004C428.986 102.863 428.93 102.729 428.831 102.629C428.732 102.53 428.597 102.474 428.456 102.474H425.807Z" fill="#FB923C"/>
<path d="M433.066 131.36L434.627 129.799C434.669 129.758 434.703 129.709 434.726 129.655C434.749 129.602 434.761 129.544 434.762 129.485C434.762 129.426 434.751 129.368 434.729 129.314C434.706 129.26 434.674 129.21 434.632 129.169C434.591 129.127 434.541 129.095 434.487 129.072C434.433 129.05 434.375 129.039 434.316 129.04C434.258 129.04 434.2 129.052 434.146 129.075C434.092 129.099 434.043 129.132 434.002 129.174L432.441 130.735L430.88 129.174C430.84 129.132 430.791 129.099 430.737 129.075C430.683 129.052 430.625 129.04 430.566 129.04C430.508 129.039 430.45 129.05 430.395 129.072C430.341 129.095 430.292 129.127 430.25 129.169C430.209 129.21 430.176 129.26 430.154 129.314C430.132 129.368 430.121 129.426 430.121 129.485C430.122 129.544 430.134 129.602 430.157 129.655C430.18 129.709 430.214 129.758 430.256 129.799L431.817 131.36L430.256 132.921C430.214 132.962 430.18 133.01 430.157 133.064C430.134 133.118 430.122 133.176 430.121 133.235C430.121 133.293 430.132 133.351 430.154 133.406C430.176 133.46 430.209 133.509 430.25 133.551C430.292 133.592 430.341 133.625 430.395 133.647C430.45 133.669 430.508 133.68 430.566 133.68C430.625 133.679 430.683 133.667 430.737 133.644C430.791 133.621 430.84 133.587 430.88 133.545L432.441 131.984L434.002 133.545C434.043 133.587 434.092 133.621 434.146 133.644C434.2 133.667 434.258 133.679 434.316 133.68C434.375 133.68 434.433 133.669 434.487 133.647C434.541 133.625 434.591 133.592 434.632 133.551C434.674 133.509 434.706 133.46 434.729 133.406C434.751 133.351 434.762 133.293 434.762 133.235C434.761 133.176 434.749 133.118 434.726 133.064C434.703 133.01 434.669 132.962 434.627 132.921L433.066 131.36V131.36Z" fill="#FB923C"/>
<path d="M349.508 139.564V136.915C349.508 136.774 349.453 136.639 349.353 136.54C349.254 136.441 349.119 136.385 348.979 136.385C348.838 136.385 348.703 136.441 348.604 136.54C348.504 136.639 348.449 136.774 348.449 136.915V139.564H345.799C345.659 139.564 345.524 139.62 345.425 139.719C345.325 139.818 345.27 139.953 345.27 140.094C345.27 140.234 345.325 140.369 345.425 140.468C345.524 140.568 345.659 140.624 345.799 140.624H348.449V143.273C348.449 143.413 348.504 143.548 348.604 143.648C348.703 143.747 348.838 143.803 348.979 143.803C349.119 143.803 349.254 143.747 349.353 143.648C349.453 143.548 349.508 143.413 349.508 143.273V140.624H352.158C352.298 140.624 352.433 140.568 352.532 140.468C352.632 140.369 352.687 140.234 352.687 140.094C352.687 139.953 352.632 139.818 352.532 139.719C352.433 139.62 352.298 139.564 352.158 139.564H349.508Z" fill="#FB923C"/>
<path d="M472.681 223.175V219.642C472.681 219.455 472.607 219.275 472.474 219.143C472.342 219.01 472.162 218.936 471.975 218.936C471.787 218.936 471.608 219.01 471.475 219.143C471.343 219.275 471.268 219.455 471.268 219.642V223.175H467.736C467.548 223.175 467.369 223.249 467.236 223.382C467.104 223.514 467.029 223.694 467.029 223.881C467.029 224.068 467.104 224.248 467.236 224.381C467.369 224.513 467.548 224.588 467.736 224.588H471.268V228.12C471.268 228.307 471.343 228.487 471.475 228.619C471.608 228.752 471.787 228.826 471.975 228.826C472.162 228.826 472.342 228.752 472.474 228.619C472.607 228.487 472.681 228.307 472.681 228.12V224.588H476.213C476.401 224.588 476.58 224.513 476.713 224.381C476.845 224.248 476.92 224.068 476.92 223.881C476.92 223.694 476.845 223.514 476.713 223.382C476.58 223.249 476.401 223.175 476.213 223.175H472.681Z" fill="#FB923C"/>
<path d="M312.604 121.796L315.102 119.298C315.169 119.232 315.223 119.155 315.26 119.068C315.297 118.982 315.316 118.889 315.317 118.796C315.318 118.702 315.3 118.609 315.265 118.522C315.229 118.435 315.177 118.356 315.11 118.29C315.044 118.224 314.965 118.171 314.878 118.136C314.792 118.1 314.698 118.082 314.605 118.083C314.511 118.084 314.418 118.103 314.332 118.14C314.246 118.177 314.168 118.231 314.103 118.299L311.605 120.796L309.107 118.299C309.042 118.231 308.964 118.177 308.878 118.14C308.792 118.103 308.699 118.084 308.605 118.083C308.511 118.082 308.418 118.1 308.332 118.136C308.245 118.171 308.166 118.224 308.099 118.29C308.033 118.356 307.981 118.435 307.945 118.522C307.91 118.609 307.892 118.702 307.893 118.796C307.893 118.889 307.913 118.982 307.95 119.068C307.987 119.155 308.041 119.232 308.108 119.298L310.606 121.795L308.108 124.293C308.041 124.358 307.987 124.436 307.95 124.522C307.913 124.609 307.893 124.701 307.893 124.795C307.892 124.889 307.91 124.982 307.945 125.069C307.981 125.156 308.033 125.234 308.099 125.301C308.166 125.367 308.245 125.42 308.332 125.455C308.418 125.491 308.511 125.509 308.605 125.508C308.699 125.507 308.792 125.487 308.878 125.45C308.964 125.413 309.042 125.36 309.107 125.292L311.605 122.795L314.103 125.292C314.168 125.36 314.246 125.413 314.332 125.45C314.418 125.487 314.511 125.507 314.605 125.508C314.698 125.509 314.792 125.491 314.878 125.455C314.965 125.42 315.044 125.367 315.11 125.301C315.177 125.234 315.229 125.156 315.265 125.069C315.3 124.982 315.318 124.889 315.317 124.795C315.316 124.701 315.297 124.609 315.26 124.522C315.223 124.436 315.169 124.358 315.102 124.293L312.604 121.795V121.796Z" fill="#FB923C"/>
<defs>
<filter id="filter0_d_141_326" x="159.145" y="6.35815" width="285.273" height="366.164" filterUnits="userSpaceOnUse" color-interpolation-filters="sRGB">
<feFlood flood-opacity="0" result="BackgroundImageFix"/>
<feColorMatrix in="SourceAlpha" type="matrix" values="0 0 0 0 0 0 0 0 0 0 0 0 0 0 0 0 0 0 127 0" result="hardAlpha"/>
<feOffset dx="1.05971" dy="6.35825"/>
<feComposite in2="hardAlpha" operator="out"/>
<feColorMatrix type="matrix" values="0 0 0 0 0 0 0 0 0 0 0 0 0 0 0 0 0 0 0.12 0"/>
<feBlend mode="normal" in2="BackgroundImageFix" result="effect1_dropShadow_141_326"/>
<feBlend mode="normal" in="SourceGraphic" in2="effect1_dropShadow_141_326" result="shape"/>
</filter>
<clipPath id="clip0_141_326">
<rect width="10.5971" height="10.5971" fill="white" transform="translate(359.363 60.4036)"/>
</clipPath>
<clipPath id="clip1_141_326">
<rect width="10.5971" height="10.5971" fill="white" transform="translate(451.559 253.271)"/>
</clipPath>
<clipPath id="clip2_141_326">
<rect width="6.35825" height="6.35825" fill="white" transform="translate(450.498 103.852)"/>
</clipPath>
<clipPath id="clip3_141_326">
<rect width="4.23883" height="4.23883" fill="white" transform="translate(435.662 48.7468)"/>
</clipPath>
<clipPath id="clip4_141_326">
<rect width="4.23883" height="4.23883" fill="white" transform="translate(309.557 37.0901)"/>
</clipPath>
</defs>
</svg>
