<svg width="611" height="563" viewBox="0 0 611 563" fill="none" xmlns="http://www.w3.org/2000/svg">
<path fill-rule="evenodd" clip-rule="evenodd" d="M73.6662 198.509C51.2438 246.498 41.3738 314.081 61.9363 378.93C82.4989 443.78 135.008 482.763 208.357 508.545C345.987 556.92 476.587 494.396 496.952 432.465C515.973 374.62 506.366 334.318 458.577 282.062C410.789 229.805 377.593 192.687 365.092 139.9C352.777 87.896 336.567 56.8408 299.166 48.7222C258.715 39.9414 216.172 46.2034 176.25 73.5534C135.523 101.456 94.5254 153.866 73.6662 198.509Z" fill="#FB923C"/>
<path d="M395.098 86.7298L398.245 88.3844L397.644 84.8794L400.191 82.3972L396.672 81.8858L395.098 78.6964L393.524 81.8858L390.004 82.3972L392.551 84.8794L391.949 88.3844L395.098 86.7298Z" fill="#FACC15"/>
<path d="M453.244 182.622L455.717 183.922L455.245 181.168L457.246 179.217L454.481 178.816L453.244 176.31L452.007 178.816L449.242 179.217L451.243 181.168L450.77 183.922L453.244 182.622Z" fill="#FACC15"/>
<g clip-path="url(#clip0_141_148)">
<path d="M350.079 115.326C351.488 115.326 352.629 114.184 352.629 112.776C352.629 111.368 351.488 110.227 350.079 110.227C348.671 110.227 347.53 111.368 347.53 112.776C347.53 114.184 348.671 115.326 350.079 115.326Z" fill="#FACC15"/>
</g>
<g clip-path="url(#clip1_141_148)">
<path d="M436.18 466.646C437.789 466.646 439.094 465.341 439.094 463.732C439.094 462.123 437.789 460.818 436.18 460.818C434.571 460.818 433.266 462.123 433.266 463.732C433.266 465.341 434.571 466.646 436.18 466.646Z" fill="#FACC15"/>
</g>
<path d="M299.819 137.842C301.83 137.842 303.461 136.211 303.461 134.2C303.461 132.188 301.83 130.557 299.819 130.557C297.807 130.557 296.177 132.188 296.177 134.2C296.177 136.211 297.807 137.842 299.819 137.842Z" fill="#FACC15"/>
<g clip-path="url(#clip2_141_148)">
<path d="M238.631 466.505C240.643 466.505 242.273 464.874 242.273 462.863C242.273 460.851 240.643 459.221 238.631 459.221C236.62 459.221 234.989 460.851 234.989 462.863C234.989 464.874 236.62 466.505 238.631 466.505Z" fill="#FACC15"/>
</g>
<path d="M421.757 43.3673C423.97 43.3673 425.764 41.5736 425.764 39.3609C425.764 37.1482 423.97 35.3546 421.757 35.3546C419.545 35.3546 417.751 37.1482 417.751 39.3609C417.751 41.5736 419.545 43.3673 421.757 43.3673Z" fill="#FACC15"/>
<g clip-path="url(#clip3_141_148)">
<path d="M444.067 265.883C444.871 265.883 445.523 265.231 445.523 264.426C445.523 263.622 444.871 262.97 444.067 262.97C443.262 262.97 442.61 263.622 442.61 264.426C442.61 265.231 443.262 265.883 444.067 265.883Z" fill="#FACC15"/>
</g>
<g clip-path="url(#clip4_141_148)">
<path d="M339.591 298.014C340.999 298.014 342.141 296.872 342.141 295.464C342.141 294.056 340.999 292.915 339.591 292.915C338.183 292.915 337.042 294.056 337.042 295.464C337.042 296.872 338.183 298.014 339.591 298.014Z" fill="#FACC15"/>
</g>
<g clip-path="url(#clip5_141_148)">
<path d="M291.951 62.95C293.158 62.95 294.137 61.9717 294.137 60.7647C294.137 59.5578 293.158 58.5795 291.951 58.5795C290.745 58.5795 289.766 59.5578 289.766 60.7647C289.766 61.9717 290.745 62.95 291.951 62.95Z" fill="#FACC15"/>
</g>
<path d="M414.02 151.767V149.035C414.02 148.89 414.078 148.751 414.18 148.649C414.283 148.546 414.422 148.489 414.566 148.489C414.711 148.489 414.85 148.546 414.953 148.649C415.055 148.751 415.113 148.89 415.113 149.035V151.767H417.844C417.989 151.767 418.128 151.824 418.231 151.927C418.333 152.029 418.391 152.168 418.391 152.313C418.391 152.458 418.333 152.597 418.231 152.699C418.128 152.802 417.989 152.859 417.844 152.859H415.113V155.591C415.113 155.736 415.055 155.875 414.953 155.977C414.85 156.08 414.711 156.137 414.566 156.137C414.422 156.137 414.283 156.08 414.18 155.977C414.078 155.875 414.02 155.736 414.02 155.591V152.859H411.289C411.144 152.859 411.005 152.802 410.902 152.699C410.8 152.597 410.742 152.458 410.742 152.313C410.742 152.168 410.8 152.029 410.902 151.927C411.005 151.824 411.144 151.767 411.289 151.767H414.02Z" fill="#FACC15"/>
<path d="M428.798 214.418V212.962C428.798 212.884 428.829 212.81 428.883 212.756C428.938 212.701 429.012 212.67 429.089 212.67C429.167 212.67 429.241 212.701 429.295 212.756C429.35 212.81 429.381 212.884 429.381 212.962V214.418H430.838C430.915 214.418 430.989 214.449 431.044 214.504C431.098 214.558 431.129 214.633 431.129 214.71C431.129 214.787 431.098 214.861 431.044 214.916C430.989 214.971 430.915 215.001 430.838 215.001H429.381V216.458C429.381 216.535 429.35 216.609 429.295 216.664C429.241 216.719 429.167 216.749 429.089 216.749C429.012 216.749 428.938 216.719 428.883 216.664C428.829 216.609 428.798 216.535 428.798 216.458V215.001H427.341C427.264 215.001 427.19 214.971 427.135 214.916C427.08 214.861 427.05 214.787 427.05 214.71C427.05 214.633 427.08 214.558 427.135 214.504C427.19 214.449 427.264 214.418 427.341 214.418H428.798Z" fill="#FACC15"/>
<path d="M379.383 245.639C380.59 245.639 381.568 244.66 381.568 243.453C381.568 242.246 380.59 241.268 379.383 241.268C378.176 241.268 377.198 242.246 377.198 243.453C377.198 244.66 378.176 245.639 379.383 245.639Z" fill="#FACC15"/>
<path d="M342.039 166.255V164.07C342.039 163.954 342.085 163.843 342.167 163.761C342.249 163.679 342.36 163.633 342.476 163.633C342.592 163.633 342.703 163.679 342.785 163.761C342.867 163.843 342.913 163.954 342.913 164.07V166.255H345.098C345.214 166.255 345.325 166.301 345.407 166.383C345.489 166.465 345.535 166.577 345.535 166.692C345.535 166.808 345.489 166.92 345.407 167.001C345.325 167.083 345.214 167.129 345.098 167.129H342.913V169.315C342.913 169.431 342.867 169.542 342.785 169.624C342.703 169.706 342.592 169.752 342.476 169.752C342.36 169.752 342.249 169.706 342.167 169.624C342.085 169.542 342.039 169.431 342.039 169.315V167.129H339.853C339.738 167.129 339.626 167.083 339.544 167.001C339.462 166.92 339.416 166.808 339.416 166.692C339.416 166.577 339.462 166.465 339.544 166.383C339.626 166.301 339.738 166.255 339.853 166.255H342.039Z" fill="#FACC15"/>
<path d="M339.371 374.973L338.728 374.329C338.71 374.312 338.696 374.292 338.687 374.27C338.677 374.248 338.672 374.224 338.672 374.2C338.672 374.175 338.676 374.152 338.686 374.129C338.695 374.107 338.708 374.086 338.725 374.069C338.743 374.052 338.763 374.039 338.785 374.03C338.808 374.02 338.832 374.016 338.856 374.016C338.88 374.016 338.904 374.021 338.926 374.031C338.948 374.04 338.968 374.054 338.985 374.072L339.629 374.715L340.273 374.072C340.29 374.054 340.31 374.04 340.332 374.031C340.354 374.021 340.378 374.016 340.402 374.016C340.426 374.016 340.45 374.02 340.473 374.03C340.495 374.039 340.516 374.052 340.533 374.069C340.55 374.086 340.563 374.107 340.572 374.129C340.582 374.152 340.586 374.175 340.586 374.2C340.586 374.224 340.581 374.248 340.571 374.27C340.562 374.292 340.548 374.312 340.53 374.329L339.887 374.973L340.53 375.617C340.548 375.634 340.562 375.654 340.571 375.676C340.581 375.698 340.586 375.722 340.586 375.746C340.586 375.77 340.582 375.794 340.572 375.817C340.563 375.839 340.55 375.859 340.533 375.877C340.516 375.894 340.495 375.907 340.473 375.916C340.45 375.925 340.426 375.93 340.402 375.93C340.378 375.93 340.354 375.925 340.332 375.915C340.31 375.906 340.29 375.892 340.273 375.874L339.629 375.231L338.985 375.874C338.968 375.892 338.948 375.906 338.926 375.915C338.904 375.925 338.88 375.93 338.856 375.93C338.832 375.93 338.808 375.925 338.785 375.916C338.763 375.907 338.743 375.894 338.725 375.877C338.708 375.859 338.695 375.839 338.686 375.817C338.676 375.794 338.672 375.77 338.672 375.746C338.672 375.722 338.677 375.698 338.687 375.676C338.696 375.654 338.71 375.634 338.728 375.617L339.371 374.973V374.973Z" fill="#FACC15"/>
<path d="M363.349 57.6366L361.417 55.7048C361.365 55.6544 361.324 55.5941 361.295 55.5274C361.266 55.4608 361.251 55.3891 361.251 55.3166C361.25 55.244 361.264 55.1721 361.291 55.1049C361.319 55.0378 361.359 54.9768 361.411 54.9255C361.462 54.8742 361.523 54.8337 361.59 54.8062C361.657 54.7787 361.729 54.7649 361.802 54.7655C361.874 54.7662 361.946 54.7812 362.013 54.8099C362.079 54.8385 362.14 54.8801 362.19 54.9323L364.122 56.8635L366.053 54.9323C366.103 54.8801 366.164 54.8385 366.23 54.8099C366.297 54.7812 366.369 54.7662 366.441 54.7655C366.514 54.7649 366.586 54.7787 366.653 54.8062C366.72 54.8337 366.781 54.8742 366.832 54.9255C366.883 54.9768 366.924 55.0378 366.952 55.1049C366.979 55.1721 366.993 55.244 366.992 55.3166C366.992 55.3891 366.976 55.4608 366.948 55.5274C366.919 55.5941 366.878 55.6544 366.825 55.7048L364.894 57.636L366.825 59.5678C366.878 59.6182 366.919 59.6785 366.948 59.7451C366.976 59.8118 366.992 59.8835 366.992 59.956C366.993 60.0285 366.979 60.1005 366.952 60.1676C366.924 60.2347 366.883 60.2957 366.832 60.347C366.781 60.3983 366.72 60.4389 366.653 60.4664C366.586 60.4938 366.514 60.5077 366.441 60.507C366.369 60.5064 366.297 60.4913 366.23 60.4627C366.164 60.4341 366.103 60.3924 366.053 60.3403L364.122 58.409L362.19 60.3403C362.14 60.3924 362.079 60.4341 362.013 60.4627C361.946 60.4913 361.874 60.5064 361.802 60.507C361.729 60.5077 361.657 60.4938 361.59 60.4664C361.523 60.4389 361.462 60.3983 361.411 60.347C361.359 60.2957 361.319 60.2347 361.291 60.1676C361.264 60.1005 361.25 60.0285 361.251 59.956C361.251 59.8835 361.266 59.8118 361.295 59.7451C361.324 59.6785 361.365 59.6182 361.417 59.5678L363.349 57.636V57.6366Z" fill="#FACC15"/>
<path d="M344.652 513.275V511.089C344.652 510.974 344.698 510.862 344.78 510.78C344.862 510.698 344.973 510.652 345.089 510.652C345.205 510.652 345.316 510.698 345.398 510.78C345.48 510.862 345.526 510.974 345.526 511.089V513.275H347.711C347.827 513.275 347.938 513.321 348.02 513.403C348.102 513.485 348.148 513.596 348.148 513.712C348.148 513.828 348.102 513.939 348.02 514.021C347.938 514.103 347.827 514.149 347.711 514.149H345.526V516.334C345.526 516.45 345.48 516.561 345.398 516.643C345.316 516.725 345.205 516.771 345.089 516.771C344.973 516.771 344.862 516.725 344.78 516.643C344.698 516.561 344.652 516.45 344.652 516.334V514.149H342.467C342.351 514.149 342.24 514.103 342.158 514.021C342.076 513.939 342.03 513.828 342.03 513.712C342.03 513.596 342.076 513.485 342.158 513.403C342.24 513.321 342.351 513.275 342.467 513.275H344.652Z" fill="#FACC15"/>
<path d="M381.379 124.298V122.113C381.379 121.997 381.425 121.886 381.507 121.804C381.589 121.722 381.7 121.676 381.816 121.676C381.932 121.676 382.043 121.722 382.125 121.804C382.207 121.886 382.253 121.997 382.253 122.113V124.298H384.438C384.554 124.298 384.665 124.344 384.747 124.426C384.829 124.508 384.875 124.619 384.875 124.735C384.875 124.851 384.829 124.962 384.747 125.044C384.665 125.126 384.554 125.172 384.438 125.172H382.253V127.357C382.253 127.473 382.207 127.584 382.125 127.666C382.043 127.748 381.932 127.794 381.816 127.794C381.7 127.794 381.589 127.748 381.507 127.666C381.425 127.584 381.379 127.473 381.379 127.357V125.172H379.193C379.077 125.172 378.966 125.126 378.884 125.044C378.802 124.962 378.756 124.851 378.756 124.735C378.756 124.619 378.802 124.508 378.884 124.426C378.966 124.344 379.077 124.298 379.193 124.298H381.379Z" fill="#FACC15"/>
<path d="M314.978 98.2934L313.433 96.748C313.391 96.7077 313.358 96.6595 313.335 96.6061C313.312 96.5528 313.3 96.4955 313.299 96.4374C313.299 96.3794 313.31 96.3219 313.332 96.2681C313.354 96.2144 313.386 96.1656 313.427 96.1246C313.468 96.0836 313.517 96.0511 313.571 96.0291C313.625 96.0072 313.682 95.9961 313.74 95.9966C313.798 95.9971 313.856 96.0092 313.909 96.0321C313.962 96.055 314.01 96.0883 314.051 96.13L315.596 97.675L317.141 96.13C317.181 96.0883 317.23 96.055 317.283 96.0321C317.336 96.0092 317.394 95.9971 317.452 95.9966C317.51 95.9961 317.567 96.0072 317.621 96.0291C317.675 96.0511 317.724 96.0836 317.765 96.1246C317.806 96.1656 317.838 96.2144 317.86 96.2681C317.882 96.3219 317.893 96.3794 317.893 96.4374C317.892 96.4955 317.88 96.5528 317.857 96.6061C317.834 96.6595 317.801 96.7077 317.759 96.748L316.214 98.293L317.759 99.8384C317.801 99.8787 317.834 99.9269 317.857 99.9803C317.88 100.034 317.892 100.091 317.893 100.149C317.893 100.207 317.882 100.265 317.86 100.318C317.838 100.372 317.806 100.421 317.765 100.462C317.724 100.503 317.675 100.535 317.621 100.557C317.567 100.579 317.51 100.59 317.452 100.59C317.394 100.589 317.336 100.577 317.283 100.554C317.23 100.531 317.181 100.498 317.141 100.456L315.596 98.9114L314.051 100.456C314.01 100.498 313.962 100.531 313.909 100.554C313.856 100.577 313.798 100.589 313.74 100.59C313.682 100.59 313.625 100.579 313.571 100.557C313.517 100.535 313.468 100.503 313.427 100.462C313.386 100.421 313.354 100.372 313.332 100.318C313.31 100.265 313.299 100.207 313.299 100.149C313.3 100.091 313.312 100.034 313.335 99.9803C313.358 99.9269 313.391 99.8787 313.433 99.8384L314.978 98.293V98.2934Z" fill="#FACC15"/>
<defs>
<clipPath id="clip0_141_148">
<rect width="6.11874" height="6.11874" fill="white" transform="matrix(-1 0 0 1 353.139 109.7)"/>
</clipPath>
<clipPath id="clip1_141_148">
<rect width="6.99285" height="6.99285" fill="white" transform="matrix(-1 0 0 1 439.676 460.217)"/>
</clipPath>
<clipPath id="clip2_141_148">
<rect width="8.74106" height="8.74106" fill="white" transform="matrix(-1 0 0 1 243.002 458.469)"/>
</clipPath>
<clipPath id="clip3_141_148">
<rect width="3.49642" height="3.49642" fill="white" transform="matrix(-1 0 0 1 445.814 262.669)"/>
</clipPath>
<clipPath id="clip4_141_148">
<rect width="6.11874" height="6.11874" fill="white" transform="matrix(-1 0 0 1 342.65 292.388)"/>
</clipPath>
<clipPath id="clip5_141_148">
<rect width="5.24464" height="5.24464" fill="white" transform="matrix(-1 0 0 1 294.574 58.1282)"/>
</clipPath>
</defs>
</svg>
