<svg width="35" height="36" viewBox="0 0 35 36" fill="none" xmlns="http://www.w3.org/2000/svg">
<circle cx="17.2864" cy="17.886" r="16.0833" fill="#DFEEF6" stroke="#0E67C2" stroke-width="2.14444"/>
<g clip-path="url(#clip0_2003_14469)">
<mask id="mask0_2003_14469" style="mask-type:luminance" maskUnits="userSpaceOnUse" x="6" y="7" width="23" height="22">
<path d="M6.56445 7.16382H28.0089V28.6083H6.56445V7.16382Z" fill="white"/>
</mask>
<g mask="url(#mask0_2003_14469)">
<path fill-rule="evenodd" clip-rule="evenodd" d="M6.56445 11.6314C6.56445 9.1722 8.57283 7.16382 11.032 7.16382H13.7126C16.1718 7.16382 18.1802 9.1722 18.1802 11.6314V27.7147C18.1802 28.2082 17.7802 28.6083 17.2867 28.6083H9.24501C7.76867 28.6083 6.56445 27.4041 6.56445 25.9277V11.6314ZM11.032 8.95086C9.55978 8.95086 8.35149 10.1591 8.35149 11.6314V25.9277C8.35149 26.4171 8.75561 26.8212 9.24501 26.8212H16.3932V11.6314C16.3932 10.1591 15.1849 8.95086 13.7126 8.95086H11.032Z" fill="#0E67C2"/>
<path fill-rule="evenodd" clip-rule="evenodd" d="M16.3926 18.7796C16.3926 16.3204 18.4009 14.312 20.8602 14.312H23.5407C26 14.312 28.0083 16.3204 28.0083 18.7796V25.9278C28.0083 27.4041 26.8041 28.6083 25.3278 28.6083H17.2861C16.7926 28.6083 16.3926 28.2083 16.3926 27.7148V18.7796ZM20.8602 16.099C19.3879 16.099 18.1796 17.3074 18.1796 18.7796V26.8213H25.3278C25.8171 26.8213 26.2213 26.4171 26.2213 25.9278V18.7796C26.2213 17.3074 25.013 16.099 23.5407 16.099H20.8602Z" fill="#0E67C2"/>
<path fill-rule="evenodd" clip-rule="evenodd" d="M10.1387 25.4809C10.1387 24.2726 11.1642 23.2471 12.3725 23.2471C13.5808 23.2471 14.6063 24.2726 14.6063 25.4809V27.7147C14.6063 28.2082 14.2062 28.6082 13.7127 28.6082H11.0322C10.5387 28.6082 10.1387 28.2082 10.1387 27.7147V25.4809ZM12.3725 25.0341C12.1511 25.0341 11.9257 25.2595 11.9257 25.4809V26.8211H12.8192V25.4809C12.8192 25.2595 12.5938 25.0341 12.3725 25.0341Z" fill="#0E67C2"/>
<path fill-rule="evenodd" clip-rule="evenodd" d="M10.1387 12.5249C10.1387 12.0314 10.5387 11.6313 11.0322 11.6313H13.7127C14.2062 11.6313 14.6063 12.0314 14.6063 12.5249C14.6063 13.0183 14.2062 13.4184 13.7127 13.4184H11.0322C10.5387 13.4184 10.1387 13.0183 10.1387 12.5249Z" fill="#0E67C2"/>
<path fill-rule="evenodd" clip-rule="evenodd" d="M10.1387 16.0991C10.1387 15.6056 10.5387 15.2056 11.0322 15.2056H13.7127C14.2062 15.2056 14.6063 15.6056 14.6063 16.0991C14.6063 16.5926 14.2062 16.9926 13.7127 16.9926H11.0322C10.5387 16.9926 10.1387 16.5926 10.1387 16.0991Z" fill="#0E67C2"/>
<path fill-rule="evenodd" clip-rule="evenodd" d="M10.1387 19.6731C10.1387 19.1796 10.5387 18.7795 11.0322 18.7795H13.7127C14.2062 18.7795 14.6063 19.1796 14.6063 19.6731C14.6063 20.1665 14.2062 20.5666 13.7127 20.5666H11.0322C10.5387 20.5666 10.1387 20.1665 10.1387 19.6731Z" fill="#0E67C2"/>
<path fill-rule="evenodd" clip-rule="evenodd" d="M19.9668 19.6731C19.9668 19.1796 20.3668 18.7795 20.8603 18.7795H23.5409C24.0344 18.7795 24.4344 19.1796 24.4344 19.6731C24.4344 20.1665 24.0344 20.5666 23.5409 20.5666H20.8603C20.3668 20.5666 19.9668 20.1665 19.9668 19.6731Z" fill="#0E67C2"/>
<path fill-rule="evenodd" clip-rule="evenodd" d="M19.9668 23.247C19.9668 22.7535 20.3668 22.3535 20.8603 22.3535H23.5409C24.0344 22.3535 24.4344 22.7535 24.4344 23.247C24.4344 23.7405 24.0344 24.1406 23.5409 24.1406H20.8603C20.3668 24.1406 19.9668 23.7405 19.9668 23.247Z" fill="#0E67C2"/>
</g>
</g>
<defs>
<clipPath id="clip0_2003_14469">
<rect width="21.4444" height="21.4444" fill="white" transform="translate(6.56445 7.16382)"/>
</clipPath>
</defs>
</svg>
