<svg width="80" height="80" viewBox="0 0 80 80" fill="none" xmlns="http://www.w3.org/2000/svg">
<path d="M69.2993 39.6496V13.7545C69.2993 12.2283 68.693 10.7646 67.6138 9.68545C66.5346 8.60627 65.071 8 63.5448 8H11.7545C10.2283 8 8.76462 8.60627 7.68545 9.68545C6.60627 10.7646 6 12.2283 6 13.7545L6 48.2813C6 49.8075 6.60627 51.2712 7.68545 52.3504C8.76462 53.4295 10.2283 54.0358 11.7545 54.0358H46.5691C46.8371 55.3505 47.2925 56.6198 47.9214 57.805C41.5339 64.1925 40.5269 64.6672 40.5269 66.9834C40.5269 68.128 40.9816 69.2258 41.791 70.0352C42.6003 70.8445 43.6981 71.2993 44.8427 71.2993C47.1733 71.2993 47.648 70.2778 54.0211 63.9048C57.2221 65.5551 60.9256 65.9449 64.4 64.9971C67.8744 64.0492 70.867 61.8327 72.7864 58.7855C74.7058 55.7383 75.4125 52.082 74.7669 48.5389C74.1212 44.9959 72.1702 41.8239 69.2993 39.6496ZM8.87724 19.509H66.422V23.8248H8.87724V19.509ZM11.7545 10.8772H63.5448C64.3079 10.8772 65.0397 11.1804 65.5793 11.72C66.1189 12.2595 66.422 12.9914 66.422 13.7545V16.6317H8.87724V13.7545C8.87724 12.9914 9.18038 12.2595 9.71996 11.72C10.2595 11.1804 10.9914 10.8772 11.7545 10.8772ZM11.7545 51.1586C10.9914 51.1586 10.2595 50.8554 9.71996 50.3159C9.18038 49.7763 8.87724 49.0444 8.87724 48.2813V26.7021H66.422V37.9808C64.2333 37.0256 61.8412 36.6302 59.4615 36.8304C57.0818 37.0306 54.7894 37.8201 52.791 39.1276C50.7926 40.4351 49.1512 42.2195 48.0147 44.3199C46.8783 46.4202 46.2826 48.7705 46.2813 51.1586H11.7545ZM45.8498 68.0048C45.6478 68.2028 45.392 68.3368 45.1143 68.3902C44.8365 68.4436 44.5492 68.4139 44.2883 68.3049C44.0273 68.196 43.8043 68.0125 43.647 67.7774C43.4898 67.5424 43.4053 67.2662 43.4041 66.9834C43.4041 66.149 43.4041 66.3792 49.547 60.265C50.1521 60.9996 50.8265 61.6741 51.5611 62.2791L45.8498 68.0048ZM60.6675 62.6675C58.3913 62.6675 56.1661 61.9925 54.2735 60.7279C52.3809 59.4633 50.9057 57.6659 50.0346 55.5629C49.1636 53.4599 48.9356 51.1458 49.3797 48.9133C49.8238 46.6808 50.9199 44.6301 52.5295 43.0205C54.139 41.411 56.1897 40.3148 58.4223 39.8708C60.6548 39.4267 62.9688 39.6546 65.0718 40.5257C67.1748 41.3968 68.9723 42.8719 70.2369 44.7645C71.5015 46.6572 72.1765 48.8823 72.1765 51.1586C72.1765 54.2109 70.9639 57.1383 68.8056 59.2966C66.6472 61.455 63.7199 62.6675 60.6675 62.6675Z" fill="#42387F"/>
<path d="M41.9649 31.0178H13.1925C12.811 31.0178 12.4451 31.1694 12.1753 31.4392C11.9055 31.709 11.7539 32.0749 11.7539 32.4564V38.2109C11.7539 38.5925 11.9055 38.9584 12.1753 39.2282C12.4451 39.498 12.811 39.6495 13.1925 39.6495H41.9649C42.3465 39.6495 42.7124 39.498 42.9822 39.2282C43.252 38.9584 43.4035 38.5925 43.4035 38.2109V32.4564C43.4035 32.0749 43.252 31.709 42.9822 31.4392C42.7124 31.1694 42.3465 31.0178 41.9649 31.0178ZM40.5263 36.7723H14.6311V33.8951H40.5263V36.7723Z" fill="#FBBC04"/>
<path d="M18.947 45.4041H13.1925C12.811 45.4041 12.4451 45.5556 12.1753 45.8254C11.9055 46.0952 11.7539 46.4611 11.7539 46.8427C11.7539 47.2242 11.9055 47.5901 12.1753 47.8599C12.4451 48.1297 12.811 48.2813 13.1925 48.2813H18.947C19.3285 48.2813 19.6945 48.1297 19.9643 47.8599C20.2341 47.5901 20.3856 47.2242 20.3856 46.8427C20.3856 46.4611 20.2341 46.0952 19.9643 45.8254C19.6945 45.5556 19.3285 45.4041 18.947 45.4041Z" fill="#FBBC04"/>
<path d="M30.4568 45.4041H24.7023C24.3207 45.4041 23.9548 45.5556 23.685 45.8254C23.4152 46.0952 23.2637 46.4611 23.2637 46.8427C23.2637 47.2242 23.4152 47.5901 23.685 47.8599C23.9548 48.1297 24.3207 48.2813 24.7023 48.2813H30.4568C30.8383 48.2813 31.2042 48.1297 31.474 47.8599C31.7438 47.5901 31.8954 47.2242 31.8954 46.8427C31.8954 46.4611 31.7438 46.0952 31.474 45.8254C31.2042 45.5556 30.8383 45.4041 30.4568 45.4041Z" fill="#FBBC04"/>
<path d="M41.9646 45.4041H36.2101C35.8286 45.4041 35.4626 45.5556 35.1928 45.8254C34.9231 46.0952 34.7715 46.4611 34.7715 46.8427C34.7715 47.2242 34.9231 47.5901 35.1928 47.8599C35.4626 48.1297 35.8286 48.2813 36.2101 48.2813H41.9646C42.3461 48.2813 42.712 48.1297 42.9818 47.8599C43.2516 47.5901 43.4032 47.2242 43.4032 46.8427C43.4032 46.4611 43.2516 46.0952 42.9818 45.8254C42.712 45.5556 42.3461 45.4041 41.9646 45.4041Z" fill="#FBBC04"/>
</svg>
