<svg width="100" height="80" viewBox="0 0 100 80" fill="none" xmlns="http://www.w3.org/2000/svg">
<path d="M82.8125 43.1099C74.2031 43.1099 67.1875 50.0913 67.1875 58.6586C67.1875 67.226 74.2031 74.2074 82.8125 74.2074C91.4219 74.2074 98.4375 67.226 98.4375 58.6586C98.4375 50.0913 91.4219 43.1099 82.8125 43.1099ZM82.8125 71.0977C75.9219 71.0977 70.3125 65.5157 70.3125 58.6586C70.3125 51.8016 75.9219 46.2196 82.8125 46.2196C89.7031 46.2196 95.3125 51.8016 95.3125 58.6586C95.3125 65.5157 89.7031 71.0977 82.8125 71.0977Z" fill="#42387F"/>
<path d="M82.8125 53.994C83.6719 53.994 84.375 54.6937 84.375 55.5489H87.5C87.5 53.5275 86.1875 51.8172 84.375 51.1641V49.3293H81.25V51.1641C79.4375 51.8016 78.125 53.512 78.125 55.5489C78.125 58.1144 80.2344 60.2135 82.8125 60.2135C83.6719 60.2135 84.375 60.9132 84.375 61.7684C84.375 62.6236 83.6719 63.3232 82.8125 63.3232C81.9531 63.3232 81.25 62.6236 81.25 61.7684H78.125C78.125 63.7897 79.4375 65.5001 81.25 66.1531V67.9879H84.375V66.1531C86.1875 65.5156 87.5 63.8053 87.5 61.7684C87.5 59.2028 85.3906 57.1037 82.8125 57.1037C81.9531 57.1037 81.25 56.404 81.25 55.5489C81.25 54.6937 81.9531 53.994 82.8125 53.994Z" fill="#FBBC04"/>
<path d="M70.3115 21.3415C71.0146 21.3415 71.624 20.875 71.8115 20.2064C71.999 19.5378 71.7177 18.8226 71.124 18.465L50.8115 6.02596C50.3115 5.71498 49.6708 5.71498 49.1708 6.02596L28.8583 18.465C28.2646 18.8226 27.9833 19.5378 28.1708 20.2064C28.3583 20.875 28.9677 21.3415 29.6708 21.3415H34.3583V32.2257H32.7958V35.3354H67.1708V32.2257H65.6083V21.3415H70.2958H70.3115ZM48.4365 32.2257H37.499V21.3415H48.4365V32.2257ZM62.499 32.2257H51.5615V21.3415H62.499V32.2257ZM35.2021 18.2317L49.999 9.16681L64.7958 18.2317H35.2021Z" fill="#42387F"/>
<path d="M26.5625 36.8901H73.4375V39.9999H26.5625V36.8901Z" fill="#42387F"/>
<path d="M17.1875 43.1099C8.57812 43.1099 1.5625 50.0913 1.5625 58.6586C1.5625 67.226 8.57812 74.2074 17.1875 74.2074C25.7969 74.2074 32.8125 67.226 32.8125 58.6586C32.8125 50.0913 25.7969 43.1099 17.1875 43.1099ZM17.1875 71.0977C10.2969 71.0977 4.6875 65.5157 4.6875 58.6586C4.6875 51.8016 10.2969 46.2196 17.1875 46.2196C24.0781 46.2196 29.6875 51.8016 29.6875 58.6586C29.6875 65.5157 24.0781 71.0977 17.1875 71.0977Z" fill="#42387F"/>
<path d="M12.6563 57.1035H10.9375V60.2133H12.6563C13.375 63.7584 16.5312 66.4328 20.3125 66.4328V63.3231C18.2812 63.3231 16.5625 62.017 15.9063 60.2133H20.3125V57.1035H15.9063C16.5469 55.2999 18.2656 53.9938 20.3125 53.9938V50.884C16.5469 50.884 13.3906 53.5584 12.6563 57.1035Z" fill="#FBBC04"/>
<path d="M50 43.1099C41.3906 43.1099 34.375 50.0913 34.375 58.6586C34.375 67.226 41.3906 74.2074 50 74.2074C58.6094 74.2074 65.625 67.226 65.625 58.6586C65.625 50.0913 58.6094 43.1099 50 43.1099ZM50 71.0977C43.1094 71.0977 37.5 65.5157 37.5 58.6586C37.5 51.8016 43.1094 46.2196 50 46.2196C56.8906 46.2196 62.5 51.8016 62.5 58.6586C62.5 65.5157 56.8906 71.0977 50 71.0977Z" fill="#42387F"/>
<path d="M15.625 35.5376L13.3594 34.0449L11.625 36.626L16.3125 39.7358C16.5781 39.9068 16.875 40.0001 17.1719 40.0001C17.4687 40.0001 17.7812 39.9068 18.0312 39.7358L22.7188 36.626L20.9844 34.0449L18.7187 35.5376V29.116H15.5937V35.5376H15.625Z" fill="#FBBC04"/>
<path d="M15.625 22.8962H18.75V26.006H15.625V22.8962Z" fill="#42387F"/>
<path d="M15.625 16.6768H18.75V19.7865H15.625V16.6768Z" fill="#42387F"/>
<path d="M82.8125 40.0001C83.1094 40.0001 83.4219 39.9068 83.6719 39.7358L88.3594 36.626L86.625 34.0449L84.3594 35.5376V29.116H81.2344V35.5376L78.9688 34.0449L77.2344 36.626L81.9219 39.7358C82.1875 39.9068 82.4844 40.0001 82.7812 40.0001H82.8125Z" fill="#FBBC04"/>
<path d="M81.25 22.8962H84.375V26.006H81.25V22.8962Z" fill="#42387F"/>
<path d="M81.25 16.6768H84.375V19.7865H81.25V16.6768Z" fill="#42387F"/>
<path d="M43.3594 63.0464L54.4063 52.0534L56.6156 54.252L45.5687 65.245L43.3594 63.0464Z" fill="#FBBC04"/>
<path d="M46.6621 53.1592L48.8718 50.9602L51.0815 53.1592L48.8718 55.3581L46.6621 53.1592Z" fill="#FBBC04"/>
<path d="M48.8945 64.1548L51.1042 61.9559L53.3139 64.1548L51.1042 66.3537L48.8945 64.1548Z" fill="#FBBC04"/>
</svg>
