<svg width="80" height="80" viewBox="0 0 80 80" fill="none" xmlns="http://www.w3.org/2000/svg">
<path d="M36.25 55H7.5C6.125 55 5 53.875 5 52.5V10C5 8.625 6.125 7.5 7.5 7.5H68.75C70.125 7.5 71.25 8.625 71.25 10V38.45C71.25 39.1375 71.8125 39.7 72.5 39.7C73.1875 39.7 73.75 39.1375 73.75 38.45V10C73.75 7.2375 71.5125 5 68.75 5H7.5C4.7375 5 2.5 7.2375 2.5 10V52.5C2.5 55.2625 4.7375 57.5 7.5 57.5H36.25C36.9375 57.5 37.5 56.9375 37.5 56.25C37.5 55.5625 36.9375 55 36.25 55Z" fill="#42387F"/>
<path d="M77.5 56.25C77.5 45.9125 69.0875 37.5 58.75 37.5C48.4125 37.5 40 45.9125 40 56.25C40 66.5875 48.4125 75 58.75 75C63.75 75 68.45 73.05 72.0125 69.5125C75.55 65.9625 77.5 61.25 77.5 56.25ZM71.0875 66.825L67.5375 63.275C68.875 61.6 69.7 59.6125 69.925 57.5H74.95C74.6875 60.95 73.35 64.1875 71.0875 66.825ZM58.75 47.5C63.575 47.5 67.5 51.425 67.5 56.25C67.5 58.575 66.5875 60.775 64.9375 62.4375C63.275 64.0875 61.075 65 58.75 65C53.925 65 50 61.075 50 56.25C50 51.425 53.925 47.5 58.75 47.5ZM74.95 55H69.925C69.35 49.7875 65.2 45.65 60 45.075V40.05C67.9625 40.6625 74.3375 47.0375 74.95 55ZM58.75 72.5C49.7875 72.5 42.5 65.2125 42.5 56.25C42.5 47.2875 49.125 40.6875 57.5 40.05V45.075C51.8875 45.7 47.5 50.475 47.5 56.25C47.5 62.45 52.55 67.5 58.75 67.5C61.325 67.5 63.775 66.6375 65.775 65.0375L69.325 68.5875C66.375 71.1125 62.6625 72.5 58.75 72.5Z" fill="#FBBC04"/>
<path d="M41.25 25C41.25 24.3375 41.0625 23.7125 40.75 23.175L44.8625 18.475C45.2875 18.65 45.75 18.75 46.2375 18.75C46.725 18.75 47.1875 18.65 47.6125 18.475L51.725 23.175C51.425 23.7125 51.225 24.3375 51.225 25C51.225 27.0625 52.9125 28.75 54.975 28.75C57.0375 28.75 58.725 27.0625 58.725 25C58.725 24.3375 58.5375 23.7125 58.225 23.175L62.3375 18.475C62.7625 18.65 63.225 18.75 63.7125 18.75C65.775 18.75 67.4625 17.0625 67.4625 15C67.4625 12.9375 65.775 11.25 63.7125 11.25C61.65 11.25 59.9625 12.9375 59.9625 15C59.9625 15.6625 60.15 16.2875 60.4625 16.825L56.35 21.525C55.925 21.35 55.4625 21.25 54.975 21.25C54.4875 21.25 54.025 21.35 53.6 21.525L49.4875 16.825C49.7875 16.2875 49.9875 15.6625 49.9875 15C49.9875 12.9375 48.3 11.25 46.2375 11.25C44.175 11.25 42.4875 12.9375 42.4875 15C42.4875 15.6625 42.675 16.2875 42.9875 16.825L38.875 21.525C38.45 21.35 37.9875 21.25 37.5 21.25C35.4375 21.25 33.75 22.9375 33.75 25C33.75 27.0625 35.4375 28.75 37.5 28.75C39.5625 28.75 41.25 27.0625 41.25 25ZM63.75 13.75C64.4375 13.75 65 14.3125 65 15C65 15.6875 64.4375 16.25 63.75 16.25C63.0625 16.25 62.5 15.6875 62.5 15C62.5 14.3125 63.0625 13.75 63.75 13.75ZM56.25 25C56.25 25.6875 55.6875 26.25 55 26.25C54.3125 26.25 53.75 25.6875 53.75 25C53.75 24.3125 54.3125 23.75 55 23.75C55.6875 23.75 56.25 24.3125 56.25 25ZM46.25 13.75C46.9375 13.75 47.5 14.3125 47.5 15C47.5 15.6875 46.9375 16.25 46.25 16.25C45.5625 16.25 45 15.6875 45 15C45 14.3125 45.5625 13.75 46.25 13.75ZM37.5 26.25C36.8125 26.25 36.25 25.6875 36.25 25C36.25 24.3125 36.8125 23.75 37.5 23.75C38.1875 23.75 38.75 24.3125 38.75 25C38.75 25.6875 38.1875 26.25 37.5 26.25Z" fill="#FBBC04"/>
<path d="M8.75 50C8.75 50.6875 9.3125 51.25 10 51.25H15C15.6875 51.25 16.25 50.6875 16.25 50V36.25C16.25 35.5625 15.6875 35 15 35H10C9.3125 35 8.75 35.5625 8.75 36.25V50ZM11.25 37.5H13.75V48.75H11.25V37.5Z" fill="#42387F"/>
<path d="M20 30C19.3125 30 18.75 30.5625 18.75 31.25V50C18.75 50.6875 19.3125 51.25 20 51.25H25C25.6875 51.25 26.25 50.6875 26.25 50V31.25C26.25 30.5625 25.6875 30 25 30H20ZM23.75 48.75H21.25V32.5H23.75V48.75Z" fill="#42387F"/>
<path d="M30 51.25H35C35.6875 51.25 36.25 50.6875 36.25 50V40C36.25 39.3125 35.6875 38.75 35 38.75H30C29.3125 38.75 28.75 39.3125 28.75 40V50C28.75 50.6875 29.3125 51.25 30 51.25ZM31.25 41.25H33.75V48.75H31.25V41.25Z" fill="#42387F"/>
<path d="M10 13.75H12.5C13.1875 13.75 13.75 13.1875 13.75 12.5C13.75 11.8125 13.1875 11.25 12.5 11.25H10C9.3125 11.25 8.75 11.8125 8.75 12.5C8.75 13.1875 9.3125 13.75 10 13.75Z" fill="#42387F"/>
<path d="M17.5 13.75H27.5C28.1875 13.75 28.75 13.1875 28.75 12.5C28.75 11.8125 28.1875 11.25 27.5 11.25H17.5C16.8125 11.25 16.25 11.8125 16.25 12.5C16.25 13.1875 16.8125 13.75 17.5 13.75Z" fill="#42387F"/>
<path d="M10 20H12.5C13.1875 20 13.75 19.4375 13.75 18.75C13.75 18.0625 13.1875 17.5 12.5 17.5H10C9.3125 17.5 8.75 18.0625 8.75 18.75C8.75 19.4375 9.3125 20 10 20Z" fill="#42387F"/>
<path d="M17.5 20H27.5C28.1875 20 28.75 19.4375 28.75 18.75C28.75 18.0625 28.1875 17.5 27.5 17.5H17.5C16.8125 17.5 16.25 18.0625 16.25 18.75C16.25 19.4375 16.8125 20 17.5 20Z" fill="#42387F"/>
<path d="M10 26.25H12.5C13.1875 26.25 13.75 25.6875 13.75 25C13.75 24.3125 13.1875 23.75 12.5 23.75H10C9.3125 23.75 8.75 24.3125 8.75 25C8.75 25.6875 9.3125 26.25 10 26.25Z" fill="#42387F"/>
<path d="M28.75 25C28.75 24.3125 28.1875 23.75 27.5 23.75H17.5C16.8125 23.75 16.25 24.3125 16.25 25C16.25 25.6875 16.8125 26.25 17.5 26.25H27.5C28.1875 26.25 28.75 25.6875 28.75 25Z" fill="#42387F"/>
</svg>
