<svg width="64" height="65" viewBox="0 0 64 65" fill="none" xmlns="http://www.w3.org/2000/svg">
<circle cx="32" cy="32.5" r="30" fill="#E1DFF6" stroke="#42387F" stroke-width="4"/>
<g clip-path="url(#clip0_2003_14808)">
<path d="M18.5082 15C17.2695 15 16.2546 16.016 16.2546 17.2546V26.6385C15.464 26.9032 14.8941 27.4135 14.5447 27.9876C14.1351 28.6605 14 29.3999 14 30.0178V34.812C14 35.8095 14.4525 37.0353 14.877 38.2265C15.0893 38.822 15.2987 39.3995 15.4514 39.8814C15.6041 40.3634 15.688 40.7716 15.688 40.9124V43.0417C15.3444 43.3516 15.1268 43.7991 15.1268 44.2939V49.3632C15.1268 50.2898 15.8893 51.0567 16.8158 51.0567H24.7054C25.632 51.0567 26.3934 50.2898 26.3934 49.3632V44.2939C26.3934 43.6258 25.9967 43.0439 25.4284 42.771C25.5244 42.3857 25.7209 41.8565 25.94 41.2415C26.199 40.5149 26.4708 39.6517 26.5518 38.6633H37.035L39.6715 43.9395C39.1477 44.2275 38.7901 44.7853 38.7901 45.4206V49.3632C38.7901 50.2898 39.5515 51.0567 40.478 51.0567H48.3632C49.2898 51.0567 50.0567 50.2898 50.0567 49.3632V45.4206C50.0567 44.7199 49.618 44.1132 49.0036 43.8592C49.0933 43.5527 49.2559 43.1885 49.4449 42.7633C49.7329 42.1153 50.0567 41.3215 50.0567 40.3513C50.0567 32.6524 50.0567 24.9535 50.0567 17.2546C50.0567 16.016 49.0407 15 47.8021 15L18.5082 15ZM18.5082 16.1268H47.8021C48.436 16.1268 48.9288 16.6207 48.9288 17.2546V33.6886C48.7514 33.6247 48.561 33.5851 48.3632 33.5895C48.069 33.5959 47.9872 33.6312 47.8021 33.6919V18.9426C47.8021 18.016 47.0407 17.2546 46.1141 17.2546H20.1961C19.2696 17.2546 18.5082 18.016 18.5082 18.9426V28.7281C18.4737 28.7132 18.4395 28.6971 18.4048 28.683C18.0749 28.5491 17.7183 28.4964 17.3814 28.562V17.2546C17.3814 16.6207 17.8742 16.1269 18.5082 16.1268ZM19.635 29.7526V18.9426C19.635 18.6208 19.8743 18.3814 20.1961 18.3814H46.1141C46.4359 18.3814 46.6753 18.6208 46.6753 18.9426V33.1296C46.5002 33.0619 46.3259 33.0283 46.1141 33.0283C45.6502 33.0283 45.3808 33.1922 45.2789 33.2451C45.1441 33.0094 44.694 32.4806 43.8594 32.4628C43.5557 32.4798 43.5034 32.4981 43.2939 32.5607V30.2136H44.9785C45.2901 30.2124 45.5415 29.9585 45.5397 29.6469C45.5385 29.3375 45.288 29.0869 44.9785 29.0857H43.2939C43.2939 28.1592 42.5325 27.3934 41.6059 27.3934C40.6793 27.3934 39.9124 28.1592 39.9124 29.0857H34.8431C34.5337 29.0869 34.2831 29.3375 34.2819 29.6469C34.28 29.9585 34.5315 30.2124 34.8431 30.2136H39.9124V35.4315L39.2478 34.2806C38.7065 33.3431 37.4939 33.0152 36.5563 33.5565C35.9168 33.9257 35.5889 34.5966 35.5924 35.2819H21.0709C20.8113 34.9973 20.5763 34.7663 20.4217 34.5788C20.246 34.3655 20.1961 34.2506 20.1961 34.1562V31.7303C20.1721 30.9283 19.9591 30.266 19.635 29.7526ZM41.6059 19.5082C40.6793 19.5082 39.9124 20.2696 39.9124 21.1961H34.8431C34.5315 21.1974 34.2801 21.4512 34.2819 21.7628C34.2831 22.0722 34.5337 22.3228 34.8431 22.324H39.9124C39.9124 23.2506 40.6793 24.012 41.6059 24.012C42.5325 24.012 43.2939 23.2506 43.2939 22.324H44.9862C45.2956 22.3228 45.5462 22.0722 45.5474 21.7628C45.5493 21.4512 45.2978 21.1974 44.9862 21.1961H43.2939C43.2939 20.2696 42.5325 19.5082 41.6059 19.5082ZM41.6059 20.635C41.9278 20.635 42.1671 20.8743 42.1671 21.1961V22.324C42.1671 22.6459 41.9278 22.8896 41.6059 22.8896C41.2841 22.8896 41.0392 22.6459 41.0392 22.324V21.1961C41.0392 20.8743 41.2841 20.635 41.6059 20.635ZM26.959 21.1961C23.5431 21.1961 20.7628 23.9775 20.7628 27.3934V29.6469C20.761 29.9585 21.0125 30.2124 21.324 30.2136H32.5884C32.9021 30.2154 33.1569 29.9606 33.1551 29.6469V27.3934C33.1551 23.9775 30.3748 21.1961 26.959 21.1961ZM26.3934 22.3548V22.8896C26.3946 23.2007 26.6478 23.452 26.959 23.4508C27.2684 23.4495 27.519 23.199 27.5202 22.8896V22.3548C28.5004 22.4621 29.3953 22.8462 30.1247 23.4288L29.7451 23.8084C29.5237 24.0287 29.5237 24.387 29.7451 24.6073C29.9653 24.8287 30.3237 24.8287 30.544 24.6073L30.9236 24.2276C31.5062 24.957 31.8892 25.8519 31.9964 26.8322H31.4672C31.156 26.831 30.9028 27.0822 30.9016 27.3934C30.9003 27.7063 31.1543 27.9602 31.4672 27.959H32.0272V29.0857H29.2136C29.2136 28.5248 29.0045 28.0094 28.6612 27.6135L29.6086 26.666C29.8271 26.4463 29.8271 26.0913 29.6086 25.8716C29.5041 25.7664 29.362 25.7065 29.2136 25.7054C29.0637 25.7055 28.9199 25.7653 28.8142 25.8716L27.716 26.9642C27.4791 26.8789 27.224 26.8322 26.959 26.8322C25.7211 26.8322 24.7054 27.8479 24.7054 29.0857H21.8896V27.959H22.4508C22.7619 27.9577 23.0132 27.7045 23.012 27.3934C23.0108 27.084 22.7602 26.8334 22.4508 26.8322H21.9204C22.0277 25.8519 22.4118 24.957 22.9944 24.2276L23.374 24.6073C23.5937 24.8258 23.9487 24.8258 24.1685 24.6073C24.3899 24.387 24.3899 24.0287 24.1685 23.8084L23.791 23.431C24.5198 22.8482 25.4138 22.4628 26.3934 22.3548ZM37.0966 23.4508C36.1701 23.4508 35.4087 24.2122 35.4087 25.1387H34.8431C34.5315 25.14 34.2801 25.3938 34.2819 25.7054C34.2831 26.0148 34.5337 26.2654 34.8431 26.2666H35.4087C35.4087 27.1932 36.1701 27.959 37.0966 27.959C38.0232 27.959 38.7901 27.1932 38.7901 26.2666H44.9862C45.2956 26.2654 45.5462 26.0148 45.5474 25.7054C45.5493 25.3938 45.2978 25.14 44.9862 25.1387H38.7901C38.7901 24.2122 38.0232 23.4508 37.0966 23.4508ZM37.0966 24.5776C37.4185 24.5776 37.6633 24.8169 37.6633 25.1387V26.2666C37.6633 26.5885 37.4185 26.8322 37.0966 26.8322C36.7748 26.8322 36.5354 26.5885 36.5354 26.2666V25.1387C36.5354 24.8169 36.7748 24.5776 37.0966 24.5776ZM16.2546 27.8522V34.1584C16.2552 34.4683 16.506 34.7195 16.8158 34.7207C17.1274 34.7219 17.3808 34.47 17.3814 34.1584V30.0464C17.3814 29.7756 17.4426 29.7369 17.5146 29.6975C17.5865 29.6582 17.7536 29.6342 17.98 29.7262C18.4328 29.9101 19.0322 30.5275 19.0694 31.7552V34.1551C19.0694 34.6241 19.3066 35.0002 19.5524 35.2984C19.7982 35.5966 20.0772 35.857 20.3381 36.1512C20.8598 36.7396 21.3212 37.4078 21.324 38.6633C21.3253 38.9744 21.5785 39.2257 21.8896 39.2245C22.199 39.2233 22.4496 38.9727 22.4508 38.6633H25.4207C25.3432 39.4649 25.1179 40.1933 24.8793 40.8629C24.656 41.4895 24.5057 42.0396 24.3973 42.6059H16.8158V40.9124C16.8158 40.4899 16.693 40.0589 16.5286 39.5403C16.3645 39.0217 16.148 38.4424 15.9377 37.8523C15.5172 36.6723 15.1268 35.4121 15.1268 34.812V30.0178C15.1268 29.5732 15.2343 29.0161 15.5053 28.5708C15.6812 28.2817 15.9147 28.0321 16.2546 27.8522ZM26.959 27.959C27.5879 27.959 28.0857 28.4568 28.0857 29.0857H25.8322C25.8322 28.4568 26.33 27.959 26.959 27.959ZM42.1671 29.0857V36.4087C42.1841 37.1433 43.2776 37.1433 43.2939 36.4087V34.1551C43.2939 33.8333 43.5376 33.5884 43.8594 33.5884C44.1813 33.5884 44.4206 33.8333 44.4206 34.1551V36.4087C44.4377 37.1433 45.5311 37.1433 45.5474 36.4087V34.7163C45.5474 34.3944 45.7922 34.1551 46.1141 34.1551C46.4359 34.1551 46.6753 34.3944 46.6753 34.7163V36.4087C46.6923 37.1433 47.7857 37.1433 47.8021 36.4087V35.2819C47.8021 34.96 48.0414 34.7163 48.3632 34.7163C48.6851 34.7163 48.9288 34.96 48.9288 35.2819V40.3513C48.9288 41.0711 48.6892 41.6859 48.4139 42.3055C48.2101 42.764 47.9731 43.2217 47.8637 43.7327H40.8268L36.827 35.7187C36.595 35.2539 36.7042 34.7711 37.1175 34.5325C37.5314 34.2936 38.0351 34.4269 38.274 34.8406L39.9917 37.8138C40.2818 38.3014 41.0294 38.1027 41.0392 37.5354C41.0392 34.72 41.0392 31.8983 41.0392 29.0857C41.0392 28.7639 41.2841 28.5202 41.6059 28.5202C41.9278 28.5201 42.1671 28.7639 42.1671 29.0857ZM21.894 36.4087H35.9093L36.4716 37.5354H22.322C22.2218 37.1092 22.0713 36.7358 21.894 36.4087ZM16.8158 43.7327H24.7054C25.0273 43.7327 25.2666 43.972 25.2666 44.2939V49.3632C25.2666 49.6851 25.0273 49.9288 24.7054 49.9288H16.8158C16.494 49.9288 16.2546 49.6851 16.2546 49.3632V44.2939C16.2546 43.972 16.494 43.7327 16.8158 43.7327ZM40.478 44.8594H48.3632C48.6851 44.8594 48.9288 45.0988 48.9288 45.4206V49.3632C48.9288 49.6851 48.6851 49.9288 48.3632 49.9288H40.478C40.1562 49.9288 39.9124 49.6851 39.9124 49.3632V45.4206C39.9124 45.0988 40.1562 44.8594 40.478 44.8594Z" fill="#42387F"/>
</g>
<defs>
<clipPath id="clip0_2003_14808">
<rect width="36" height="36" fill="white" transform="translate(14 15)"/>
</clipPath>
</defs>
</svg>
