<svg width="80" height="51" viewBox="0 0 80 51" fill="none" xmlns="http://www.w3.org/2000/svg">
<path d="M41.2885 43.9655C39.8419 43.9655 38.4545 43.3591 37.4316 42.2797C36.4087 41.2004 35.834 39.7364 35.834 38.21C35.834 36.6835 36.4087 35.2196 37.4316 34.1402C38.4545 33.0609 39.8419 32.4545 41.2885 32.4545C44.301 32.4545 55.834 38.21 55.834 38.21C55.834 38.21 44.301 43.9655 41.2885 43.9655Z" fill="#42387F"/>
<path d="M15.9062 15.6877L16.2301 15.3777C22.2955 9.60116 30.0651 6.21152 38.2255 5.78171L38.6633 5.75851V21.4152L38.2808 21.4479C34.0147 21.8162 29.9657 23.5886 26.7053 26.5151L26.4124 26.7761L15.9062 15.6877Z" fill="#DCDCDC"/>
<path d="M53.2939 26.5159C50.0339 23.5887 45.9848 21.8159 41.7184 21.4479L41.3359 21.4152V5.75851L41.7738 5.78171C49.9342 6.21212 57.7037 9.602 63.7692 15.3785L64.0931 15.6894L53.5853 26.7769L53.2939 26.5159Z" fill="#DCDCDC"/>
<path d="M6.76115 43.5465C6.46342 43.5458 6.1689 43.4816 5.89533 43.3576C5.62176 43.2336 5.37481 43.0525 5.16935 42.8251C4.97075 42.6077 4.81657 42.3496 4.71636 42.0667C4.61615 41.7839 4.57203 41.4823 4.58675 41.1807C5.01707 32.582 8.24226 24.4023 13.7193 18.019L14.0138 17.6764L24.5249 28.7656L24.2759 29.0748C21.458 32.5619 19.7665 36.9058 19.4468 41.4761C19.4003 42.0437 19.1529 42.572 18.7538 42.9557C18.3547 43.3394 17.8333 43.5503 17.2934 43.5465H6.76115Z" fill="#DCDCDC"/>
<path d="M62.7064 43.5464C62.1664 43.5502 61.6449 43.3392 61.2458 42.9553C60.8467 42.5715 60.5993 42.043 60.5531 41.4753C60.2326 36.906 58.5418 32.5631 55.7256 29.0756L55.4766 28.7665L65.986 17.6764L66.2806 18.019C71.7577 24.4023 74.9834 32.5819 75.4147 41.1807C75.4289 41.4826 75.3842 41.7845 75.2835 42.0674C75.1827 42.3504 75.0279 42.6086 74.8288 42.826C74.6235 43.053 74.3768 43.2339 74.1035 43.3577C73.8302 43.4815 73.536 43.5457 73.2386 43.5464H62.7064Z" fill="#FBBC04"/>
</svg>
