<svg width="80" height="51" viewBox="0 0 80 51" fill="none" xmlns="http://www.w3.org/2000/svg">
<path d="M33.4089 39.2073C32.6855 40.4601 32.517 41.9648 32.9403 43.3904C33.3636 44.8159 34.344 46.0456 35.666 46.8088C36.9879 47.572 38.5431 47.8063 39.9893 47.4601C41.4355 47.1139 42.6543 46.2156 43.3777 44.9628C44.8839 42.3539 45.666 29.4883 45.666 29.4883C45.666 29.4883 34.9151 36.5984 33.4089 39.2073Z" fill="#42387F"/>
<path d="M64.7578 14.9292L64.4339 14.6192C58.3686 8.84265 50.599 5.45301 42.4386 5.0232L42.0007 5V20.6567L42.3832 20.6893C46.6494 21.0577 50.6983 22.8301 53.9587 25.7565L54.2517 26.0176L64.7578 14.9292Z" fill="#FCC93A"/>
<path d="M26.7061 26.5159C29.9661 23.5887 34.0152 21.8159 38.2816 21.4479L38.6641 21.4152V5.75851L38.2262 5.78171C30.0658 6.21212 22.2963 9.602 16.2308 15.3785L15.9069 15.6894L26.4147 26.7769L26.7061 26.5159Z" fill="#DCDCDC"/>
<path d="M73.2388 43.5465C73.5366 43.5458 73.8311 43.4816 74.1047 43.3576C74.3782 43.2336 74.6252 43.0525 74.8306 42.8251C75.0292 42.6077 75.1834 42.3496 75.2836 42.0667C75.3839 41.7839 75.428 41.4823 75.4132 41.1807C74.9829 32.582 71.7577 24.4023 66.2807 18.019L65.9862 17.6764L55.4751 28.7656L55.7241 29.0748C58.542 32.5619 60.2335 36.9058 60.5532 41.4761C60.5997 42.0437 60.8471 42.572 61.2462 42.9557C61.6453 43.3394 62.1667 43.5503 62.7066 43.5465H73.2388Z" fill="#DCDCDC"/>
<path d="M17.2936 43.5464C17.8336 43.5502 18.3551 43.3392 18.7542 42.9553C19.1533 42.5715 19.4007 42.043 19.4469 41.4753C19.7674 36.906 21.4582 32.5631 24.2744 29.0756L24.5234 28.7665L14.014 17.6764L13.7194 18.019C8.24233 24.4023 5.01663 32.5819 4.58527 41.1807C4.57107 41.4826 4.61575 41.7845 4.71654 42.0674C4.81732 42.3504 4.97206 42.6086 5.1712 42.826C5.37649 43.053 5.62321 43.2339 5.89649 43.3577C6.16977 43.4815 6.46396 43.5457 6.76137 43.5464H17.2936Z" fill="#DCDCDC"/>
</svg>
