<svg width="80" height="51" viewBox="0 0 80 51" fill="none" xmlns="http://www.w3.org/2000/svg">
<path d="M38.3961 45.1226C39.1981 46.3266 40.472 47.145 41.9374 47.3978C43.4028 47.6507 44.9398 47.3173 46.2101 46.471C47.4805 45.6247 48.3802 44.3348 48.7113 42.885C49.0424 41.4353 48.7779 39.9445 47.9758 38.7405C46.3056 36.2335 35.1214 29.8265 35.1214 29.8265C35.1214 29.8265 36.7258 42.6156 38.3961 45.1226Z" fill="#42387F"/>
<path d="M64.0938 15.6877L63.7699 15.3777C57.7045 9.60116 49.9349 6.21152 41.7745 5.78171L41.3367 5.75851V21.4152L41.7192 21.4479C45.9853 21.8162 50.0343 23.5886 53.2947 26.5151L53.5876 26.7761L64.0938 15.6877Z" fill="#DCDCDC"/>
<path d="M26.7061 26.5159C29.9661 23.5887 34.0152 21.8159 38.2816 21.4479L38.6641 21.4152V5.75851L38.2262 5.78171C30.0658 6.21212 22.2963 9.602 16.2308 15.3785L15.9069 15.6894L26.4147 26.7769L26.7061 26.5159Z" fill="#FBD771"/>
<path d="M73.2388 43.5465C73.5366 43.5458 73.8311 43.4816 74.1047 43.3576C74.3782 43.2336 74.6252 43.0525 74.8306 42.8251C75.0292 42.6077 75.1834 42.3496 75.2836 42.0667C75.3839 41.7839 75.428 41.4823 75.4132 41.1807C74.9829 32.582 71.7577 24.4023 66.2807 18.019L65.9862 17.6764L55.4751 28.7656L55.7241 29.0748C58.542 32.5619 60.2335 36.9058 60.5532 41.4761C60.5997 42.0437 60.8471 42.572 61.2462 42.9557C61.6453 43.3394 62.1667 43.5503 62.7066 43.5465H73.2388Z" fill="#DCDCDC"/>
<path d="M17.2936 43.5464C17.8336 43.5502 18.3551 43.3392 18.7542 42.9553C19.1533 42.5715 19.4007 42.043 19.4469 41.4753C19.7674 36.906 21.4582 32.5631 24.2744 29.0756L24.5234 28.7665L14.014 17.6764L13.7194 18.019C8.24233 24.4023 5.01663 32.5819 4.58527 41.1807C4.57107 41.4826 4.61575 41.7845 4.71654 42.0674C4.81732 42.3504 4.97206 42.6086 5.1712 42.826C5.37649 43.053 5.62321 43.2339 5.89649 43.3577C6.16977 43.4815 6.46396 43.5457 6.76137 43.5464H17.2936Z" fill="#DCDCDC"/>
</svg>
