<svg width="44" height="44" viewBox="0 0 44 44" fill="none" xmlns="http://www.w3.org/2000/svg">
<path d="M24.0916 34.3496C23.9697 35.6613 23.5643 36.9309 22.9033 38.0705C22.2424 39.21 21.3417 40.1924 20.2637 40.9495H36.4995C38.3248 40.9472 40.0855 40.2731 41.4457 39.0559C42.8059 37.8387 43.6706 36.1635 43.8749 34.3496H24.0916Z" fill="#FBBC04"/>
<path d="M1.00066 7.21417V19.4998H5.95061V7.12491C5.94929 6.73031 5.85401 6.3417 5.67266 5.99125C5.4913 5.6408 5.2291 5.33857 4.90773 5.10959C4.58637 4.88061 4.21509 4.73146 3.82463 4.67448C3.43417 4.6175 3.03575 4.65433 2.66236 4.78193C2.16588 4.96275 1.73856 5.29463 1.4405 5.73091C1.14243 6.16719 0.988608 6.68593 1.00066 7.21417Z" fill="#42387F"/>
<path d="M23.2744 32.6997H35.6493V7.12496C35.6493 6.58326 35.5426 6.04687 35.3353 5.54641C35.128 5.04594 34.8242 4.59121 34.4411 4.20817C34.0581 3.82513 33.6034 3.52129 33.1029 3.31399C32.6024 3.10669 32.066 3 31.5243 3H3.47461C4.5685 3.00039 5.61747 3.43511 6.39096 4.20861C7.16446 4.9821 7.59918 6.03107 7.59957 7.12496V33.3085C7.57377 35.0456 8.1471 36.7387 9.22307 38.1027C10.2991 39.4668 11.812 40.4186 13.5074 40.7981C14.5887 41.0211 15.7061 41.0007 16.7786 40.7383C17.851 40.4759 18.8516 39.978 19.7077 39.2809C20.5638 38.5837 21.254 37.7047 21.7283 36.7077C22.2025 35.7106 22.4488 34.6205 22.4494 33.5165C22.4507 33.2988 22.5382 33.0905 22.6929 32.9374C22.8476 32.7842 23.0568 32.6988 23.2744 32.6997ZM20.8242 7.94995H31.5491C31.7679 7.94995 31.9777 8.03687 32.1324 8.19159C32.2872 8.3463 32.3741 8.55614 32.3741 8.77494C32.3741 8.99374 32.2872 9.20359 32.1324 9.3583C31.9777 9.51302 31.7679 9.59994 31.5491 9.59994H20.8242C20.6054 9.59994 20.3955 9.51302 20.2408 9.3583C20.0861 9.20359 19.9992 8.99374 19.9992 8.77494C19.9992 8.55614 20.0861 8.3463 20.2408 8.19159C20.3955 8.03687 20.6054 7.94995 20.8242 7.94995ZM20.8242 12.8999H31.5491C31.7679 12.8999 31.9777 12.9868 32.1324 13.1415C32.2872 13.2963 32.3741 13.5061 32.3741 13.7249C32.3741 13.9437 32.2872 14.1535 32.1324 14.3083C31.9777 14.463 31.7679 14.5499 31.5491 14.5499H20.8242C20.6054 14.5499 20.3955 14.463 20.2408 14.3083C20.0861 14.1535 19.9992 13.9437 19.9992 13.7249C19.9992 13.5061 20.0861 13.2963 20.2408 13.1415C20.3955 12.9868 20.6054 12.8999 20.8242 12.8999ZM20.8242 17.8499H31.5491C31.7679 17.8499 31.9777 17.9368 32.1324 18.0915C32.2872 18.2462 32.3741 18.456 32.3741 18.6748C32.3741 18.8936 32.2872 19.1035 32.1324 19.2582C31.9777 19.4129 31.7679 19.4998 31.5491 19.4998H20.8242C20.6054 19.4998 20.3955 19.4129 20.2408 19.2582C20.0861 19.1035 19.9992 18.8936 19.9992 18.6748C19.9992 18.456 20.0861 18.2462 20.2408 18.0915C20.3955 17.9368 20.6054 17.8499 20.8242 17.8499ZM14.1218 17.8499H14.2033C14.5315 17.8591 14.8548 17.7684 15.1303 17.5897C15.4059 17.4111 15.6206 17.1529 15.746 16.8495C15.8226 16.6505 15.8581 16.4381 15.8504 16.2251C15.8426 16.0121 15.7917 15.8028 15.7009 15.61C15.61 15.4172 15.481 15.2448 15.3216 15.1032C15.1622 14.9617 14.9758 14.8539 14.7736 14.7863L13.2018 14.2619C12.6778 14.0993 12.2027 13.8085 11.8194 13.416C11.4361 13.0235 11.1568 12.5416 11.0068 12.0139C10.8956 11.5977 10.8689 11.1635 10.9284 10.7369C10.9878 10.3103 11.1322 9.89996 11.3529 9.53009C11.5736 9.16021 11.8663 8.83832 12.2135 8.58345C12.5607 8.32857 12.9555 8.14587 13.3745 8.04615V7.12496C13.3745 6.90616 13.4614 6.69632 13.6161 6.5416C13.7709 6.38689 13.9807 6.29997 14.1995 6.29997C14.4183 6.29997 14.6281 6.38689 14.7829 6.5416C14.9376 6.69632 15.0245 6.90616 15.0245 7.12496V8.04615C15.7281 8.21377 16.3547 8.61326 16.8037 9.1803C17.2526 9.74735 17.4977 10.449 17.4995 11.1722C17.5009 11.3951 17.4157 11.6098 17.2617 11.7709C17.1078 11.9321 16.8972 12.0271 16.6745 12.0358C16.5682 12.0402 16.4622 12.0232 16.3627 11.9858C16.2632 11.9484 16.1722 11.8913 16.0952 11.818C16.0182 11.7446 15.9568 11.6565 15.9146 11.5589C15.8723 11.4613 15.8502 11.3562 15.8495 11.2499C15.8572 11.0377 15.8224 10.8261 15.7471 10.6276C15.6718 10.429 15.5576 10.2475 15.4111 10.0938C15.2647 9.94006 15.089 9.81716 14.8943 9.73235C14.6996 9.64753 14.49 9.60251 14.2776 9.59994H14.1957C13.8675 9.59069 13.5442 9.6814 13.2687 9.86006C12.9932 10.0387 12.7784 10.2969 12.653 10.6003C12.5764 10.7992 12.5409 11.0116 12.5486 11.2247C12.5564 11.4377 12.6073 11.6469 12.6981 11.8398C12.789 12.0326 12.918 12.205 13.0774 12.3466C13.2368 12.4881 13.4232 12.5959 13.6254 12.6635L15.1973 13.1879C15.7212 13.3505 16.1963 13.6412 16.5796 14.0338C16.9629 14.4263 17.2422 14.9082 17.3922 15.4359C17.5034 15.8521 17.5301 16.2863 17.4706 16.7129C17.4112 17.1395 17.2668 17.5498 17.0461 17.9197C16.8254 18.2896 16.5328 18.6115 16.1855 18.8663C15.8383 19.1212 15.4435 19.3039 15.0245 19.4036V20.3248C15.0245 20.5436 14.9376 20.7535 14.7829 20.9082C14.6281 21.0629 14.4183 21.1498 14.1995 21.1498C13.9807 21.1498 13.7709 21.0629 13.6161 20.9082C13.4614 20.7535 13.3745 20.5436 13.3745 20.3248V19.4036C12.671 19.236 12.0443 18.8365 11.5953 18.2695C11.1464 17.7024 10.9013 17.0008 10.8995 16.2776C10.8981 16.0547 10.9833 15.84 11.1373 15.6789C11.2912 15.5177 11.5018 15.4227 11.7245 15.414C11.8308 15.4096 11.9368 15.4266 12.0363 15.464C12.1359 15.5014 12.2268 15.5585 12.3038 15.6318C12.3808 15.7052 12.4422 15.7933 12.4844 15.8909C12.5267 15.9885 12.5488 16.0935 12.5495 16.1999V16.2776C12.5495 16.4841 12.5902 16.6885 12.6692 16.8793C12.7482 17.07 12.864 17.2434 13.01 17.3894C13.156 17.5354 13.3293 17.6512 13.5201 17.7302C13.7109 17.8092 13.9153 17.8499 14.1218 17.8499ZM11.7493 22.7998H31.5491C31.7679 22.7998 31.9777 22.8867 32.1324 23.0414C32.2872 23.1962 32.3741 23.406 32.3741 23.6248C32.3741 23.8436 32.2872 24.0534 32.1324 24.2082C31.9777 24.3629 31.7679 24.4498 31.5491 24.4498H11.7493C11.5305 24.4498 11.3206 24.3629 11.1659 24.2082C11.0112 24.0534 10.9243 23.8436 10.9243 23.6248C10.9243 23.406 11.0112 23.1962 11.1659 23.0414C11.3206 22.8867 11.5305 22.7998 11.7493 22.7998ZM11.7493 29.3997C11.5305 29.3997 11.3206 29.3128 11.1659 29.1581C11.0112 29.0034 10.9243 28.7936 10.9243 28.5748C10.9243 28.3559 11.0112 28.1461 11.1659 27.9914C11.3206 27.8367 11.5305 27.7498 11.7493 27.7498H31.5491C31.7679 27.7498 31.9777 27.8367 32.1324 27.9914C32.2872 28.1461 32.3741 28.3559 32.3741 28.5748C32.3741 28.7936 32.2872 29.0034 32.1324 29.1581C31.9777 29.3128 31.7679 29.3997 31.5491 29.3997H11.7493Z" fill="#DCDCDC"/>
</svg>
