<svg width="80" height="80" viewBox="0 0 80 80" fill="none" xmlns="http://www.w3.org/2000/svg">
<g clip-path="url(#clip0_2003_14147)">
<path d="M60.5247 8.86622L40.5201 0.111557C40.18 -0.0368602 39.7933 -0.0368602 39.4532 0.111557L19.4486 8.86622C18.9628 9.07819 18.6487 9.55764 18.6484 10.0876V31.0209C18.6557 35.7253 20.9168 40.1415 24.7298 42.8982L38.5556 52.8676C39.4095 53.4855 40.5637 53.4855 41.4176 52.8676L55.2435 42.8996C59.0564 40.1429 61.3176 35.7267 61.3248 31.0222V10.0876C61.3246 9.55764 61.0104 9.07819 60.5247 8.86622ZM58.6576 31.0222C58.6515 34.8701 56.8019 38.4822 53.6831 40.7369L39.9866 50.6129L26.2902 40.7369C23.1714 38.4822 21.3218 34.8701 21.3157 31.0222V10.9596L39.9866 2.78889L58.6576 10.9596V31.0222Z" fill="#42387F"/>
<path d="M39.4526 5.93285L24.7826 12.3542C24.2968 12.5661 23.9827 13.0456 23.9824 13.5755V31.0222C23.9865 34.0137 25.4247 36.822 27.85 38.5742L39.2059 46.7635C39.6717 47.0995 40.3004 47.0995 40.7663 46.7635L52.1222 38.5742C54.5474 36.822 55.9856 34.0137 55.9897 31.0222V13.5755C55.9895 13.0456 55.6753 12.5661 55.1895 12.3542L40.5195 5.93285C40.1794 5.78443 39.7928 5.78443 39.4526 5.93285ZM53.3225 14.4462V31.0222C53.3184 33.1569 52.292 35.1606 50.5618 36.4115L39.9861 44.0382L29.4103 36.4115C27.6801 35.1606 26.6538 33.1569 26.6497 31.0222V14.4462L39.9861 8.61018L53.3225 14.4462Z" fill="#FBBC04"/>
<path d="M11.0259 44.2662L8.14128 37.5275C7.52783 36.1382 6.21964 35.1817 4.70949 35.0182C3.19933 34.8547 1.71664 35.5091 0.81993 36.7348C-0.0767792 37.9606 -0.251277 39.5716 0.362169 40.9609L5.5887 52.4555C6.29381 54.0116 7.27472 55.4273 8.48402 56.6342L16.7032 64.8529C16.2403 65.3434 15.9819 65.9918 15.9804 66.6662V77.3329C15.9804 78.8056 17.1746 79.9995 18.6477 79.9995H33.3177C34.7908 79.9995 35.985 78.8056 35.985 77.3329V66.6662C35.985 65.1934 34.7908 63.9995 33.3177 63.9995V61.5182C33.3586 58.3604 32.3281 55.282 30.3944 52.7849C29.2606 51.2941 27.7155 50.1674 25.9493 49.5435C23.1405 48.3637 20.5573 46.7063 18.3143 44.6449C16.2323 42.9305 13.2745 42.7768 11.0259 44.2662ZM33.3177 77.3329H18.6477V66.6662H33.3177V77.3329ZM28.3126 54.4502C29.8671 56.4751 30.691 58.966 30.6504 61.5182V63.9995H19.6226L10.3698 54.7489C9.38707 53.7678 8.58965 52.6173 8.01592 51.3529L2.78939 39.8582C2.56634 39.3676 2.60786 38.7973 2.8996 38.3442C3.19134 37.891 3.69336 37.6171 4.23239 37.6169C4.86673 37.6163 5.44001 37.9948 5.68872 38.5782L8.67207 45.5342C9.46428 47.3901 10.6062 49.0763 12.0355 50.5009L18.1276 56.5929C18.4624 56.9395 18.9583 57.0785 19.4245 56.9565C19.8908 56.8344 20.255 56.4704 20.377 56.0042C20.4991 55.538 20.36 55.0423 20.0133 54.7075L13.9213 48.6155C13.3087 48.0046 12.7579 47.3346 12.2769 46.6155C13.5576 45.6302 15.3494 45.6601 16.5965 46.6875C19.0896 48.9749 21.971 50.7991 25.1052 52.0742C26.3821 52.5385 27.4965 53.364 28.3126 54.4502Z" fill="#42387F"/>
<path d="M29.3171 70.6663H27.9837C27.2473 70.6663 26.6504 71.2632 26.6504 71.9996C26.6504 72.736 27.2473 73.3329 27.9837 73.3329H29.3171C30.0534 73.3329 30.6504 72.736 30.6504 71.9996C30.6504 71.2632 30.0534 70.6663 29.3171 70.6663Z" fill="#42387F"/>
<path d="M74.3826 52.4555L79.6091 40.9609C80.2518 39.5669 80.0928 37.9348 79.1932 36.691C78.2936 35.4472 76.7932 34.7848 75.2677 34.9582C73.7423 35.1315 72.4288 36.1136 71.8314 37.5275L68.9534 44.2409C66.697 42.7588 63.7378 42.9211 61.657 44.6409C59.414 46.7023 56.8308 48.3597 54.022 49.5395C52.2558 50.1634 50.7107 51.2901 49.5769 52.7809C47.6423 55.2791 46.6118 58.3591 46.6536 61.5182V63.9995C45.1805 63.9995 43.9863 65.1935 43.9863 66.6662V77.3329C43.9863 78.8056 45.1805 79.9995 46.6536 79.9995H61.3236C62.7967 79.9995 63.9909 78.8056 63.9909 77.3329V66.6662C63.9894 65.9918 63.731 65.3434 63.2681 64.8529L71.4873 56.6342C72.6966 55.4273 73.6775 54.0116 74.3826 52.4555ZM61.3236 77.3329H46.6536V66.6662H61.3236V77.3329ZM60.3487 63.9995H49.3209V61.5182C49.2806 58.9665 50.1045 56.476 51.6587 54.4515C52.473 53.366 53.5849 52.5402 54.8595 52.0742C57.9943 50.7995 60.8762 48.9753 63.3694 46.6875C64.6152 45.6523 66.412 45.6174 67.6971 46.6035C67.2147 47.328 66.6611 48.0024 66.0447 48.6169L59.9526 54.7089C59.4472 55.2321 59.4545 56.0637 59.9689 56.578C60.4833 57.0923 61.3151 57.0995 61.8384 56.5942L67.9305 50.5022C69.3598 49.0776 70.5017 47.3914 71.2939 45.5355L74.2772 38.5782C74.5266 37.9956 75.0997 37.6178 75.7336 37.6182C76.2726 37.6184 76.7746 37.8924 77.0664 38.3455C77.3581 38.7987 77.3996 39.3689 77.1766 39.8595L71.95 51.3542C71.3763 52.6187 70.5789 53.7691 69.5962 54.7502L60.3487 63.9995Z" fill="#42387F"/>
<path d="M51.9889 70.6663H50.6556C49.9192 70.6663 49.3223 71.2632 49.3223 71.9996C49.3223 72.736 49.9192 73.3329 50.6556 73.3329H51.9889C52.7253 73.3329 53.3223 72.736 53.3223 71.9996C53.3223 71.2632 52.7253 70.6663 51.9889 70.6663Z" fill="#42387F"/>
<path d="M32.7843 28.2664C32.1951 27.8245 31.3591 27.9439 30.9172 28.533C30.4753 29.1221 30.5947 29.9579 31.1839 30.3997L36.5185 34.3997C36.7493 34.5728 37.0301 34.6664 37.3187 34.6664C37.3942 34.6661 37.4695 34.6599 37.544 34.6477C37.9052 34.5857 38.225 34.3779 38.4282 34.073L49.0973 18.073C49.3618 17.6767 49.3946 17.1694 49.1836 16.7423C48.9725 16.3152 48.5495 16.0331 48.074 16.0023C47.5984 15.9715 47.1426 16.1967 46.8782 16.593L36.9906 31.421L32.7843 28.2664Z" fill="#FBBC04"/>
</g>
<defs>
<clipPath id="clip0_2003_14147">
<rect width="80" height="79.9993" fill="white" transform="translate(0 0.000244141)"/>
</clipPath>
</defs>
</svg>
