<svg width="52" height="44" viewBox="0 0 52 44" fill="none" xmlns="http://www.w3.org/2000/svg">
<g clip-path="url(#clip0_2003_14265)">
<path d="M13 12.375H10.25C8.73122 12.375 7.5 13.6062 7.5 15.125V41.25C7.5 42.7688 8.73122 44 10.25 44H13C14.5188 44 15.75 42.7688 15.75 41.25V15.125C15.75 13.6062 14.5188 12.375 13 12.375Z" fill="#42387F"/>
<path d="M50.2336 19.4041C49.6037 18.5021 48.7641 17.7667 47.7872 17.2608C46.8103 16.755 45.7251 16.4939 44.625 16.5001H36.7463C38.351 13.3055 39.4561 9.88366 40.0229 6.35392C40.1516 5.57605 40.1093 4.77946 39.8989 4.01959C39.6885 3.25972 39.3151 2.55481 38.8046 1.95393C38.2869 1.33966 37.6412 0.845835 36.9128 0.506934C36.1845 0.168033 35.3909 -0.00777109 34.5875 -0.00819971C33.2896 -0.0160897 32.0312 0.438191 31.0376 1.27333C30.044 2.10848 29.38 3.26997 29.1645 4.54993C28.6172 7.79905 27.025 13.6126 22.4999 16.5001H18.5V40.4443L19.4721 41.4164C19.8541 41.8008 20.3085 42.1056 20.8092 42.3131C21.3098 42.5206 21.8466 42.6266 22.3885 42.625H41.226C42.3637 42.6238 43.473 42.2704 44.4017 41.6133C45.3304 40.9561 46.0328 40.0276 46.4125 38.9552L51.104 25.663C51.4765 24.6273 51.5919 23.5165 51.4403 22.4263C51.2887 21.336 50.8746 20.2989 50.2336 19.4041Z" fill="#DCDCDC"/>
<path d="M3.66667 16H2.33333C1.59695 16 1 16.8954 1 18V37C1 38.1046 1.59695 39 2.33333 39H3.66667C4.40305 39 5 38.1046 5 37V18C5 16.8954 4.40305 16 3.66667 16Z" fill="#FBBC04"/>
</g>
<defs>
<clipPath id="clip0_2003_14265">
<rect width="51" height="44" fill="white" transform="translate(0.5)"/>
</clipPath>
</defs>
</svg>
