<svg width="64" height="65" viewBox="0 0 64 65" fill="none" xmlns="http://www.w3.org/2000/svg">
<circle cx="32" cy="32.5" r="30" fill="#E1DFF6" stroke="#42387F" stroke-width="4"/>
<g clip-path="url(#clip0_2003_14817)">
<path d="M35.6894 33.1771C40.4631 31.1505 42.69 25.6378 40.6634 20.8642C38.6368 16.0905 33.1241 13.8636 28.3505 15.8902C23.5768 17.9168 21.3499 23.4295 23.3765 28.2031C25.4031 32.9768 30.9158 35.2037 35.6894 33.1771Z" stroke="#42387F" stroke-width="1.1875" stroke-miterlimit="10" stroke-linecap="round" stroke-linejoin="round"/>
<path d="M34.7213 30.8966C38.2356 29.4046 39.8751 25.3462 38.3831 21.8318C36.8911 18.3175 32.8327 16.678 29.3184 18.17C25.804 19.662 24.1646 23.7204 25.6565 27.2347C27.1485 30.7491 31.2069 32.3885 34.7213 30.8966Z" stroke="#42387F" stroke-width="1.1875" stroke-miterlimit="10" stroke-linecap="round" stroke-linejoin="round"/>
<path d="M32.9205 24.5359H31.0205C30.272 24.5359 29.6387 23.9025 29.6387 23.154C29.6387 22.4055 30.272 21.7722 31.0205 21.7722H32.9205C33.669 21.7722 34.3023 22.4055 34.3023 23.154" stroke="#42387F" stroke-width="1.1875" stroke-miterlimit="10" stroke-linecap="round" stroke-linejoin="round"/>
<path d="M31.0771 24.5358H32.9771C33.7256 24.5358 34.3589 25.1691 34.3589 25.9176C34.3014 26.6661 33.7256 27.2418 32.9196 27.2418H31.0196C30.3286 27.2418 29.6953 26.6661 29.6953 25.9176" stroke="#42387F" stroke-width="1.1875" stroke-miterlimit="10" stroke-linecap="round" stroke-linejoin="round"/>
<path d="M32 20.9081V21.7717" stroke="#42387F" stroke-width="1.1875" stroke-miterlimit="10" stroke-linecap="round" stroke-linejoin="round"/>
<path d="M32 27.2419V28.1632" stroke="#42387F" stroke-width="1.1875" stroke-miterlimit="10" stroke-linecap="round" stroke-linejoin="round"/>
<path d="M22.8702 50.5626C24.8324 49.7295 25.7478 47.4636 24.9147 45.5014C24.0817 43.5392 21.8158 42.6239 19.8536 43.4569C17.8914 44.2899 16.9761 46.5559 17.8091 48.518C18.6421 50.4802 20.9081 51.3956 22.8702 50.5626Z" stroke="#42387F" stroke-width="1.1875" stroke-miterlimit="10" stroke-linecap="round" stroke-linejoin="round"/>
<path d="M19.6777 47.2784L20.4838 48.0844L22.7292 45.839" stroke="#42387F" stroke-width="1.1875" stroke-miterlimit="10" stroke-linecap="round" stroke-linejoin="round"/>
<path d="M33.5265 50.5552C35.4887 49.7222 36.404 47.4563 35.571 45.4941C34.738 43.5319 32.472 42.6166 30.5099 43.4496C28.5477 44.2826 27.6323 46.5485 28.4653 48.5107C29.2984 50.4729 31.5643 51.3882 33.5265 50.5552Z" stroke="#42387F" stroke-width="1.1875" stroke-miterlimit="10" stroke-linecap="round" stroke-linejoin="round"/>
<path d="M30.2715 47.2789L31.1351 48.0849L33.323 45.8395" stroke="#42387F" stroke-width="1.1875" stroke-miterlimit="10" stroke-linecap="round" stroke-linejoin="round"/>
<path d="M44.507 50.5552C46.4691 49.7222 47.3845 47.4563 46.5515 45.4941C45.7184 43.5319 43.4525 42.6166 41.4903 43.4496C39.5282 44.2826 38.6128 46.5485 39.4458 48.5107C40.2788 50.4729 42.5448 51.3882 44.507 50.5552Z" stroke="#42387F" stroke-width="1.1875" stroke-miterlimit="10" stroke-linecap="round" stroke-linejoin="round"/>
<path d="M41.252 47.2789L42.1156 48.0849L44.3035 45.8395" stroke="#42387F" stroke-width="1.1875" stroke-miterlimit="10" stroke-linecap="round" stroke-linejoin="round"/>
<path d="M21.3477 40.8297C21.3477 39.3327 22.5567 38.1237 24.0537 38.1237H39.9446C41.4416 38.1237 42.6507 39.3327 42.6507 40.8297" stroke="#42387F" stroke-width="1.1875" stroke-miterlimit="10" stroke-linecap="round" stroke-linejoin="round"/>
<path d="M32 39.9661V36.3964" stroke="#42387F" stroke-width="1.1875" stroke-miterlimit="10" stroke-linecap="round" stroke-linejoin="round"/>
</g>
<defs>
<clipPath id="clip0_2003_14817">
<rect width="38" height="38" fill="white" transform="translate(13 14)"/>
</clipPath>
</defs>
</svg>
