<svg width="32" height="33" viewBox="0 0 32 33" fill="none" xmlns="http://www.w3.org/2000/svg">
<circle cx="16" cy="16.561" r="15" fill="#E1DFF6" stroke="#42387F" stroke-width="2"/>
<g clip-path="url(#clip0_2003_14425)">
<path d="M17.6667 16.561V10.7277C17.6667 9.34937 16.545 8.2277 15.1667 8.2277H10.1667C8.78833 8.2277 7.66667 9.34937 7.66667 10.7277V22.3944C7.66667 23.7727 8.78833 24.8944 10.1667 24.8944H15.1667C15.6275 24.8944 16 25.2669 16 25.7277C16 26.1885 15.6275 26.561 15.1667 26.561H10.1667C7.86917 26.561 6 24.6919 6 22.3944V10.7277C6 8.4302 7.86917 6.56104 10.1667 6.56104H15.1667C17.4642 6.56104 19.3333 8.4302 19.3333 10.7277V16.561C19.3333 17.0219 18.9608 17.3944 18.5 17.3944C18.0392 17.3944 17.6667 17.0219 17.6667 16.561ZM11 17.3944H10.1667C9.70583 17.3944 9.33333 17.7669 9.33333 18.2277C9.33333 18.6885 9.70583 19.061 10.1667 19.061H11C11.4608 19.061 11.8333 18.6885 11.8333 18.2277C11.8333 17.7669 11.4608 17.3944 11 17.3944ZM15.1667 17.3944H14.3333C13.8725 17.3944 13.5 17.7669 13.5 18.2277C13.5 18.6885 13.8725 19.061 14.3333 19.061H15.1667C15.6275 19.061 16 18.6885 16 18.2277C16 17.7669 15.6275 17.3944 15.1667 17.3944ZM11 20.7277H10.1667C9.70583 20.7277 9.33333 21.1002 9.33333 21.561C9.33333 22.0219 9.70583 22.3944 10.1667 22.3944H11C11.4608 22.3944 11.8333 22.0219 11.8333 21.561C11.8333 21.1002 11.4608 20.7277 11 20.7277ZM15.1667 20.7277H14.3333C13.8725 20.7277 13.5 21.1002 13.5 21.561C13.5 22.0219 13.8725 22.3944 14.3333 22.3944H15.1667C15.6275 22.3944 16 22.0219 16 21.561C16 21.1002 15.6275 20.7277 15.1667 20.7277ZM11 10.7277H10.1667C9.70583 10.7277 9.33333 11.1002 9.33333 11.561C9.33333 12.0219 9.70583 12.3944 10.1667 12.3944H11C11.4608 12.3944 11.8333 12.0219 11.8333 11.561C11.8333 11.1002 11.4608 10.7277 11 10.7277ZM15.1667 10.7277H14.3333C13.8725 10.7277 13.5 11.1002 13.5 11.561C13.5 12.0219 13.8725 12.3944 14.3333 12.3944H15.1667C15.6275 12.3944 16 12.0219 16 11.561C16 11.1002 15.6275 10.7277 15.1667 10.7277ZM11 14.061H10.1667C9.70583 14.061 9.33333 14.4335 9.33333 14.8944C9.33333 15.3552 9.70583 15.7277 10.1667 15.7277H11C11.4608 15.7277 11.8333 15.3552 11.8333 14.8944C11.8333 14.4335 11.4608 14.061 11 14.061ZM15.1667 14.061H14.3333C13.8725 14.061 13.5 14.4335 13.5 14.8944C13.5 15.3552 13.8725 15.7277 14.3333 15.7277H15.1667C15.6275 15.7277 16 15.3552 16 14.8944C16 14.4335 15.6275 14.061 15.1667 14.061ZM25.9742 25.5202C25.5075 23.7085 23.7667 22.3944 21.8333 22.3944C19.9 22.3944 18.1592 23.7085 17.6925 25.5202C17.5775 25.9652 17.8467 26.4202 18.2925 26.5352C18.7342 26.6494 19.1925 26.381 19.3075 25.9352C19.5825 24.8669 20.6683 24.061 21.8333 24.061C22.9983 24.061 24.0842 24.8669 24.3592 25.9352C24.4558 26.311 24.7942 26.561 25.1658 26.561C25.235 26.561 25.305 26.5527 25.3742 26.5352C25.82 26.4202 26.0883 25.9652 25.9742 25.5202ZM21.8333 21.561C22.9825 21.561 23.9167 20.6269 23.9167 19.4777C23.9167 18.3285 22.9825 17.3944 21.8333 17.3944C20.6842 17.3944 19.75 18.3285 19.75 19.4777C19.75 20.6269 20.6842 21.561 21.8333 21.561Z" fill="#42387F"/>
</g>
<defs>
<clipPath id="clip0_2003_14425">
<rect width="20" height="20" fill="white" transform="translate(6 6.56104)"/>
</clipPath>
</defs>
</svg>
