<svg width="705" height="469" viewBox="0 0 705 469" fill="none" xmlns="http://www.w3.org/2000/svg">
<g filter="url(#filter0_dd_140_807)">
<rect x="38" y="15" width="629" height="391" rx="20" fill="white"/>
<rect x="40.5" y="17.5" width="624" height="386" rx="17.5" stroke="white" stroke-width="5"/>
<path d="M58.9997 39.6938C56.6984 39.6938 54.833 37.8284 54.833 35.5271C54.833 33.2259 56.6984 31.3605 58.9997 31.3605C61.3009 31.3605 63.1663 33.2259 63.1663 35.5271C63.1663 37.8284 61.3009 39.6938 58.9997 39.6938Z" fill="#E11D48"/>
<path d="M73.9997 39.6938C71.6984 39.6938 69.833 37.8284 69.833 35.5271C69.833 33.2259 71.6984 31.3605 73.9997 31.3605C76.3009 31.3605 78.1663 33.2259 78.1663 35.5271C78.1663 37.8284 76.3009 39.6938 73.9997 39.6938Z" fill="#FBBF24"/>
<path d="M88.9997 39.6938C86.6984 39.6938 84.833 37.8284 84.833 35.5271C84.833 33.2259 86.6984 31.3605 88.9997 31.3605C91.3009 31.3605 93.1663 33.2259 93.1663 35.5271C93.1663 37.8284 91.3009 39.6938 88.9997 39.6938Z" fill="#22C55E"/>
<rect x="178.5" y="23.3066" width="347.332" height="25.3067" rx="5.19167" fill="#F1F5F9"/>
<path d="M279.202 37.021C279.202 36.3232 279.343 35.7127 279.625 35.1894C279.908 34.6578 280.294 34.2466 280.784 33.9558C281.283 33.6651 281.835 33.5197 282.441 33.5197C283.039 33.5197 283.559 33.6485 283.999 33.906C284.439 34.1635 284.767 34.4875 284.983 34.8779V33.6319H286.13V40.46H284.983V39.189C284.759 39.5878 284.423 39.92 283.974 40.1858C283.534 40.4433 283.019 40.5721 282.429 40.5721C281.823 40.5721 281.274 40.4226 280.784 40.1235C280.294 39.8245 279.908 39.405 279.625 38.8651C279.343 38.3251 279.202 37.7105 279.202 37.021ZM284.983 37.0335C284.983 36.5184 284.879 36.0699 284.672 35.6878C284.464 35.3057 284.182 35.0149 283.824 34.8156C283.476 34.6079 283.089 34.5041 282.666 34.5041C282.242 34.5041 281.856 34.6038 281.507 34.8031C281.158 35.0025 280.88 35.2932 280.672 35.6753C280.464 36.0574 280.361 36.506 280.361 37.021C280.361 37.5443 280.464 38.0012 280.672 38.3916C280.88 38.7737 281.158 39.0686 281.507 39.2763C281.856 39.4756 282.242 39.5753 282.666 39.5753C283.089 39.5753 283.476 39.4756 283.824 39.2763C284.182 39.0686 284.464 38.7737 284.672 38.3916C284.879 38.0012 284.983 37.5485 284.983 37.0335ZM289.18 34.8903C289.404 34.4999 289.736 34.176 290.176 33.9185C290.625 33.6526 291.144 33.5197 291.734 33.5197C292.34 33.5197 292.888 33.6651 293.379 33.9558C293.877 34.2466 294.267 34.6578 294.55 35.1894C294.832 35.7127 294.973 36.3232 294.973 37.021C294.973 37.7105 294.832 38.3251 294.55 38.8651C294.267 39.405 293.877 39.8245 293.379 40.1235C292.888 40.4226 292.34 40.5721 291.734 40.5721C291.152 40.5721 290.637 40.4433 290.189 40.1858C289.749 39.92 289.412 39.5919 289.18 39.2015V43.6996H288.046V33.6319H289.18V34.8903ZM293.815 37.021C293.815 36.506 293.711 36.0574 293.503 35.6753C293.295 35.2932 293.013 35.0025 292.656 34.8031C292.307 34.6038 291.921 34.5041 291.497 34.5041C291.082 34.5041 290.695 34.6079 290.338 34.8156C289.989 35.0149 289.707 35.3098 289.491 35.7002C289.283 36.0823 289.18 36.5268 289.18 37.0335C289.18 37.5485 289.283 38.0012 289.491 38.3916C289.707 38.7737 289.989 39.0686 290.338 39.2763C290.695 39.4756 291.082 39.5753 291.497 39.5753C291.921 39.5753 292.307 39.4756 292.656 39.2763C293.013 39.0686 293.295 38.7737 293.503 38.3916C293.711 38.0012 293.815 37.5443 293.815 37.021ZM297.6 34.8903C297.824 34.4999 298.156 34.176 298.597 33.9185C299.045 33.6526 299.564 33.5197 300.154 33.5197C300.76 33.5197 301.309 33.6651 301.799 33.9558C302.297 34.2466 302.688 34.6578 302.97 35.1894C303.252 35.7127 303.394 36.3232 303.394 37.021C303.394 37.7105 303.252 38.3251 302.97 38.8651C302.688 39.405 302.297 39.8245 301.799 40.1235C301.309 40.4226 300.76 40.5721 300.154 40.5721C299.573 40.5721 299.058 40.4433 298.609 40.1858C298.169 39.92 297.832 39.5919 297.6 39.2015V43.6996H296.466V33.6319H297.6V34.8903ZM302.235 37.021C302.235 36.506 302.131 36.0574 301.923 35.6753C301.716 35.2932 301.433 35.0025 301.076 34.8031C300.727 34.6038 300.341 34.5041 299.917 34.5041C299.502 34.5041 299.116 34.6079 298.759 34.8156C298.41 35.0149 298.127 35.3098 297.911 35.7002C297.704 36.0823 297.6 36.5268 297.6 37.0335C297.6 37.5485 297.704 38.0012 297.911 38.3916C298.127 38.7737 298.41 39.0686 298.759 39.2763C299.116 39.4756 299.502 39.5753 299.917 39.5753C300.341 39.5753 300.727 39.4756 301.076 39.2763C301.433 39.0686 301.716 38.7737 301.923 38.3916C302.131 38.0012 302.235 37.5443 302.235 37.021ZM305.247 40.5347C305.032 40.5347 304.849 40.46 304.699 40.3104C304.55 40.1609 304.475 39.9782 304.475 39.7622C304.475 39.5462 304.55 39.3635 304.699 39.214C304.849 39.0644 305.032 38.9897 305.247 38.9897C305.455 38.9897 305.63 39.0644 305.771 39.214C305.92 39.3635 305.995 39.5462 305.995 39.7622C305.995 39.9782 305.92 40.1609 305.771 40.3104C305.63 40.46 305.455 40.5347 305.247 40.5347ZM307.079 37.0335C307.079 36.3274 307.22 35.7127 307.502 35.1894C307.785 34.6578 308.175 34.2466 308.673 33.9558C309.18 33.6651 309.758 33.5197 310.405 33.5197C311.244 33.5197 311.934 33.7233 312.474 34.1303C313.022 34.5373 313.383 35.1022 313.558 35.8248H312.337C312.22 35.4095 311.992 35.0814 311.651 34.8405C311.319 34.5996 310.904 34.4792 310.405 34.4792C309.758 34.4792 309.234 34.7034 308.835 35.152C308.437 35.5923 308.237 36.2194 308.237 37.0335C308.237 37.8558 308.437 38.4913 308.835 38.9398C309.234 39.3884 309.758 39.6127 310.405 39.6127C310.904 39.6127 311.319 39.4964 311.651 39.2638C311.984 39.0312 312.212 38.6989 312.337 38.267H313.558C313.375 38.9648 313.01 39.5255 312.461 39.9491C311.913 40.3644 311.228 40.5721 310.405 40.5721C309.758 40.5721 309.18 40.4267 308.673 40.136C308.175 39.8453 307.785 39.4341 307.502 38.9025C307.22 38.3708 307.079 37.7478 307.079 37.0335ZM318.049 40.5721C317.409 40.5721 316.828 40.4267 316.304 40.136C315.789 39.8453 315.382 39.4341 315.083 38.9025C314.792 38.3625 314.647 37.7395 314.647 37.0335C314.647 36.3357 314.797 35.721 315.096 35.1894C315.403 34.6494 315.818 34.2383 316.342 33.9558C316.865 33.6651 317.451 33.5197 318.099 33.5197C318.746 33.5197 319.332 33.6651 319.855 33.9558C320.379 34.2383 320.79 34.6453 321.089 35.1769C321.396 35.7085 321.55 36.3274 321.55 37.0335C321.55 37.7395 321.392 38.3625 321.076 38.9025C320.769 39.4341 320.35 39.8453 319.818 40.136C319.286 40.4267 318.697 40.5721 318.049 40.5721ZM318.049 39.5753C318.456 39.5753 318.838 39.4798 319.195 39.2887C319.552 39.0977 319.839 38.8111 320.055 38.429C320.279 38.0469 320.391 37.5817 320.391 37.0335C320.391 36.4852 320.283 36.02 320.067 35.6379C319.851 35.2558 319.569 34.9734 319.22 34.7907C318.871 34.5996 318.493 34.5041 318.086 34.5041C317.671 34.5041 317.289 34.5996 316.94 34.7907C316.599 34.9734 316.325 35.2558 316.117 35.6379C315.91 36.02 315.806 36.4852 315.806 37.0335C315.806 37.59 315.906 38.0593 316.105 38.4414C316.313 38.8235 316.587 39.1101 316.927 39.3012C317.268 39.4839 317.642 39.5753 318.049 39.5753ZM326.368 33.5073C327.198 33.5073 327.871 33.7606 328.386 34.2673C328.901 34.7657 329.159 35.4884 329.159 36.4354V40.46H328.037V36.5974C328.037 35.9162 327.867 35.397 327.526 35.0399C327.186 34.6744 326.721 34.4916 326.131 34.4916C325.533 34.4916 325.055 34.6785 324.698 35.0523C324.349 35.4261 324.175 35.9702 324.175 36.6846V40.46H323.041V33.6319H324.175V34.6038C324.399 34.2549 324.702 33.9849 325.084 33.7939C325.475 33.6028 325.902 33.5073 326.368 33.5073ZM333.428 40.5721C332.905 40.5721 332.435 40.4849 332.02 40.3104C331.605 40.1277 331.277 39.8785 331.036 39.5628C330.795 39.2389 330.662 38.8692 330.637 38.4539H331.808C331.841 38.7945 331.999 39.0727 332.282 39.2887C332.572 39.5047 332.95 39.6127 333.416 39.6127C333.847 39.6127 334.188 39.5172 334.437 39.3261C334.686 39.135 334.811 38.8942 334.811 38.6034C334.811 38.3044 334.678 38.0843 334.412 37.943C334.147 37.7935 333.735 37.6482 333.179 37.5069C332.672 37.374 332.257 37.2411 331.933 37.1082C331.617 36.967 331.343 36.7635 331.11 36.4977C330.886 36.2236 330.774 35.8664 330.774 35.4261C330.774 35.0772 330.878 34.7574 331.086 34.4667C331.293 34.176 331.588 33.9475 331.97 33.7814C332.352 33.607 332.788 33.5197 333.278 33.5197C334.034 33.5197 334.645 33.7108 335.11 34.0929C335.575 34.475 335.824 34.9983 335.858 35.6629H334.724C334.699 35.3057 334.554 35.0191 334.288 34.8031C334.03 34.5871 333.681 34.4792 333.241 34.4792C332.834 34.4792 332.51 34.5664 332.269 34.7408C332.028 34.9153 331.908 35.1437 331.908 35.4261C331.908 35.6504 331.978 35.8373 332.12 35.9868C332.269 36.128 332.452 36.2443 332.668 36.3357C332.892 36.4188 333.2 36.5143 333.59 36.6223C334.08 36.7552 334.479 36.8881 334.786 37.021C335.093 37.1456 335.355 37.3367 335.571 37.5942C335.795 37.8517 335.912 38.1881 335.92 38.6034C335.92 38.9772 335.816 39.3136 335.609 39.6127C335.401 39.9117 335.106 40.1485 334.724 40.3229C334.35 40.489 333.918 40.5721 333.428 40.5721ZM343.576 33.6319V40.46H342.442V39.4507C342.226 39.7996 341.923 40.0737 341.533 40.2731C341.151 40.4641 340.727 40.5596 340.262 40.5596C339.73 40.5596 339.253 40.4517 338.829 40.2357C338.405 40.0114 338.069 39.6791 337.82 39.2389C337.579 38.7986 337.458 38.2628 337.458 37.6315V33.6319H338.58V37.482C338.58 38.1549 338.75 38.674 339.091 39.0395C339.431 39.3967 339.896 39.5753 340.486 39.5753C341.092 39.5753 341.57 39.3884 341.919 39.0146C342.268 38.6408 342.442 38.0967 342.442 37.3823V33.6319H343.576ZM346.625 31.2396V40.46H345.491V31.2396H346.625ZM349.94 34.5664V38.591C349.94 38.9232 350.011 39.16 350.152 39.3012C350.293 39.4341 350.538 39.5005 350.887 39.5005H351.722V40.46H350.7C350.069 40.46 349.595 40.3146 349.28 40.0239C348.964 39.7331 348.806 39.2555 348.806 38.591V34.5664H347.922V33.6319H348.806V31.9124H349.94V33.6319H351.722V34.5664H349.94ZM359.326 36.7843C359.326 37.0002 359.313 37.2287 359.288 37.4696H353.831C353.872 38.1424 354.101 38.6699 354.516 39.052C354.94 39.4258 355.451 39.6127 356.049 39.6127C356.539 39.6127 356.946 39.5005 357.27 39.2763C357.602 39.0437 357.835 38.7363 357.967 38.3542H359.189C359.006 39.0104 358.64 39.5462 358.092 39.9616C357.544 40.3686 356.863 40.5721 356.049 40.5721C355.401 40.5721 354.819 40.4267 354.304 40.136C353.798 39.8453 353.399 39.4341 353.108 38.9025C352.817 38.3625 352.672 37.7395 352.672 37.0335C352.672 36.3274 352.813 35.7085 353.096 35.1769C353.378 34.6453 353.773 34.2383 354.279 33.9558C354.794 33.6651 355.384 33.5197 356.049 33.5197C356.697 33.5197 357.27 33.661 357.768 33.9434C358.267 34.2258 358.649 34.6162 358.914 35.1146C359.189 35.6047 359.326 36.1613 359.326 36.7843ZM358.154 36.5475C358.154 36.1156 358.059 35.7459 357.868 35.4386C357.677 35.1229 357.415 34.8862 357.083 34.7284C356.759 34.5622 356.398 34.4792 355.999 34.4792C355.426 34.4792 354.936 34.6619 354.529 35.0274C354.13 35.3929 353.901 35.8996 353.843 36.5475H358.154ZM363.24 40.5721C362.716 40.5721 362.247 40.4849 361.832 40.3104C361.416 40.1277 361.088 39.8785 360.847 39.5628C360.606 39.2389 360.473 38.8692 360.448 38.4539H361.62C361.653 38.7945 361.811 39.0727 362.093 39.2887C362.384 39.5047 362.762 39.6127 363.227 39.6127C363.659 39.6127 364 39.5172 364.249 39.3261C364.498 39.135 364.623 38.8942 364.623 38.6034C364.623 38.3044 364.49 38.0843 364.224 37.943C363.958 37.7935 363.547 37.6482 362.99 37.5069C362.484 37.374 362.068 37.2411 361.744 37.1082C361.429 36.967 361.155 36.7635 360.922 36.4977C360.698 36.2236 360.586 35.8664 360.586 35.4261C360.586 35.0772 360.689 34.7574 360.897 34.4667C361.105 34.176 361.4 33.9475 361.782 33.7814C362.164 33.607 362.6 33.5197 363.09 33.5197C363.846 33.5197 364.456 33.7108 364.922 34.0929C365.387 34.475 365.636 34.9983 365.669 35.6629H364.535C364.51 35.3057 364.365 35.0191 364.099 34.8031C363.842 34.5871 363.493 34.4792 363.053 34.4792C362.646 34.4792 362.322 34.5664 362.081 34.7408C361.84 34.9153 361.719 35.1437 361.719 35.4261C361.719 35.6504 361.79 35.8373 361.931 35.9868C362.081 36.128 362.263 36.2443 362.479 36.3357C362.704 36.4188 363.011 36.5143 363.402 36.6223C363.892 36.7552 364.29 36.8881 364.598 37.021C364.905 37.1456 365.167 37.3367 365.383 37.5942C365.607 37.8517 365.723 38.1881 365.732 38.6034C365.732 38.9772 365.628 39.3136 365.42 39.6127C365.212 39.9117 364.917 40.1485 364.535 40.3229C364.162 40.489 363.73 40.5721 363.24 40.5721ZM366.909 37.0335C366.909 36.3274 367.05 35.7127 367.332 35.1894C367.615 34.6578 368.005 34.2466 368.503 33.9558C369.01 33.6651 369.587 33.5197 370.235 33.5197C371.074 33.5197 371.764 33.7233 372.304 34.1303C372.852 34.5373 373.213 35.1022 373.388 35.8248H372.167C372.05 35.4095 371.822 35.0814 371.481 34.8405C371.149 34.5996 370.734 34.4792 370.235 34.4792C369.587 34.4792 369.064 34.7034 368.665 35.152C368.267 35.5923 368.067 36.2194 368.067 37.0335C368.067 37.8558 368.267 38.4913 368.665 38.9398C369.064 39.3884 369.587 39.6127 370.235 39.6127C370.734 39.6127 371.149 39.4964 371.481 39.2638C371.814 39.0312 372.042 38.6989 372.167 38.267H373.388C373.205 38.9648 372.839 39.5255 372.291 39.9491C371.743 40.3644 371.058 40.5721 370.235 40.5721C369.587 40.5721 369.01 40.4267 368.503 40.136C368.005 39.8453 367.615 39.4341 367.332 38.9025C367.05 38.3708 366.909 37.7478 366.909 37.0335ZM377.879 40.5721C377.239 40.5721 376.657 40.4267 376.134 40.136C375.619 39.8453 375.212 39.4341 374.913 38.9025C374.622 38.3625 374.477 37.7395 374.477 37.0335C374.477 36.3357 374.627 35.721 374.926 35.1894C375.233 34.6494 375.648 34.2383 376.172 33.9558C376.695 33.6651 377.28 33.5197 377.928 33.5197C378.576 33.5197 379.162 33.6651 379.685 33.9558C380.209 34.2383 380.62 34.6453 380.919 35.1769C381.226 35.7085 381.38 36.3274 381.38 37.0335C381.38 37.7395 381.222 38.3625 380.906 38.9025C380.599 39.4341 380.18 39.8453 379.648 40.136C379.116 40.4267 378.526 40.5721 377.879 40.5721ZM377.879 39.5753C378.286 39.5753 378.668 39.4798 379.025 39.2887C379.382 39.0977 379.669 38.8111 379.885 38.429C380.109 38.0469 380.221 37.5817 380.221 37.0335C380.221 36.4852 380.113 36.02 379.897 35.6379C379.681 35.2558 379.399 34.9734 379.05 34.7907C378.701 34.5996 378.323 34.5041 377.916 34.5041C377.501 34.5041 377.119 34.5996 376.77 34.7907C376.429 34.9734 376.155 35.2558 375.947 35.6379C375.74 36.02 375.636 36.4852 375.636 37.0335C375.636 37.59 375.735 38.0593 375.935 38.4414C376.142 38.8235 376.417 39.1101 376.757 39.3012C377.098 39.4839 377.472 39.5753 377.879 39.5753ZM384.005 34.7408C384.204 34.3504 384.486 34.0472 384.852 33.8312C385.226 33.6153 385.678 33.5073 386.21 33.5073V34.6785H385.911C384.64 34.6785 384.005 35.368 384.005 36.7469V40.46H382.871V33.6319H384.005V34.7408ZM393.749 36.7843C393.749 37.0002 393.736 37.2287 393.711 37.4696H388.254C388.295 38.1424 388.524 38.6699 388.939 39.052C389.363 39.4258 389.874 39.6127 390.472 39.6127C390.962 39.6127 391.369 39.5005 391.693 39.2763C392.025 39.0437 392.258 38.7363 392.391 38.3542H393.612C393.429 39.0104 393.064 39.5462 392.515 39.9616C391.967 40.3686 391.286 40.5721 390.472 40.5721C389.824 40.5721 389.242 40.4267 388.727 40.136C388.221 39.8453 387.822 39.4341 387.531 38.9025C387.241 38.3625 387.095 37.7395 387.095 37.0335C387.095 36.3274 387.236 35.7085 387.519 35.1769C387.801 34.6453 388.196 34.2383 388.703 33.9558C389.218 33.6651 389.807 33.5197 390.472 33.5197C391.12 33.5197 391.693 33.661 392.191 33.9434C392.69 34.2258 393.072 34.6162 393.338 35.1146C393.612 35.6047 393.749 36.1613 393.749 36.7843ZM392.578 36.5475C392.578 36.1156 392.482 35.7459 392.291 35.4386C392.1 35.1229 391.838 34.8862 391.506 34.7284C391.182 34.5622 390.821 34.4792 390.422 34.4792C389.849 34.4792 389.359 34.6619 388.952 35.0274C388.553 35.3929 388.325 35.8996 388.266 36.5475H392.578ZM395.607 40.5347C395.391 40.5347 395.208 40.46 395.059 40.3104C394.909 40.1609 394.834 39.9782 394.834 39.7622C394.834 39.5462 394.909 39.3635 395.059 39.214C395.208 39.0644 395.391 38.9897 395.607 38.9897C395.814 38.9897 395.989 39.0644 396.13 39.214C396.28 39.3635 396.354 39.5462 396.354 39.7622C396.354 39.9782 396.28 40.1609 396.13 40.3104C395.989 40.46 395.814 40.5347 395.607 40.5347ZM397.438 37.0335C397.438 36.3274 397.579 35.7127 397.862 35.1894C398.144 34.6578 398.534 34.2466 399.033 33.9558C399.54 33.6651 400.117 33.5197 400.765 33.5197C401.604 33.5197 402.293 33.7233 402.833 34.1303C403.381 34.5373 403.743 35.1022 403.917 35.8248H402.696C402.58 35.4095 402.351 35.0814 402.011 34.8405C401.678 34.5996 401.263 34.4792 400.765 34.4792C400.117 34.4792 399.594 34.7034 399.195 35.152C398.796 35.5923 398.597 36.2194 398.597 37.0335C398.597 37.8558 398.796 38.4913 399.195 38.9398C399.594 39.3884 400.117 39.6127 400.765 39.6127C401.263 39.6127 401.678 39.4964 402.011 39.2638C402.343 39.0312 402.571 38.6989 402.696 38.267H403.917C403.734 38.9648 403.369 39.5255 402.821 39.9491C402.272 40.3644 401.587 40.5721 400.765 40.5721C400.117 40.5721 399.54 40.4267 399.033 40.136C398.534 39.8453 398.144 39.4341 397.862 38.9025C397.579 38.3708 397.438 37.7478 397.438 37.0335ZM408.408 40.5721C407.768 40.5721 407.187 40.4267 406.664 40.136C406.149 39.8453 405.742 39.4341 405.443 38.9025C405.152 38.3625 405.006 37.7395 405.006 37.0335C405.006 36.3357 405.156 35.721 405.455 35.1894C405.762 34.6494 406.178 34.2383 406.701 33.9558C407.224 33.6651 407.81 33.5197 408.458 33.5197C409.106 33.5197 409.691 33.6651 410.215 33.9558C410.738 34.2383 411.149 34.6453 411.448 35.1769C411.756 35.7085 411.909 36.3274 411.909 37.0335C411.909 37.7395 411.751 38.3625 411.436 38.9025C411.128 39.4341 410.709 39.8453 410.177 40.136C409.646 40.4267 409.056 40.5721 408.408 40.5721ZM408.408 39.5753C408.815 39.5753 409.197 39.4798 409.554 39.2887C409.912 39.0977 410.198 38.8111 410.414 38.429C410.638 38.0469 410.75 37.5817 410.75 37.0335C410.75 36.4852 410.642 36.02 410.427 35.6379C410.211 35.2558 409.928 34.9734 409.579 34.7907C409.23 34.5996 408.852 34.5041 408.445 34.5041C408.03 34.5041 407.648 34.5996 407.299 34.7907C406.958 34.9734 406.684 35.2558 406.477 35.6379C406.269 36.02 406.165 36.4852 406.165 37.0335C406.165 37.59 406.265 38.0593 406.464 38.4414C406.672 38.8235 406.946 39.1101 407.287 39.3012C407.627 39.4839 408.001 39.5753 408.408 39.5753ZM421.611 33.5073C422.143 33.5073 422.616 33.6194 423.032 33.8437C423.447 34.0597 423.775 34.3878 424.016 34.828C424.257 35.2683 424.377 35.8041 424.377 36.4354V40.46H423.256V36.5974C423.256 35.9162 423.086 35.397 422.745 35.0399C422.413 34.6744 421.96 34.4916 421.387 34.4916C420.797 34.4916 420.328 34.6827 419.979 35.0648C419.63 35.4386 419.456 35.9827 419.456 36.697V40.46H418.334V36.5974C418.334 35.9162 418.164 35.397 417.823 35.0399C417.491 34.6744 417.038 34.4916 416.465 34.4916C415.875 34.4916 415.406 34.6827 415.057 35.0648C414.708 35.4386 414.534 35.9827 414.534 36.697V40.46H413.4V33.6319H414.534V34.6162C414.758 34.259 415.057 33.9849 415.431 33.7939C415.813 33.6028 416.233 33.5073 416.69 33.5073C417.263 33.5073 417.769 33.636 418.21 33.8935C418.65 34.151 418.978 34.529 419.194 35.0274C419.385 34.5456 419.701 34.1718 420.141 33.906C420.581 33.6402 421.071 33.5073 421.611 33.5073Z" fill="#94A3B8"/>
</g>
<defs>
<filter id="filter0_dd_140_807" x="0" y="0" width="705" height="469" filterUnits="userSpaceOnUse" color-interpolation-filters="sRGB">
<feFlood flood-opacity="0" result="BackgroundImageFix"/>
<feColorMatrix in="SourceAlpha" type="matrix" values="0 0 0 0 0 0 0 0 0 0 0 0 0 0 0 0 0 0 127 0" result="hardAlpha"/>
<feOffset/>
<feGaussianBlur stdDeviation="7.5"/>
<feComposite in2="hardAlpha" operator="out"/>
<feColorMatrix type="matrix" values="0 0 0 0 0 0 0 0 0 0 0 0 0 0 0 0 0 0 0.07 0"/>
<feBlend mode="normal" in2="BackgroundImageFix" result="effect1_dropShadow_140_807"/>
<feColorMatrix in="SourceAlpha" type="matrix" values="0 0 0 0 0 0 0 0 0 0 0 0 0 0 0 0 0 0 127 0" result="hardAlpha"/>
<feMorphology radius="12" operator="erode" in="SourceAlpha" result="effect2_dropShadow_140_807"/>
<feOffset dy="25"/>
<feGaussianBlur stdDeviation="25"/>
<feColorMatrix type="matrix" values="0 0 0 0 0 0 0 0 0 0 0 0 0 0 0 0 0 0 0.25 0"/>
<feBlend mode="normal" in2="effect1_dropShadow_140_807" result="effect2_dropShadow_140_807"/>
<feBlend mode="normal" in="SourceGraphic" in2="effect2_dropShadow_140_807" result="shape"/>
</filter>
</defs>
</svg>
