<svg width="64" height="65" viewBox="0 0 64 65" fill="none" xmlns="http://www.w3.org/2000/svg">
<circle cx="32" cy="32.5" r="30" fill="#E1DFF6" stroke="#42387F" stroke-width="4"/>
<path d="M23.3124 30.6037C23.0773 30.6037 22.8532 30.5056 22.6934 30.3331L21.5684 29.118C21.2519 28.7761 21.2723 28.2422 21.6139 27.9258C21.9562 27.6096 22.4896 27.6294 22.8065 27.9716L23.3124 28.5179L24.3808 27.3641C24.6978 27.0218 25.2312 27.0023 25.5734 27.3182C25.9151 27.6346 25.9354 28.1685 25.619 28.5105L23.9315 30.3331C23.7717 30.5056 23.5475 30.6037 23.3124 30.6037Z" fill="#42387F"/>
<path d="M39.0625 29.9961H27.8125C27.3467 29.9961 26.9688 29.6184 26.9688 29.1523C26.9688 28.6863 27.3467 28.3086 27.8125 28.3086H39.0625C39.5283 28.3086 39.9062 28.6863 39.9062 29.1523C39.9062 29.6184 39.5283 29.9961 39.0625 29.9961Z" fill="#42387F"/>
<path d="M23.3124 37.2867C23.0773 37.2867 22.8532 37.1886 22.6934 37.0161L21.5684 35.801C21.2519 35.4591 21.2723 34.9251 21.6139 34.6087C21.9562 34.2926 22.4896 34.3118 22.8065 34.6546L23.3124 35.2009L24.3808 34.0471C24.6978 33.7048 25.2312 33.6853 25.5734 34.0012C25.9151 34.3176 25.9354 34.8515 25.619 35.1935L23.9315 37.0161C23.7717 37.1886 23.5475 37.2867 23.3124 37.2867Z" fill="#42387F"/>
<path d="M35.6875 36.6788H27.8125C27.3467 36.6788 26.9688 36.3011 26.9688 35.835C26.9688 35.3689 27.3467 34.9913 27.8125 34.9913H35.6875C36.1533 34.9913 36.5312 35.3689 36.5312 35.835C36.5312 36.3011 36.1533 36.6788 35.6875 36.6788Z" fill="#42387F"/>
<path d="M23.3124 43.9686C23.0773 43.9686 22.8532 43.8706 22.6934 43.6981L21.5684 42.483C21.2519 42.1411 21.2723 41.6071 21.6139 41.2907C21.9562 40.9746 22.4896 40.9941 22.8065 41.3366L23.3124 41.8829L24.3808 40.729C24.6978 40.3868 25.2312 40.3671 25.5734 40.6832C25.9151 40.9996 25.9354 41.5335 25.619 41.8755L23.9315 43.6981C23.7717 43.8706 23.5475 43.9686 23.3124 43.9686Z" fill="#42387F"/>
<path d="M37.9375 43.3612H27.8125C27.3467 43.3612 26.9688 42.9835 26.9688 42.5175C26.9688 42.0514 27.3467 41.6737 27.8125 41.6737H37.9375C38.4033 41.6737 38.7812 42.0514 38.7812 42.5175C38.7812 42.9835 38.4033 43.3612 37.9375 43.3612Z" fill="#42387F"/>
<path d="M37.9375 49.0312H20.5C19.1042 49.0312 17.9688 47.8958 17.9688 46.5V21.75C17.9688 20.3542 19.1042 19.2188 20.5 19.2188H27.6477C27.7894 18.7197 28.0558 18.2599 28.4321 17.8781C29.0303 17.2887 29.806 16.9688 30.625 16.9688C31.444 16.9688 32.2197 17.2887 32.8091 17.8696C33.1909 18.2569 33.46 18.7189 33.6017 19.2188H40.75C42.1458 19.2188 43.2812 20.3542 43.2812 21.75V31.8582C43.2812 32.3243 42.9033 32.702 42.4375 32.702C41.9717 32.702 41.5938 32.3243 41.5938 31.8582V21.75C41.5938 21.2847 41.2153 20.9062 40.75 20.9062H32.875C32.4092 20.9062 32.0312 20.5286 32.0312 20.0625C32.0312 19.6895 31.884 19.3344 31.616 19.063C31.0897 18.5445 30.1691 18.5359 29.6252 19.0715C29.366 19.3344 29.2188 19.6895 29.2188 20.0625C29.2188 20.5286 28.8408 20.9062 28.375 20.9062H20.5C20.0347 20.9062 19.6562 21.2847 19.6562 21.75V46.5C19.6562 46.9653 20.0347 47.3438 20.5 47.3438H37.9375C38.4033 47.3438 38.7812 47.7214 38.7812 48.1875C38.7812 48.6536 38.4033 49.0312 37.9375 49.0312Z" fill="#42387F"/>
<path d="M34 24.2812H27.25C25.8542 24.2812 24.7188 23.1458 24.7188 21.75V20.0625C24.7188 19.5964 25.0967 19.2188 25.5625 19.2188C26.0283 19.2188 26.4062 19.5964 26.4062 20.0625V21.75C26.4062 22.2153 26.7847 22.5938 27.25 22.5938H34C34.4653 22.5938 34.8438 22.2153 34.8438 21.75V20.0625C34.8438 19.5964 35.2217 19.2188 35.6875 19.2188C36.1533 19.2188 36.5312 19.5964 36.5312 20.0625V21.75C36.5312 23.1458 35.3958 24.2812 34 24.2812Z" fill="#42387F"/>
<path d="M46.8125 49.031C46.6504 49.031 46.489 48.9843 46.3483 48.892L44 47.3459L41.6517 48.892C41.3919 49.0628 41.0601 49.0774 40.7871 48.9299C40.514 48.7827 40.3438 48.4976 40.3438 48.1872V41.1727C40.3438 40.7066 40.7217 40.329 41.1875 40.329C41.6533 40.329 42.0312 40.7066 42.0312 41.1727V46.6217L43.5358 45.631C43.8182 45.4459 44.1818 45.4459 44.4642 45.631L45.9687 46.6217V41.1727C45.9687 40.7066 46.3467 40.329 46.8125 40.329C47.2783 40.329 47.6562 40.7066 47.6562 41.1727V48.1872C47.6562 48.4976 47.486 48.7827 47.2129 48.9299C47.0877 48.9975 46.9498 49.031 46.8125 49.031Z" fill="#42387F"/>
<path d="M43.9985 42.8437C40.6713 42.8437 37.9648 40.137 37.9648 36.8101C37.9648 33.4831 40.6713 30.7764 43.9985 30.7764C47.3257 30.7764 50.0322 33.4831 50.0322 36.8101C50.0322 40.137 47.3257 42.8437 43.9985 42.8437ZM43.9985 32.4639C41.6019 32.4639 39.6523 34.4137 39.6523 36.8101C39.6523 39.2064 41.6019 41.1562 43.9985 41.1562C46.3952 41.1562 48.3447 39.2064 48.3447 36.8101C48.3447 34.4137 46.3952 32.4639 43.9985 32.4639Z" fill="#42387F"/>
<path d="M43.4356 39.3416C43.2125 39.3416 42.9977 39.2532 42.839 39.0944L41.1515 37.4069C40.8219 37.0776 40.8219 36.5431 41.1515 36.2138C41.4811 35.8842 42.015 35.8842 42.3446 36.2138L43.379 37.2479L45.5999 34.5826C45.8987 34.2242 46.431 34.1761 46.788 34.4747C47.1462 34.773 47.1945 35.305 46.8962 35.6631L44.0837 39.0381C43.9321 39.2202 43.7107 39.3301 43.474 39.3408C43.4608 39.3413 43.4482 39.3416 43.4356 39.3416Z" fill="#42387F"/>
</svg>
