<svg width="44" height="44" viewBox="0 0 44 44" fill="none" xmlns="http://www.w3.org/2000/svg">
<g clip-path="url(#clip0_2003_14223)">
<path d="M19.25 0H17.875C16.781 0 15.7318 0.434597 14.9582 1.20818C14.1846 1.98177 13.75 3.03098 13.75 4.125C13.75 5.21902 14.1846 6.26823 14.9582 7.04182C15.7318 7.8154 16.781 8.25 17.875 8.25H19.25V0Z" fill="#FBBC04"/>
<path d="M22 0H35.75V8.25H22V0Z" fill="#FBBC04"/>
<path d="M43.2396 2.89427L38.5 0.525146V7.72465L43.2396 5.3624C43.4684 5.24836 43.6609 5.07279 43.7955 4.8554C43.93 4.63802 44.0013 4.38743 44.0013 4.13177C44.0013 3.87612 43.93 3.62553 43.7955 3.40814C43.6609 3.19076 43.4684 3.01518 43.2396 2.90115V2.89427Z" fill="#FBBC04"/>
<path d="M8.25 2.75C6.06196 2.75 3.96354 3.61919 2.41637 5.16637C0.869194 6.71354 0 8.81196 0 11L0 30.25C0 28.062 0.869194 25.9635 2.41637 24.4164C3.96354 22.8692 6.06196 22 8.25 22V2.75Z" fill="#42387F"/>
<path d="M38.5 38.5H22V42.625C22 42.9897 22.1449 43.3394 22.4027 43.5973C22.6606 43.8551 23.0103 44 23.375 44H38.5C39.2293 44 39.9288 43.7103 40.4445 43.1945C40.9603 42.6788 41.25 41.9793 41.25 41.25C41.25 40.5207 40.9603 39.8212 40.4445 39.3055C39.9288 38.7897 39.2293 38.5 38.5 38.5Z" fill="#42387F"/>
<path d="M38.5005 11H11.0005V22.2365C11.0007 22.5666 10.9358 22.8936 10.8095 23.1986C10.6833 23.5036 10.4981 23.7808 10.2647 24.0142C10.0313 24.2477 9.75411 24.4328 9.44907 24.559C9.14404 24.6853 8.81711 24.7502 8.48699 24.75C7.09102 24.7268 5.73573 25.2203 4.68165 26.1358C3.62756 27.0513 2.94907 28.3242 2.77661 29.7096C2.70117 30.4738 2.78657 31.2453 3.02733 31.9744C3.26809 32.7036 3.65886 33.3743 4.1745 33.9433C4.69014 34.5123 5.31921 34.967 6.02121 35.2782C6.72322 35.5893 7.48261 35.7501 8.25049 35.75H38.5005C39.9592 35.75 41.3581 36.3295 42.3896 37.3609C43.421 38.3924 44.0005 39.7913 44.0005 41.25V16.5C44.0005 15.0413 43.421 13.6424 42.3896 12.6109C41.3581 11.5795 39.9592 11 38.5005 11ZM30.2505 31.625H16.5005C16.1358 31.625 15.7861 31.4801 15.5282 31.2223C15.2704 30.9644 15.1255 30.6147 15.1255 30.25C15.1255 29.8853 15.2704 29.5356 15.5282 29.2777C15.7861 29.0199 16.1358 28.875 16.5005 28.875H30.2505C30.6152 28.875 30.9649 29.0199 31.2228 29.2777C31.4806 29.5356 31.6255 29.8853 31.6255 30.25C31.6255 30.6147 31.4806 30.9644 31.2228 31.2223C30.9649 31.4801 30.6152 31.625 30.2505 31.625ZM15.1255 23.375C15.1255 23.0103 15.2704 22.6606 15.5282 22.4027C15.7861 22.1449 16.1358 22 16.5005 22H23.3755C23.7402 22 24.0899 22.1449 24.3478 22.4027C24.6056 22.6606 24.7505 23.0103 24.7505 23.375C24.7505 23.7397 24.6056 24.0894 24.3478 24.3473C24.0899 24.6051 23.7402 24.75 23.3755 24.75H16.5005C16.1358 24.75 15.7861 24.6051 15.5282 24.3473C15.2704 24.0894 15.1255 23.7397 15.1255 23.375ZM37.1255 17.875H16.5005C16.1358 17.875 15.7861 17.7301 15.5282 17.4723C15.2704 17.2144 15.1255 16.8647 15.1255 16.5C15.1255 16.1353 15.2704 15.7856 15.5282 15.5277C15.7861 15.2699 16.1358 15.125 16.5005 15.125H37.1255C37.4902 15.125 37.8399 15.2699 38.0978 15.5277C38.3556 15.7856 38.5005 16.1353 38.5005 16.5C38.5005 16.8647 38.3556 17.2144 38.0978 17.4723C37.8399 17.7301 37.4902 17.875 37.1255 17.875Z" fill="#DCDCDC"/>
</g>
<defs>
<clipPath id="clip0_2003_14223">
<rect width="44" height="44" fill="white"/>
</clipPath>
</defs>
</svg>
