<svg width="33" height="33" viewBox="0 0 33 33" fill="none" xmlns="http://www.w3.org/2000/svg">
<circle cx="16.5" cy="16.561" r="15" fill="#FFEDBA" stroke="#FBBC04" stroke-width="2"/>
<path d="M22.8996 23.7609V22.1609C22.8996 21.3122 22.5625 20.4983 21.9624 19.8982C21.3622 19.2981 20.5483 18.9609 19.6996 18.9609H13.2996C12.4509 18.9609 11.637 19.2981 11.0369 19.8982C10.4368 20.4983 10.0996 21.3122 10.0996 22.1609V23.7609" stroke="#FBBC04" stroke-width="1.6" stroke-linecap="round" stroke-linejoin="round"/>
<path d="M16.5008 15.7608C18.2681 15.7608 19.7008 14.3282 19.7008 12.5608C19.7008 10.7935 18.2681 9.36084 16.5008 9.36084C14.7335 9.36084 13.3008 10.7935 13.3008 12.5608C13.3008 14.3282 14.7335 15.7608 16.5008 15.7608Z" stroke="#FBBC04" stroke-width="1.6" stroke-linecap="round" stroke-linejoin="round"/>
</svg>
