<svg width="1452" height="559" viewBox="0 0 1452 559" fill="none" xmlns="http://www.w3.org/2000/svg">
<path d="M401.335 118.487C228.676 128.463 118.89 177.156 0 296.491V559H1452L1442.53 220.974C1408.51 183.942 1383.48 166.115 1336.52 145.458C1168.54 71.5616 1086.15 318.329 901.111 323.461C688.607 329.354 613.537 106.227 401.335 118.487Z" fill="#F2F6FA" fill-opacity="0.72"/>
<path fill-rule="evenodd" clip-rule="evenodd" d="M737.073 49.8779C699.334 63.5829 639.363 97.9333 616.728 123.346C582.259 162.043 575.778 205.218 585.189 252.929C602.848 342.451 689.43 379.752 736.534 362.638C780.53 346.652 803.076 324.177 819.779 277.51C836.482 230.843 848.611 198.066 878.171 168.669C907.292 139.707 915.339 112.808 907.302 90.6898C898.61 66.7672 879.2 47.3062 847.429 39.5243C815.017 31.5852 774.802 36.1765 737.073 49.8779Z" fill="#FB923C"/>
<path d="M1156.93 364.6V361.267C1156.93 361.09 1156.86 360.92 1156.74 360.795C1156.61 360.67 1156.44 360.6 1156.27 360.6C1156.09 360.6 1155.92 360.67 1155.79 360.795C1155.67 360.92 1155.6 361.09 1155.6 361.267V364.6H1152.27C1152.09 364.6 1151.92 364.67 1151.79 364.795C1151.67 364.92 1151.6 365.09 1151.6 365.267C1151.6 365.444 1151.67 365.613 1151.79 365.738C1151.92 365.863 1152.09 365.933 1152.27 365.933H1155.6V369.267C1155.6 369.444 1155.67 369.613 1155.79 369.738C1155.92 369.863 1156.09 369.933 1156.27 369.933C1156.44 369.933 1156.61 369.863 1156.74 369.738C1156.86 369.613 1156.93 369.444 1156.93 369.267V365.933H1160.27C1160.44 365.933 1160.61 365.863 1160.74 365.738C1160.86 365.613 1160.93 365.444 1160.93 365.267C1160.93 365.09 1160.86 364.92 1160.74 364.795C1160.61 364.67 1160.44 364.6 1160.27 364.6H1156.93Z" fill="#E2E8F0"/>
<path d="M1188.93 364.6V361.267C1188.93 361.09 1188.86 360.92 1188.74 360.795C1188.61 360.67 1188.44 360.6 1188.27 360.6C1188.09 360.6 1187.92 360.67 1187.79 360.795C1187.67 360.92 1187.6 361.09 1187.6 361.267V364.6H1184.27C1184.09 364.6 1183.92 364.67 1183.79 364.795C1183.67 364.92 1183.6 365.09 1183.6 365.267C1183.6 365.444 1183.67 365.613 1183.79 365.738C1183.92 365.863 1184.09 365.933 1184.27 365.933H1187.6V369.267C1187.6 369.444 1187.67 369.613 1187.79 369.738C1187.92 369.863 1188.09 369.933 1188.27 369.933C1188.44 369.933 1188.61 369.863 1188.74 369.738C1188.86 369.613 1188.93 369.444 1188.93 369.267V365.933H1192.27C1192.44 365.933 1192.61 365.863 1192.74 365.738C1192.86 365.613 1192.93 365.444 1192.93 365.267C1192.93 365.09 1192.86 364.92 1192.74 364.795C1192.61 364.67 1192.44 364.6 1192.27 364.6H1188.93Z" fill="#E2E8F0"/>
<path d="M1220.93 364.6V361.267C1220.93 361.09 1220.86 360.92 1220.74 360.795C1220.61 360.67 1220.44 360.6 1220.27 360.6C1220.09 360.6 1219.92 360.67 1219.79 360.795C1219.67 360.92 1219.6 361.09 1219.6 361.267V364.6H1216.27C1216.09 364.6 1215.92 364.67 1215.79 364.795C1215.67 364.92 1215.6 365.09 1215.6 365.267C1215.6 365.444 1215.67 365.613 1215.79 365.738C1215.92 365.863 1216.09 365.933 1216.27 365.933H1219.6V369.267C1219.6 369.444 1219.67 369.613 1219.79 369.738C1219.92 369.863 1220.09 369.933 1220.27 369.933C1220.44 369.933 1220.61 369.863 1220.74 369.738C1220.86 369.613 1220.93 369.444 1220.93 369.267V365.933H1224.27C1224.44 365.933 1224.61 365.863 1224.74 365.738C1224.86 365.613 1224.93 365.444 1224.93 365.267C1224.93 365.09 1224.86 364.92 1224.74 364.795C1224.61 364.67 1224.44 364.6 1224.27 364.6H1220.93Z" fill="#E2E8F0"/>
<path d="M1252.93 364.6V361.267C1252.93 361.09 1252.86 360.92 1252.74 360.795C1252.61 360.67 1252.44 360.6 1252.27 360.6C1252.09 360.6 1251.92 360.67 1251.79 360.795C1251.67 360.92 1251.6 361.09 1251.6 361.267V364.6H1248.27C1248.09 364.6 1247.92 364.67 1247.79 364.795C1247.67 364.92 1247.6 365.09 1247.6 365.267C1247.6 365.444 1247.67 365.613 1247.79 365.738C1247.92 365.863 1248.09 365.933 1248.27 365.933H1251.6V369.267C1251.6 369.444 1251.67 369.613 1251.79 369.738C1251.92 369.863 1252.09 369.933 1252.27 369.933C1252.44 369.933 1252.61 369.863 1252.74 369.738C1252.86 369.613 1252.93 369.444 1252.93 369.267V365.933H1256.27C1256.44 365.933 1256.61 365.863 1256.74 365.738C1256.86 365.613 1256.93 365.444 1256.93 365.267C1256.93 365.09 1256.86 364.92 1256.74 364.795C1256.61 364.67 1256.44 364.6 1256.27 364.6H1252.93Z" fill="#E2E8F0"/>
<path d="M1284.93 364.6V361.267C1284.93 361.09 1284.86 360.92 1284.74 360.795C1284.61 360.67 1284.44 360.6 1284.27 360.6C1284.09 360.6 1283.92 360.67 1283.79 360.795C1283.67 360.92 1283.6 361.09 1283.6 361.267V364.6H1280.27C1280.09 364.6 1279.92 364.67 1279.79 364.795C1279.67 364.92 1279.6 365.09 1279.6 365.267C1279.6 365.444 1279.67 365.613 1279.79 365.738C1279.92 365.863 1280.09 365.933 1280.27 365.933H1283.6V369.267C1283.6 369.444 1283.67 369.613 1283.79 369.738C1283.92 369.863 1284.09 369.933 1284.27 369.933C1284.44 369.933 1284.61 369.863 1284.74 369.738C1284.86 369.613 1284.93 369.444 1284.93 369.267V365.933H1288.27C1288.44 365.933 1288.61 365.863 1288.74 365.738C1288.86 365.613 1288.93 365.444 1288.93 365.267C1288.93 365.09 1288.86 364.92 1288.74 364.795C1288.61 364.67 1288.44 364.6 1288.27 364.6H1284.93Z" fill="#E2E8F0"/>
<path d="M1316.93 364.6V361.267C1316.93 361.09 1316.86 360.92 1316.74 360.795C1316.61 360.67 1316.44 360.6 1316.27 360.6C1316.09 360.6 1315.92 360.67 1315.79 360.795C1315.67 360.92 1315.6 361.09 1315.6 361.267V364.6H1312.27C1312.09 364.6 1311.92 364.67 1311.79 364.795C1311.67 364.92 1311.6 365.09 1311.6 365.267C1311.6 365.444 1311.67 365.613 1311.79 365.738C1311.92 365.863 1312.09 365.933 1312.27 365.933H1315.6V369.267C1315.6 369.444 1315.67 369.613 1315.79 369.738C1315.92 369.863 1316.09 369.933 1316.27 369.933C1316.44 369.933 1316.61 369.863 1316.74 369.738C1316.86 369.613 1316.93 369.444 1316.93 369.267V365.933H1320.27C1320.44 365.933 1320.61 365.863 1320.74 365.738C1320.86 365.613 1320.93 365.444 1320.93 365.267C1320.93 365.09 1320.86 364.92 1320.74 364.795C1320.61 364.67 1320.44 364.6 1320.27 364.6H1316.93Z" fill="#E2E8F0"/>
<path d="M1156.93 396.6V393.267C1156.93 393.09 1156.86 392.92 1156.74 392.795C1156.61 392.67 1156.44 392.6 1156.27 392.6C1156.09 392.6 1155.92 392.67 1155.79 392.795C1155.67 392.92 1155.6 393.09 1155.6 393.267V396.6H1152.27C1152.09 396.6 1151.92 396.67 1151.79 396.795C1151.67 396.92 1151.6 397.09 1151.6 397.267C1151.6 397.444 1151.67 397.613 1151.79 397.738C1151.92 397.863 1152.09 397.933 1152.27 397.933H1155.6V401.267C1155.6 401.444 1155.67 401.613 1155.79 401.738C1155.92 401.863 1156.09 401.933 1156.27 401.933C1156.44 401.933 1156.61 401.863 1156.74 401.738C1156.86 401.613 1156.93 401.444 1156.93 401.267V397.933H1160.27C1160.44 397.933 1160.61 397.863 1160.74 397.738C1160.86 397.613 1160.93 397.444 1160.93 397.267C1160.93 397.09 1160.86 396.92 1160.74 396.795C1160.61 396.67 1160.44 396.6 1160.27 396.6H1156.93Z" fill="#E2E8F0"/>
<path d="M1188.93 396.6V393.267C1188.93 393.09 1188.86 392.92 1188.74 392.795C1188.61 392.67 1188.44 392.6 1188.27 392.6C1188.09 392.6 1187.92 392.67 1187.79 392.795C1187.67 392.92 1187.6 393.09 1187.6 393.267V396.6H1184.27C1184.09 396.6 1183.92 396.67 1183.79 396.795C1183.67 396.92 1183.6 397.09 1183.6 397.267C1183.6 397.444 1183.67 397.613 1183.79 397.738C1183.92 397.863 1184.09 397.933 1184.27 397.933H1187.6V401.267C1187.6 401.444 1187.67 401.613 1187.79 401.738C1187.92 401.863 1188.09 401.933 1188.27 401.933C1188.44 401.933 1188.61 401.863 1188.74 401.738C1188.86 401.613 1188.93 401.444 1188.93 401.267V397.933H1192.27C1192.44 397.933 1192.61 397.863 1192.74 397.738C1192.86 397.613 1192.93 397.444 1192.93 397.267C1192.93 397.09 1192.86 396.92 1192.74 396.795C1192.61 396.67 1192.44 396.6 1192.27 396.6H1188.93Z" fill="#E2E8F0"/>
<path d="M1220.93 396.6V393.267C1220.93 393.09 1220.86 392.92 1220.74 392.795C1220.61 392.67 1220.44 392.6 1220.27 392.6C1220.09 392.6 1219.92 392.67 1219.79 392.795C1219.67 392.92 1219.6 393.09 1219.6 393.267V396.6H1216.27C1216.09 396.6 1215.92 396.67 1215.79 396.795C1215.67 396.92 1215.6 397.09 1215.6 397.267C1215.6 397.444 1215.67 397.613 1215.79 397.738C1215.92 397.863 1216.09 397.933 1216.27 397.933H1219.6V401.267C1219.6 401.444 1219.67 401.613 1219.79 401.738C1219.92 401.863 1220.09 401.933 1220.27 401.933C1220.44 401.933 1220.61 401.863 1220.74 401.738C1220.86 401.613 1220.93 401.444 1220.93 401.267V397.933H1224.27C1224.44 397.933 1224.61 397.863 1224.74 397.738C1224.86 397.613 1224.93 397.444 1224.93 397.267C1224.93 397.09 1224.86 396.92 1224.74 396.795C1224.61 396.67 1224.44 396.6 1224.27 396.6H1220.93Z" fill="#E2E8F0"/>
<path d="M1252.93 396.6V393.267C1252.93 393.09 1252.86 392.92 1252.74 392.795C1252.61 392.67 1252.44 392.6 1252.27 392.6C1252.09 392.6 1251.92 392.67 1251.79 392.795C1251.67 392.92 1251.6 393.09 1251.6 393.267V396.6H1248.27C1248.09 396.6 1247.92 396.67 1247.79 396.795C1247.67 396.92 1247.6 397.09 1247.6 397.267C1247.6 397.444 1247.67 397.613 1247.79 397.738C1247.92 397.863 1248.09 397.933 1248.27 397.933H1251.6V401.267C1251.6 401.444 1251.67 401.613 1251.79 401.738C1251.92 401.863 1252.09 401.933 1252.27 401.933C1252.44 401.933 1252.61 401.863 1252.74 401.738C1252.86 401.613 1252.93 401.444 1252.93 401.267V397.933H1256.27C1256.44 397.933 1256.61 397.863 1256.74 397.738C1256.86 397.613 1256.93 397.444 1256.93 397.267C1256.93 397.09 1256.86 396.92 1256.74 396.795C1256.61 396.67 1256.44 396.6 1256.27 396.6H1252.93Z" fill="#E2E8F0"/>
<path d="M1284.93 396.6V393.267C1284.93 393.09 1284.86 392.92 1284.74 392.795C1284.61 392.67 1284.44 392.6 1284.27 392.6C1284.09 392.6 1283.92 392.67 1283.79 392.795C1283.67 392.92 1283.6 393.09 1283.6 393.267V396.6H1280.27C1280.09 396.6 1279.92 396.67 1279.79 396.795C1279.67 396.92 1279.6 397.09 1279.6 397.267C1279.6 397.444 1279.67 397.613 1279.79 397.738C1279.92 397.863 1280.09 397.933 1280.27 397.933H1283.6V401.267C1283.6 401.444 1283.67 401.613 1283.79 401.738C1283.92 401.863 1284.09 401.933 1284.27 401.933C1284.44 401.933 1284.61 401.863 1284.74 401.738C1284.86 401.613 1284.93 401.444 1284.93 401.267V397.933H1288.27C1288.44 397.933 1288.61 397.863 1288.74 397.738C1288.86 397.613 1288.93 397.444 1288.93 397.267C1288.93 397.09 1288.86 396.92 1288.74 396.795C1288.61 396.67 1288.44 396.6 1288.27 396.6H1284.93Z" fill="#2563EB"/>
<path d="M1316.93 396.6V393.267C1316.93 393.09 1316.86 392.92 1316.74 392.795C1316.61 392.67 1316.44 392.6 1316.27 392.6C1316.09 392.6 1315.92 392.67 1315.79 392.795C1315.67 392.92 1315.6 393.09 1315.6 393.267V396.6H1312.27C1312.09 396.6 1311.92 396.67 1311.79 396.795C1311.67 396.92 1311.6 397.09 1311.6 397.267C1311.6 397.444 1311.67 397.613 1311.79 397.738C1311.92 397.863 1312.09 397.933 1312.27 397.933H1315.6V401.267C1315.6 401.444 1315.67 401.613 1315.79 401.738C1315.92 401.863 1316.09 401.933 1316.27 401.933C1316.44 401.933 1316.61 401.863 1316.74 401.738C1316.86 401.613 1316.93 401.444 1316.93 401.267V397.933H1320.27C1320.44 397.933 1320.61 397.863 1320.74 397.738C1320.86 397.613 1320.93 397.444 1320.93 397.267C1320.93 397.09 1320.86 396.92 1320.74 396.795C1320.61 396.67 1320.44 396.6 1320.27 396.6H1316.93Z" fill="#E2E8F0"/>
<path d="M1156.93 428.6V425.267C1156.93 425.09 1156.86 424.92 1156.74 424.795C1156.61 424.67 1156.44 424.6 1156.27 424.6C1156.09 424.6 1155.92 424.67 1155.79 424.795C1155.67 424.92 1155.6 425.09 1155.6 425.267V428.6H1152.27C1152.09 428.6 1151.92 428.67 1151.79 428.795C1151.67 428.92 1151.6 429.09 1151.6 429.267C1151.6 429.444 1151.67 429.613 1151.79 429.738C1151.92 429.863 1152.09 429.933 1152.27 429.933H1155.6V433.267C1155.6 433.444 1155.67 433.613 1155.79 433.738C1155.92 433.863 1156.09 433.933 1156.27 433.933C1156.44 433.933 1156.61 433.863 1156.74 433.738C1156.86 433.613 1156.93 433.444 1156.93 433.267V429.933H1160.27C1160.44 429.933 1160.61 429.863 1160.74 429.738C1160.86 429.613 1160.93 429.444 1160.93 429.267C1160.93 429.09 1160.86 428.92 1160.74 428.795C1160.61 428.67 1160.44 428.6 1160.27 428.6H1156.93Z" fill="#E2E8F0"/>
<path d="M1188.93 428.6V425.267C1188.93 425.09 1188.86 424.92 1188.74 424.795C1188.61 424.67 1188.44 424.6 1188.27 424.6C1188.09 424.6 1187.92 424.67 1187.79 424.795C1187.67 424.92 1187.6 425.09 1187.6 425.267V428.6H1184.27C1184.09 428.6 1183.92 428.67 1183.79 428.795C1183.67 428.92 1183.6 429.09 1183.6 429.267C1183.6 429.444 1183.67 429.613 1183.79 429.738C1183.92 429.863 1184.09 429.933 1184.27 429.933H1187.6V433.267C1187.6 433.444 1187.67 433.613 1187.79 433.738C1187.92 433.863 1188.09 433.933 1188.27 433.933C1188.44 433.933 1188.61 433.863 1188.74 433.738C1188.86 433.613 1188.93 433.444 1188.93 433.267V429.933H1192.27C1192.44 429.933 1192.61 429.863 1192.74 429.738C1192.86 429.613 1192.93 429.444 1192.93 429.267C1192.93 429.09 1192.86 428.92 1192.74 428.795C1192.61 428.67 1192.44 428.6 1192.27 428.6H1188.93Z" fill="#E2E8F0"/>
<path d="M1220.93 428.6V425.267C1220.93 425.09 1220.86 424.92 1220.74 424.795C1220.61 424.67 1220.44 424.6 1220.27 424.6C1220.09 424.6 1219.92 424.67 1219.79 424.795C1219.67 424.92 1219.6 425.09 1219.6 425.267V428.6H1216.27C1216.09 428.6 1215.92 428.67 1215.79 428.795C1215.67 428.92 1215.6 429.09 1215.6 429.267C1215.6 429.444 1215.67 429.613 1215.79 429.738C1215.92 429.863 1216.09 429.933 1216.27 429.933H1219.6V433.267C1219.6 433.444 1219.67 433.613 1219.79 433.738C1219.92 433.863 1220.09 433.933 1220.27 433.933C1220.44 433.933 1220.61 433.863 1220.74 433.738C1220.86 433.613 1220.93 433.444 1220.93 433.267V429.933H1224.27C1224.44 429.933 1224.61 429.863 1224.74 429.738C1224.86 429.613 1224.93 429.444 1224.93 429.267C1224.93 429.09 1224.86 428.92 1224.74 428.795C1224.61 428.67 1224.44 428.6 1224.27 428.6H1220.93Z" fill="#E2E8F0"/>
<path d="M1252.93 428.6V425.267C1252.93 425.09 1252.86 424.92 1252.74 424.795C1252.61 424.67 1252.44 424.6 1252.27 424.6C1252.09 424.6 1251.92 424.67 1251.79 424.795C1251.67 424.92 1251.6 425.09 1251.6 425.267V428.6H1248.27C1248.09 428.6 1247.92 428.67 1247.79 428.795C1247.67 428.92 1247.6 429.09 1247.6 429.267C1247.6 429.444 1247.67 429.613 1247.79 429.738C1247.92 429.863 1248.09 429.933 1248.27 429.933H1251.6V433.267C1251.6 433.444 1251.67 433.613 1251.79 433.738C1251.92 433.863 1252.09 433.933 1252.27 433.933C1252.44 433.933 1252.61 433.863 1252.74 433.738C1252.86 433.613 1252.93 433.444 1252.93 433.267V429.933H1256.27C1256.44 429.933 1256.61 429.863 1256.74 429.738C1256.86 429.613 1256.93 429.444 1256.93 429.267C1256.93 429.09 1256.86 428.92 1256.74 428.795C1256.61 428.67 1256.44 428.6 1256.27 428.6H1252.93Z" fill="#E2E8F0"/>
<path d="M1284.93 428.6V425.267C1284.93 425.09 1284.86 424.92 1284.74 424.795C1284.61 424.67 1284.44 424.6 1284.27 424.6C1284.09 424.6 1283.92 424.67 1283.79 424.795C1283.67 424.92 1283.6 425.09 1283.6 425.267V428.6H1280.27C1280.09 428.6 1279.92 428.67 1279.79 428.795C1279.67 428.92 1279.6 429.09 1279.6 429.267C1279.6 429.444 1279.67 429.613 1279.79 429.738C1279.92 429.863 1280.09 429.933 1280.27 429.933H1283.6V433.267C1283.6 433.444 1283.67 433.613 1283.79 433.738C1283.92 433.863 1284.09 433.933 1284.27 433.933C1284.44 433.933 1284.61 433.863 1284.74 433.738C1284.86 433.613 1284.93 433.444 1284.93 433.267V429.933H1288.27C1288.44 429.933 1288.61 429.863 1288.74 429.738C1288.86 429.613 1288.93 429.444 1288.93 429.267C1288.93 429.09 1288.86 428.92 1288.74 428.795C1288.61 428.67 1288.44 428.6 1288.27 428.6H1284.93Z" fill="#E2E8F0"/>
<path d="M1316.93 428.6V425.267C1316.93 425.09 1316.86 424.92 1316.74 424.795C1316.61 424.67 1316.44 424.6 1316.27 424.6C1316.09 424.6 1315.92 424.67 1315.79 424.795C1315.67 424.92 1315.6 425.09 1315.6 425.267V428.6H1312.27C1312.09 428.6 1311.92 428.67 1311.79 428.795C1311.67 428.92 1311.6 429.09 1311.6 429.267C1311.6 429.444 1311.67 429.613 1311.79 429.738C1311.92 429.863 1312.09 429.933 1312.27 429.933H1315.6V433.267C1315.6 433.444 1315.67 433.613 1315.79 433.738C1315.92 433.863 1316.09 433.933 1316.27 433.933C1316.44 433.933 1316.61 433.863 1316.74 433.738C1316.86 433.613 1316.93 433.444 1316.93 433.267V429.933H1320.27C1320.44 429.933 1320.61 429.863 1320.74 429.738C1320.86 429.613 1320.93 429.444 1320.93 429.267C1320.93 429.09 1320.86 428.92 1320.74 428.795C1320.61 428.67 1320.44 428.6 1320.27 428.6H1316.93Z" fill="#E2E8F0"/>
<path d="M1156.93 460.6V457.267C1156.93 457.09 1156.86 456.92 1156.74 456.795C1156.61 456.67 1156.44 456.6 1156.27 456.6C1156.09 456.6 1155.92 456.67 1155.79 456.795C1155.67 456.92 1155.6 457.09 1155.6 457.267V460.6H1152.27C1152.09 460.6 1151.92 460.67 1151.79 460.795C1151.67 460.92 1151.6 461.09 1151.6 461.267C1151.6 461.444 1151.67 461.613 1151.79 461.738C1151.92 461.863 1152.09 461.933 1152.27 461.933H1155.6V465.267C1155.6 465.444 1155.67 465.613 1155.79 465.738C1155.92 465.863 1156.09 465.933 1156.27 465.933C1156.44 465.933 1156.61 465.863 1156.74 465.738C1156.86 465.613 1156.93 465.444 1156.93 465.267V461.933H1160.27C1160.44 461.933 1160.61 461.863 1160.74 461.738C1160.86 461.613 1160.93 461.444 1160.93 461.267C1160.93 461.09 1160.86 460.92 1160.74 460.795C1160.61 460.67 1160.44 460.6 1160.27 460.6H1156.93Z" fill="#E2E8F0"/>
<path d="M1188.93 460.6V457.267C1188.93 457.09 1188.86 456.92 1188.74 456.795C1188.61 456.67 1188.44 456.6 1188.27 456.6C1188.09 456.6 1187.92 456.67 1187.79 456.795C1187.67 456.92 1187.6 457.09 1187.6 457.267V460.6H1184.27C1184.09 460.6 1183.92 460.67 1183.79 460.795C1183.67 460.92 1183.6 461.09 1183.6 461.267C1183.6 461.444 1183.67 461.613 1183.79 461.738C1183.92 461.863 1184.09 461.933 1184.27 461.933H1187.6V465.267C1187.6 465.444 1187.67 465.613 1187.79 465.738C1187.92 465.863 1188.09 465.933 1188.27 465.933C1188.44 465.933 1188.61 465.863 1188.74 465.738C1188.86 465.613 1188.93 465.444 1188.93 465.267V461.933H1192.27C1192.44 461.933 1192.61 461.863 1192.74 461.738C1192.86 461.613 1192.93 461.444 1192.93 461.267C1192.93 461.09 1192.86 460.92 1192.74 460.795C1192.61 460.67 1192.44 460.6 1192.27 460.6H1188.93Z" fill="#E2E8F0"/>
<path d="M1220.93 460.6V457.267C1220.93 457.09 1220.86 456.92 1220.74 456.795C1220.61 456.67 1220.44 456.6 1220.27 456.6C1220.09 456.6 1219.92 456.67 1219.79 456.795C1219.67 456.92 1219.6 457.09 1219.6 457.267V460.6H1216.27C1216.09 460.6 1215.92 460.67 1215.79 460.795C1215.67 460.92 1215.6 461.09 1215.6 461.267C1215.6 461.444 1215.67 461.613 1215.79 461.738C1215.92 461.863 1216.09 461.933 1216.27 461.933H1219.6V465.267C1219.6 465.444 1219.67 465.613 1219.79 465.738C1219.92 465.863 1220.09 465.933 1220.27 465.933C1220.44 465.933 1220.61 465.863 1220.74 465.738C1220.86 465.613 1220.93 465.444 1220.93 465.267V461.933H1224.27C1224.44 461.933 1224.61 461.863 1224.74 461.738C1224.86 461.613 1224.93 461.444 1224.93 461.267C1224.93 461.09 1224.86 460.92 1224.74 460.795C1224.61 460.67 1224.44 460.6 1224.27 460.6H1220.93Z" fill="#E2E8F0"/>
<path d="M1252.93 460.6V457.267C1252.93 457.09 1252.86 456.92 1252.74 456.795C1252.61 456.67 1252.44 456.6 1252.27 456.6C1252.09 456.6 1251.92 456.67 1251.79 456.795C1251.67 456.92 1251.6 457.09 1251.6 457.267V460.6H1248.27C1248.09 460.6 1247.92 460.67 1247.79 460.795C1247.67 460.92 1247.6 461.09 1247.6 461.267C1247.6 461.444 1247.67 461.613 1247.79 461.738C1247.92 461.863 1248.09 461.933 1248.27 461.933H1251.6V465.267C1251.6 465.444 1251.67 465.613 1251.79 465.738C1251.92 465.863 1252.09 465.933 1252.27 465.933C1252.44 465.933 1252.61 465.863 1252.74 465.738C1252.86 465.613 1252.93 465.444 1252.93 465.267V461.933H1256.27C1256.44 461.933 1256.61 461.863 1256.74 461.738C1256.86 461.613 1256.93 461.444 1256.93 461.267C1256.93 461.09 1256.86 460.92 1256.74 460.795C1256.61 460.67 1256.44 460.6 1256.27 460.6H1252.93Z" fill="#E2E8F0"/>
<path d="M1284.93 460.6V457.267C1284.93 457.09 1284.86 456.92 1284.74 456.795C1284.61 456.67 1284.44 456.6 1284.27 456.6C1284.09 456.6 1283.92 456.67 1283.79 456.795C1283.67 456.92 1283.6 457.09 1283.6 457.267V460.6H1280.27C1280.09 460.6 1279.92 460.67 1279.79 460.795C1279.67 460.92 1279.6 461.09 1279.6 461.267C1279.6 461.444 1279.67 461.613 1279.79 461.738C1279.92 461.863 1280.09 461.933 1280.27 461.933H1283.6V465.267C1283.6 465.444 1283.67 465.613 1283.79 465.738C1283.92 465.863 1284.09 465.933 1284.27 465.933C1284.44 465.933 1284.61 465.863 1284.74 465.738C1284.86 465.613 1284.93 465.444 1284.93 465.267V461.933H1288.27C1288.44 461.933 1288.61 461.863 1288.74 461.738C1288.86 461.613 1288.93 461.444 1288.93 461.267C1288.93 461.09 1288.86 460.92 1288.74 460.795C1288.61 460.67 1288.44 460.6 1288.27 460.6H1284.93Z" fill="#E2E8F0"/>
<path d="M1316.93 460.6V457.267C1316.93 457.09 1316.86 456.92 1316.74 456.795C1316.61 456.67 1316.44 456.6 1316.27 456.6C1316.09 456.6 1315.92 456.67 1315.79 456.795C1315.67 456.92 1315.6 457.09 1315.6 457.267V460.6H1312.27C1312.09 460.6 1311.92 460.67 1311.79 460.795C1311.67 460.92 1311.6 461.09 1311.6 461.267C1311.6 461.444 1311.67 461.613 1311.79 461.738C1311.92 461.863 1312.09 461.933 1312.27 461.933H1315.6V465.267C1315.6 465.444 1315.67 465.613 1315.79 465.738C1315.92 465.863 1316.09 465.933 1316.27 465.933C1316.44 465.933 1316.61 465.863 1316.74 465.738C1316.86 465.613 1316.93 465.444 1316.93 465.267V461.933H1320.27C1320.44 461.933 1320.61 461.863 1320.74 461.738C1320.86 461.613 1320.93 461.444 1320.93 461.267C1320.93 461.09 1320.86 460.92 1320.74 460.795C1320.61 460.67 1320.44 460.6 1320.27 460.6H1316.93Z" fill="#EA580C"/>
<path d="M1156.93 492.6V489.267C1156.93 489.09 1156.86 488.92 1156.74 488.795C1156.61 488.67 1156.44 488.6 1156.27 488.6C1156.09 488.6 1155.92 488.67 1155.79 488.795C1155.67 488.92 1155.6 489.09 1155.6 489.267V492.6H1152.27C1152.09 492.6 1151.92 492.67 1151.79 492.795C1151.67 492.92 1151.6 493.09 1151.6 493.267C1151.6 493.444 1151.67 493.613 1151.79 493.738C1151.92 493.863 1152.09 493.933 1152.27 493.933H1155.6V497.267C1155.6 497.444 1155.67 497.613 1155.79 497.738C1155.92 497.863 1156.09 497.933 1156.27 497.933C1156.44 497.933 1156.61 497.863 1156.74 497.738C1156.86 497.613 1156.93 497.444 1156.93 497.267V493.933H1160.27C1160.44 493.933 1160.61 493.863 1160.74 493.738C1160.86 493.613 1160.93 493.444 1160.93 493.267C1160.93 493.09 1160.86 492.92 1160.74 492.795C1160.61 492.67 1160.44 492.6 1160.27 492.6H1156.93Z" fill="#E2E8F0"/>
<path d="M1188.93 492.6V489.267C1188.93 489.09 1188.86 488.92 1188.74 488.795C1188.61 488.67 1188.44 488.6 1188.27 488.6C1188.09 488.6 1187.92 488.67 1187.79 488.795C1187.67 488.92 1187.6 489.09 1187.6 489.267V492.6H1184.27C1184.09 492.6 1183.92 492.67 1183.79 492.795C1183.67 492.92 1183.6 493.09 1183.6 493.267C1183.6 493.444 1183.67 493.613 1183.79 493.738C1183.92 493.863 1184.09 493.933 1184.27 493.933H1187.6V497.267C1187.6 497.444 1187.67 497.613 1187.79 497.738C1187.92 497.863 1188.09 497.933 1188.27 497.933C1188.44 497.933 1188.61 497.863 1188.74 497.738C1188.86 497.613 1188.93 497.444 1188.93 497.267V493.933H1192.27C1192.44 493.933 1192.61 493.863 1192.74 493.738C1192.86 493.613 1192.93 493.444 1192.93 493.267C1192.93 493.09 1192.86 492.92 1192.74 492.795C1192.61 492.67 1192.44 492.6 1192.27 492.6H1188.93Z" fill="#E2E8F0"/>
<path d="M1220.93 492.6V489.267C1220.93 489.09 1220.86 488.92 1220.74 488.795C1220.61 488.67 1220.44 488.6 1220.27 488.6C1220.09 488.6 1219.92 488.67 1219.79 488.795C1219.67 488.92 1219.6 489.09 1219.6 489.267V492.6H1216.27C1216.09 492.6 1215.92 492.67 1215.79 492.795C1215.67 492.92 1215.6 493.09 1215.6 493.267C1215.6 493.444 1215.67 493.613 1215.79 493.738C1215.92 493.863 1216.09 493.933 1216.27 493.933H1219.6V497.267C1219.6 497.444 1219.67 497.613 1219.79 497.738C1219.92 497.863 1220.09 497.933 1220.27 497.933C1220.44 497.933 1220.61 497.863 1220.74 497.738C1220.86 497.613 1220.93 497.444 1220.93 497.267V493.933H1224.27C1224.44 493.933 1224.61 493.863 1224.74 493.738C1224.86 493.613 1224.93 493.444 1224.93 493.267C1224.93 493.09 1224.86 492.92 1224.74 492.795C1224.61 492.67 1224.44 492.6 1224.27 492.6H1220.93Z" fill="#E2E8F0"/>
<path d="M1252.93 492.6V489.267C1252.93 489.09 1252.86 488.92 1252.74 488.795C1252.61 488.67 1252.44 488.6 1252.27 488.6C1252.09 488.6 1251.92 488.67 1251.79 488.795C1251.67 488.92 1251.6 489.09 1251.6 489.267V492.6H1248.27C1248.09 492.6 1247.92 492.67 1247.79 492.795C1247.67 492.92 1247.6 493.09 1247.6 493.267C1247.6 493.444 1247.67 493.613 1247.79 493.738C1247.92 493.863 1248.09 493.933 1248.27 493.933H1251.6V497.267C1251.6 497.444 1251.67 497.613 1251.79 497.738C1251.92 497.863 1252.09 497.933 1252.27 497.933C1252.44 497.933 1252.61 497.863 1252.74 497.738C1252.86 497.613 1252.93 497.444 1252.93 497.267V493.933H1256.27C1256.44 493.933 1256.61 493.863 1256.74 493.738C1256.86 493.613 1256.93 493.444 1256.93 493.267C1256.93 493.09 1256.86 492.92 1256.74 492.795C1256.61 492.67 1256.44 492.6 1256.27 492.6H1252.93Z" fill="#E2E8F0"/>
<path d="M1284.93 492.6V489.267C1284.93 489.09 1284.86 488.92 1284.74 488.795C1284.61 488.67 1284.44 488.6 1284.27 488.6C1284.09 488.6 1283.92 488.67 1283.79 488.795C1283.67 488.92 1283.6 489.09 1283.6 489.267V492.6H1280.27C1280.09 492.6 1279.92 492.67 1279.79 492.795C1279.67 492.92 1279.6 493.09 1279.6 493.267C1279.6 493.444 1279.67 493.613 1279.79 493.738C1279.92 493.863 1280.09 493.933 1280.27 493.933H1283.6V497.267C1283.6 497.444 1283.67 497.613 1283.79 497.738C1283.92 497.863 1284.09 497.933 1284.27 497.933C1284.44 497.933 1284.61 497.863 1284.74 497.738C1284.86 497.613 1284.93 497.444 1284.93 497.267V493.933H1288.27C1288.44 493.933 1288.61 493.863 1288.74 493.738C1288.86 493.613 1288.93 493.444 1288.93 493.267C1288.93 493.09 1288.86 492.92 1288.74 492.795C1288.61 492.67 1288.44 492.6 1288.27 492.6H1284.93Z" fill="#E2E8F0"/>
<path d="M1316.93 492.6V489.267C1316.93 489.09 1316.86 488.92 1316.74 488.795C1316.61 488.67 1316.44 488.6 1316.27 488.6C1316.09 488.6 1315.92 488.67 1315.79 488.795C1315.67 488.92 1315.6 489.09 1315.6 489.267V492.6H1312.27C1312.09 492.6 1311.92 492.67 1311.79 492.795C1311.67 492.92 1311.6 493.09 1311.6 493.267C1311.6 493.444 1311.67 493.613 1311.79 493.738C1311.92 493.863 1312.09 493.933 1312.27 493.933H1315.6V497.267C1315.6 497.444 1315.67 497.613 1315.79 497.738C1315.92 497.863 1316.09 497.933 1316.27 497.933C1316.44 497.933 1316.61 497.863 1316.74 497.738C1316.86 497.613 1316.93 497.444 1316.93 497.267V493.933H1320.27C1320.44 493.933 1320.61 493.863 1320.74 493.738C1320.86 493.613 1320.93 493.444 1320.93 493.267C1320.93 493.09 1320.86 492.92 1320.74 492.795C1320.61 492.67 1320.44 492.6 1320.27 492.6H1316.93Z" fill="#E2E8F0"/>
<path d="M1156.93 524.6V521.267C1156.93 521.09 1156.86 520.92 1156.74 520.795C1156.61 520.67 1156.44 520.6 1156.27 520.6C1156.09 520.6 1155.92 520.67 1155.79 520.795C1155.67 520.92 1155.6 521.09 1155.6 521.267V524.6H1152.27C1152.09 524.6 1151.92 524.67 1151.79 524.795C1151.67 524.92 1151.6 525.09 1151.6 525.267C1151.6 525.444 1151.67 525.613 1151.79 525.738C1151.92 525.863 1152.09 525.933 1152.27 525.933H1155.6V529.267C1155.6 529.444 1155.67 529.613 1155.79 529.738C1155.92 529.863 1156.09 529.933 1156.27 529.933C1156.44 529.933 1156.61 529.863 1156.74 529.738C1156.86 529.613 1156.93 529.444 1156.93 529.267V525.933H1160.27C1160.44 525.933 1160.61 525.863 1160.74 525.738C1160.86 525.613 1160.93 525.444 1160.93 525.267C1160.93 525.09 1160.86 524.92 1160.74 524.795C1160.61 524.67 1160.44 524.6 1160.27 524.6H1156.93Z" fill="#E2E8F0"/>
<path d="M1188.93 524.6V521.267C1188.93 521.09 1188.86 520.92 1188.74 520.795C1188.61 520.67 1188.44 520.6 1188.27 520.6C1188.09 520.6 1187.92 520.67 1187.79 520.795C1187.67 520.92 1187.6 521.09 1187.6 521.267V524.6H1184.27C1184.09 524.6 1183.92 524.67 1183.79 524.795C1183.67 524.92 1183.6 525.09 1183.6 525.267C1183.6 525.444 1183.67 525.613 1183.79 525.738C1183.92 525.863 1184.09 525.933 1184.27 525.933H1187.6V529.267C1187.6 529.444 1187.67 529.613 1187.79 529.738C1187.92 529.863 1188.09 529.933 1188.27 529.933C1188.44 529.933 1188.61 529.863 1188.74 529.738C1188.86 529.613 1188.93 529.444 1188.93 529.267V525.933H1192.27C1192.44 525.933 1192.61 525.863 1192.74 525.738C1192.86 525.613 1192.93 525.444 1192.93 525.267C1192.93 525.09 1192.86 524.92 1192.74 524.795C1192.61 524.67 1192.44 524.6 1192.27 524.6H1188.93Z" fill="#E2E8F0"/>
<path d="M1220.93 524.6V521.267C1220.93 521.09 1220.86 520.92 1220.74 520.795C1220.61 520.67 1220.44 520.6 1220.27 520.6C1220.09 520.6 1219.92 520.67 1219.79 520.795C1219.67 520.92 1219.6 521.09 1219.6 521.267V524.6H1216.27C1216.09 524.6 1215.92 524.67 1215.79 524.795C1215.67 524.92 1215.6 525.09 1215.6 525.267C1215.6 525.444 1215.67 525.613 1215.79 525.738C1215.92 525.863 1216.09 525.933 1216.27 525.933H1219.6V529.267C1219.6 529.444 1219.67 529.613 1219.79 529.738C1219.92 529.863 1220.09 529.933 1220.27 529.933C1220.44 529.933 1220.61 529.863 1220.74 529.738C1220.86 529.613 1220.93 529.444 1220.93 529.267V525.933H1224.27C1224.44 525.933 1224.61 525.863 1224.74 525.738C1224.86 525.613 1224.93 525.444 1224.93 525.267C1224.93 525.09 1224.86 524.92 1224.74 524.795C1224.61 524.67 1224.44 524.6 1224.27 524.6H1220.93Z" fill="#9333EA"/>
<path d="M1252.93 524.6V521.267C1252.93 521.09 1252.86 520.92 1252.74 520.795C1252.61 520.67 1252.44 520.6 1252.27 520.6C1252.09 520.6 1251.92 520.67 1251.79 520.795C1251.67 520.92 1251.6 521.09 1251.6 521.267V524.6H1248.27C1248.09 524.6 1247.92 524.67 1247.79 524.795C1247.67 524.92 1247.6 525.09 1247.6 525.267C1247.6 525.444 1247.67 525.613 1247.79 525.738C1247.92 525.863 1248.09 525.933 1248.27 525.933H1251.6V529.267C1251.6 529.444 1251.67 529.613 1251.79 529.738C1251.92 529.863 1252.09 529.933 1252.27 529.933C1252.44 529.933 1252.61 529.863 1252.74 529.738C1252.86 529.613 1252.93 529.444 1252.93 529.267V525.933H1256.27C1256.44 525.933 1256.61 525.863 1256.74 525.738C1256.86 525.613 1256.93 525.444 1256.93 525.267C1256.93 525.09 1256.86 524.92 1256.74 524.795C1256.61 524.67 1256.44 524.6 1256.27 524.6H1252.93Z" fill="#E2E8F0"/>
<path d="M1284.93 524.6V521.267C1284.93 521.09 1284.86 520.92 1284.74 520.795C1284.61 520.67 1284.44 520.6 1284.27 520.6C1284.09 520.6 1283.92 520.67 1283.79 520.795C1283.67 520.92 1283.6 521.09 1283.6 521.267V524.6H1280.27C1280.09 524.6 1279.92 524.67 1279.79 524.795C1279.67 524.92 1279.6 525.09 1279.6 525.267C1279.6 525.444 1279.67 525.613 1279.79 525.738C1279.92 525.863 1280.09 525.933 1280.27 525.933H1283.6V529.267C1283.6 529.444 1283.67 529.613 1283.79 529.738C1283.92 529.863 1284.09 529.933 1284.27 529.933C1284.44 529.933 1284.61 529.863 1284.74 529.738C1284.86 529.613 1284.93 529.444 1284.93 529.267V525.933H1288.27C1288.44 525.933 1288.61 525.863 1288.74 525.738C1288.86 525.613 1288.93 525.444 1288.93 525.267C1288.93 525.09 1288.86 524.92 1288.74 524.795C1288.61 524.67 1288.44 524.6 1288.27 524.6H1284.93Z" fill="#E2E8F0"/>
<path d="M1316.93 524.6V521.267C1316.93 521.09 1316.86 520.92 1316.74 520.795C1316.61 520.67 1316.44 520.6 1316.27 520.6C1316.09 520.6 1315.92 520.67 1315.79 520.795C1315.67 520.92 1315.6 521.09 1315.6 521.267V524.6H1312.27C1312.09 524.6 1311.92 524.67 1311.79 524.795C1311.67 524.92 1311.6 525.09 1311.6 525.267C1311.6 525.444 1311.67 525.613 1311.79 525.738C1311.92 525.863 1312.09 525.933 1312.27 525.933H1315.6V529.267C1315.6 529.444 1315.67 529.613 1315.79 529.738C1315.92 529.863 1316.09 529.933 1316.27 529.933C1316.44 529.933 1316.61 529.863 1316.74 529.738C1316.86 529.613 1316.93 529.444 1316.93 529.267V525.933H1320.27C1320.44 525.933 1320.61 525.863 1320.74 525.738C1320.86 525.613 1320.93 525.444 1320.93 525.267C1320.93 525.09 1320.86 524.92 1320.74 524.795C1320.61 524.67 1320.44 524.6 1320.27 524.6H1316.93Z" fill="#E2E8F0"/>
<g opacity="0.5">
<path d="M617.933 68.6001V65.2668C617.933 65.09 617.863 64.9204 617.738 64.7954C617.613 64.6703 617.443 64.6001 617.266 64.6001C617.089 64.6001 616.92 64.6703 616.795 64.7954C616.67 64.9204 616.6 65.09 616.6 65.2668V68.6001H613.266C613.089 68.6001 612.92 68.6703 612.795 68.7954C612.67 68.9204 612.6 69.09 612.6 69.2668C612.6 69.4436 612.67 69.6131 612.795 69.7382C612.92 69.8632 613.089 69.9334 613.266 69.9334H616.6V73.2668C616.6 73.4436 616.67 73.6131 616.795 73.7382C616.92 73.8632 617.089 73.9334 617.266 73.9334C617.443 73.9334 617.613 73.8632 617.738 73.7382C617.863 73.6131 617.933 73.4436 617.933 73.2668V69.9334H621.266C621.443 69.9334 621.613 69.8632 621.738 69.7382C621.863 69.6131 621.933 69.4436 621.933 69.2668C621.933 69.09 621.863 68.9204 621.738 68.7954C621.613 68.6703 621.443 68.6001 621.266 68.6001H617.933Z" fill="#E2E8F0"/>
<path d="M649.933 68.6001V65.2668C649.933 65.09 649.863 64.9204 649.738 64.7954C649.613 64.6703 649.443 64.6001 649.266 64.6001C649.089 64.6001 648.92 64.6703 648.795 64.7954C648.67 64.9204 648.6 65.09 648.6 65.2668V68.6001H645.266C645.089 68.6001 644.92 68.6703 644.795 68.7954C644.67 68.9204 644.6 69.09 644.6 69.2668C644.6 69.4436 644.67 69.6131 644.795 69.7382C644.92 69.8632 645.089 69.9334 645.266 69.9334H648.6V73.2668C648.6 73.4436 648.67 73.6131 648.795 73.7382C648.92 73.8632 649.089 73.9334 649.266 73.9334C649.443 73.9334 649.613 73.8632 649.738 73.7382C649.863 73.6131 649.933 73.4436 649.933 73.2668V69.9334H653.266C653.443 69.9334 653.613 69.8632 653.738 69.7382C653.863 69.6131 653.933 69.4436 653.933 69.2668C653.933 69.09 653.863 68.9204 653.738 68.7954C653.613 68.6703 653.443 68.6001 653.266 68.6001H649.933Z" fill="#E2E8F0"/>
<path d="M681.933 68.6001V65.2668C681.933 65.09 681.863 64.9204 681.738 64.7954C681.613 64.6703 681.443 64.6001 681.266 64.6001C681.089 64.6001 680.92 64.6703 680.795 64.7954C680.67 64.9204 680.6 65.09 680.6 65.2668V68.6001H677.266C677.089 68.6001 676.92 68.6703 676.795 68.7954C676.67 68.9204 676.6 69.09 676.6 69.2668C676.6 69.4436 676.67 69.6131 676.795 69.7382C676.92 69.8632 677.089 69.9334 677.266 69.9334H680.6V73.2668C680.6 73.4436 680.67 73.6131 680.795 73.7382C680.92 73.8632 681.089 73.9334 681.266 73.9334C681.443 73.9334 681.613 73.8632 681.738 73.7382C681.863 73.6131 681.933 73.4436 681.933 73.2668V69.9334H685.266C685.443 69.9334 685.613 69.8632 685.738 69.7382C685.863 69.6131 685.933 69.4436 685.933 69.2668C685.933 69.09 685.863 68.9204 685.738 68.7954C685.613 68.6703 685.443 68.6001 685.266 68.6001H681.933Z" fill="#E2E8F0"/>
<path d="M713.933 68.6001V65.2668C713.933 65.09 713.863 64.9204 713.738 64.7954C713.613 64.6703 713.443 64.6001 713.266 64.6001C713.089 64.6001 712.92 64.6703 712.795 64.7954C712.67 64.9204 712.6 65.09 712.6 65.2668V68.6001H709.266C709.089 68.6001 708.92 68.6703 708.795 68.7954C708.67 68.9204 708.6 69.09 708.6 69.2668C708.6 69.4436 708.67 69.6131 708.795 69.7382C708.92 69.8632 709.089 69.9334 709.266 69.9334H712.6V73.2668C712.6 73.4436 712.67 73.6131 712.795 73.7382C712.92 73.8632 713.089 73.9334 713.266 73.9334C713.443 73.9334 713.613 73.8632 713.738 73.7382C713.863 73.6131 713.933 73.4436 713.933 73.2668V69.9334H717.266C717.443 69.9334 717.613 69.8632 717.738 69.7382C717.863 69.6131 717.933 69.4436 717.933 69.2668C717.933 69.09 717.863 68.9204 717.738 68.7954C717.613 68.6703 717.443 68.6001 717.266 68.6001H713.933Z" fill="#E2E8F0"/>
<path d="M745.933 68.6001V65.2668C745.933 65.09 745.863 64.9204 745.738 64.7954C745.613 64.6703 745.443 64.6001 745.266 64.6001C745.089 64.6001 744.92 64.6703 744.795 64.7954C744.67 64.9204 744.6 65.09 744.6 65.2668V68.6001H741.266C741.089 68.6001 740.92 68.6703 740.795 68.7954C740.67 68.9204 740.6 69.09 740.6 69.2668C740.6 69.4436 740.67 69.6131 740.795 69.7382C740.92 69.8632 741.089 69.9334 741.266 69.9334H744.6V73.2668C744.6 73.4436 744.67 73.6131 744.795 73.7382C744.92 73.8632 745.089 73.9334 745.266 73.9334C745.443 73.9334 745.613 73.8632 745.738 73.7382C745.863 73.6131 745.933 73.4436 745.933 73.2668V69.9334H749.266C749.443 69.9334 749.613 69.8632 749.738 69.7382C749.863 69.6131 749.933 69.4436 749.933 69.2668C749.933 69.09 749.863 68.9204 749.738 68.7954C749.613 68.6703 749.443 68.6001 749.266 68.6001H745.933Z" fill="#E2E8F0"/>
<path d="M777.933 68.6001V65.2668C777.933 65.09 777.863 64.9204 777.738 64.7954C777.613 64.6703 777.443 64.6001 777.266 64.6001C777.089 64.6001 776.92 64.6703 776.795 64.7954C776.67 64.9204 776.6 65.09 776.6 65.2668V68.6001H773.266C773.089 68.6001 772.92 68.6703 772.795 68.7954C772.67 68.9204 772.6 69.09 772.6 69.2668C772.6 69.4436 772.67 69.6131 772.795 69.7382C772.92 69.8632 773.089 69.9334 773.266 69.9334H776.6V73.2668C776.6 73.4436 776.67 73.6131 776.795 73.7382C776.92 73.8632 777.089 73.9334 777.266 73.9334C777.443 73.9334 777.613 73.8632 777.738 73.7382C777.863 73.6131 777.933 73.4436 777.933 73.2668V69.9334H781.266C781.443 69.9334 781.613 69.8632 781.738 69.7382C781.863 69.6131 781.933 69.4436 781.933 69.2668C781.933 69.09 781.863 68.9204 781.738 68.7954C781.613 68.6703 781.443 68.6001 781.266 68.6001H777.933Z" fill="#E2E8F0"/>
<path d="M617.933 100.6V97.2668C617.933 97.09 617.863 96.9204 617.738 96.7954C617.613 96.6703 617.443 96.6001 617.266 96.6001C617.089 96.6001 616.92 96.6703 616.795 96.7954C616.67 96.9204 616.6 97.09 616.6 97.2668V100.6H613.266C613.089 100.6 612.92 100.67 612.795 100.795C612.67 100.92 612.6 101.09 612.6 101.267C612.6 101.444 612.67 101.613 612.795 101.738C612.92 101.863 613.089 101.933 613.266 101.933H616.6V105.267C616.6 105.444 616.67 105.613 616.795 105.738C616.92 105.863 617.089 105.933 617.266 105.933C617.443 105.933 617.613 105.863 617.738 105.738C617.863 105.613 617.933 105.444 617.933 105.267V101.933H621.266C621.443 101.933 621.613 101.863 621.738 101.738C621.863 101.613 621.933 101.444 621.933 101.267C621.933 101.09 621.863 100.92 621.738 100.795C621.613 100.67 621.443 100.6 621.266 100.6H617.933Z" fill="#E2E8F0"/>
<path d="M649.933 100.6V97.2668C649.933 97.09 649.863 96.9204 649.738 96.7954C649.613 96.6703 649.443 96.6001 649.266 96.6001C649.089 96.6001 648.92 96.6703 648.795 96.7954C648.67 96.9204 648.6 97.09 648.6 97.2668V100.6H645.266C645.089 100.6 644.92 100.67 644.795 100.795C644.67 100.92 644.6 101.09 644.6 101.267C644.6 101.444 644.67 101.613 644.795 101.738C644.92 101.863 645.089 101.933 645.266 101.933H648.6V105.267C648.6 105.444 648.67 105.613 648.795 105.738C648.92 105.863 649.089 105.933 649.266 105.933C649.443 105.933 649.613 105.863 649.738 105.738C649.863 105.613 649.933 105.444 649.933 105.267V101.933H653.266C653.443 101.933 653.613 101.863 653.738 101.738C653.863 101.613 653.933 101.444 653.933 101.267C653.933 101.09 653.863 100.92 653.738 100.795C653.613 100.67 653.443 100.6 653.266 100.6H649.933Z" fill="#E2E8F0"/>
<path d="M681.933 100.6V97.2668C681.933 97.09 681.863 96.9204 681.738 96.7954C681.613 96.6703 681.443 96.6001 681.266 96.6001C681.089 96.6001 680.92 96.6703 680.795 96.7954C680.67 96.9204 680.6 97.09 680.6 97.2668V100.6H677.266C677.089 100.6 676.92 100.67 676.795 100.795C676.67 100.92 676.6 101.09 676.6 101.267C676.6 101.444 676.67 101.613 676.795 101.738C676.92 101.863 677.089 101.933 677.266 101.933H680.6V105.267C680.6 105.444 680.67 105.613 680.795 105.738C680.92 105.863 681.089 105.933 681.266 105.933C681.443 105.933 681.613 105.863 681.738 105.738C681.863 105.613 681.933 105.444 681.933 105.267V101.933H685.266C685.443 101.933 685.613 101.863 685.738 101.738C685.863 101.613 685.933 101.444 685.933 101.267C685.933 101.09 685.863 100.92 685.738 100.795C685.613 100.67 685.443 100.6 685.266 100.6H681.933Z" fill="#E2E8F0"/>
<path d="M713.933 100.6V97.2668C713.933 97.09 713.863 96.9204 713.738 96.7954C713.613 96.6703 713.443 96.6001 713.266 96.6001C713.089 96.6001 712.92 96.6703 712.795 96.7954C712.67 96.9204 712.6 97.09 712.6 97.2668V100.6H709.266C709.089 100.6 708.92 100.67 708.795 100.795C708.67 100.92 708.6 101.09 708.6 101.267C708.6 101.444 708.67 101.613 708.795 101.738C708.92 101.863 709.089 101.933 709.266 101.933H712.6V105.267C712.6 105.444 712.67 105.613 712.795 105.738C712.92 105.863 713.089 105.933 713.266 105.933C713.443 105.933 713.613 105.863 713.738 105.738C713.863 105.613 713.933 105.444 713.933 105.267V101.933H717.266C717.443 101.933 717.613 101.863 717.738 101.738C717.863 101.613 717.933 101.444 717.933 101.267C717.933 101.09 717.863 100.92 717.738 100.795C717.613 100.67 717.443 100.6 717.266 100.6H713.933Z" fill="#E2E8F0"/>
<path d="M745.933 100.6V97.2668C745.933 97.09 745.863 96.9204 745.738 96.7954C745.613 96.6703 745.443 96.6001 745.266 96.6001C745.089 96.6001 744.92 96.6703 744.795 96.7954C744.67 96.9204 744.6 97.09 744.6 97.2668V100.6H741.266C741.089 100.6 740.92 100.67 740.795 100.795C740.67 100.92 740.6 101.09 740.6 101.267C740.6 101.444 740.67 101.613 740.795 101.738C740.92 101.863 741.089 101.933 741.266 101.933H744.6V105.267C744.6 105.444 744.67 105.613 744.795 105.738C744.92 105.863 745.089 105.933 745.266 105.933C745.443 105.933 745.613 105.863 745.738 105.738C745.863 105.613 745.933 105.444 745.933 105.267V101.933H749.266C749.443 101.933 749.613 101.863 749.738 101.738C749.863 101.613 749.933 101.444 749.933 101.267C749.933 101.09 749.863 100.92 749.738 100.795C749.613 100.67 749.443 100.6 749.266 100.6H745.933Z" fill="#2563EB"/>
<path d="M777.933 100.6V97.2668C777.933 97.09 777.863 96.9204 777.738 96.7954C777.613 96.6703 777.443 96.6001 777.266 96.6001C777.089 96.6001 776.92 96.6703 776.795 96.7954C776.67 96.9204 776.6 97.09 776.6 97.2668V100.6H773.266C773.089 100.6 772.92 100.67 772.795 100.795C772.67 100.92 772.6 101.09 772.6 101.267C772.6 101.444 772.67 101.613 772.795 101.738C772.92 101.863 773.089 101.933 773.266 101.933H776.6V105.267C776.6 105.444 776.67 105.613 776.795 105.738C776.92 105.863 777.089 105.933 777.266 105.933C777.443 105.933 777.613 105.863 777.738 105.738C777.863 105.613 777.933 105.444 777.933 105.267V101.933H781.266C781.443 101.933 781.613 101.863 781.738 101.738C781.863 101.613 781.933 101.444 781.933 101.267C781.933 101.09 781.863 100.92 781.738 100.795C781.613 100.67 781.443 100.6 781.266 100.6H777.933Z" fill="#E2E8F0"/>
<path d="M617.933 132.6V129.267C617.933 129.09 617.863 128.92 617.738 128.795C617.613 128.67 617.443 128.6 617.266 128.6C617.089 128.6 616.92 128.67 616.795 128.795C616.67 128.92 616.6 129.09 616.6 129.267V132.6H613.266C613.089 132.6 612.92 132.67 612.795 132.795C612.67 132.92 612.6 133.09 612.6 133.267C612.6 133.444 612.67 133.613 612.795 133.738C612.92 133.863 613.089 133.933 613.266 133.933H616.6V137.267C616.6 137.444 616.67 137.613 616.795 137.738C616.92 137.863 617.089 137.933 617.266 137.933C617.443 137.933 617.613 137.863 617.738 137.738C617.863 137.613 617.933 137.444 617.933 137.267V133.933H621.266C621.443 133.933 621.613 133.863 621.738 133.738C621.863 133.613 621.933 133.444 621.933 133.267C621.933 133.09 621.863 132.92 621.738 132.795C621.613 132.67 621.443 132.6 621.266 132.6H617.933Z" fill="#E2E8F0"/>
<path d="M649.933 132.6V129.267C649.933 129.09 649.863 128.92 649.738 128.795C649.613 128.67 649.443 128.6 649.266 128.6C649.089 128.6 648.92 128.67 648.795 128.795C648.67 128.92 648.6 129.09 648.6 129.267V132.6H645.266C645.089 132.6 644.92 132.67 644.795 132.795C644.67 132.92 644.6 133.09 644.6 133.267C644.6 133.444 644.67 133.613 644.795 133.738C644.92 133.863 645.089 133.933 645.266 133.933H648.6V137.267C648.6 137.444 648.67 137.613 648.795 137.738C648.92 137.863 649.089 137.933 649.266 137.933C649.443 137.933 649.613 137.863 649.738 137.738C649.863 137.613 649.933 137.444 649.933 137.267V133.933H653.266C653.443 133.933 653.613 133.863 653.738 133.738C653.863 133.613 653.933 133.444 653.933 133.267C653.933 133.09 653.863 132.92 653.738 132.795C653.613 132.67 653.443 132.6 653.266 132.6H649.933Z" fill="#E2E8F0"/>
<path d="M681.933 132.6V129.267C681.933 129.09 681.863 128.92 681.738 128.795C681.613 128.67 681.443 128.6 681.266 128.6C681.089 128.6 680.92 128.67 680.795 128.795C680.67 128.92 680.6 129.09 680.6 129.267V132.6H677.266C677.089 132.6 676.92 132.67 676.795 132.795C676.67 132.92 676.6 133.09 676.6 133.267C676.6 133.444 676.67 133.613 676.795 133.738C676.92 133.863 677.089 133.933 677.266 133.933H680.6V137.267C680.6 137.444 680.67 137.613 680.795 137.738C680.92 137.863 681.089 137.933 681.266 137.933C681.443 137.933 681.613 137.863 681.738 137.738C681.863 137.613 681.933 137.444 681.933 137.267V133.933H685.266C685.443 133.933 685.613 133.863 685.738 133.738C685.863 133.613 685.933 133.444 685.933 133.267C685.933 133.09 685.863 132.92 685.738 132.795C685.613 132.67 685.443 132.6 685.266 132.6H681.933Z" fill="#E2E8F0"/>
<path d="M713.933 132.6V129.267C713.933 129.09 713.863 128.92 713.738 128.795C713.613 128.67 713.443 128.6 713.266 128.6C713.089 128.6 712.92 128.67 712.795 128.795C712.67 128.92 712.6 129.09 712.6 129.267V132.6H709.266C709.089 132.6 708.92 132.67 708.795 132.795C708.67 132.92 708.6 133.09 708.6 133.267C708.6 133.444 708.67 133.613 708.795 133.738C708.92 133.863 709.089 133.933 709.266 133.933H712.6V137.267C712.6 137.444 712.67 137.613 712.795 137.738C712.92 137.863 713.089 137.933 713.266 137.933C713.443 137.933 713.613 137.863 713.738 137.738C713.863 137.613 713.933 137.444 713.933 137.267V133.933H717.266C717.443 133.933 717.613 133.863 717.738 133.738C717.863 133.613 717.933 133.444 717.933 133.267C717.933 133.09 717.863 132.92 717.738 132.795C717.613 132.67 717.443 132.6 717.266 132.6H713.933Z" fill="#E2E8F0"/>
<path d="M745.933 132.6V129.267C745.933 129.09 745.863 128.92 745.738 128.795C745.613 128.67 745.443 128.6 745.266 128.6C745.089 128.6 744.92 128.67 744.795 128.795C744.67 128.92 744.6 129.09 744.6 129.267V132.6H741.266C741.089 132.6 740.92 132.67 740.795 132.795C740.67 132.92 740.6 133.09 740.6 133.267C740.6 133.444 740.67 133.613 740.795 133.738C740.92 133.863 741.089 133.933 741.266 133.933H744.6V137.267C744.6 137.444 744.67 137.613 744.795 137.738C744.92 137.863 745.089 137.933 745.266 137.933C745.443 137.933 745.613 137.863 745.738 137.738C745.863 137.613 745.933 137.444 745.933 137.267V133.933H749.266C749.443 133.933 749.613 133.863 749.738 133.738C749.863 133.613 749.933 133.444 749.933 133.267C749.933 133.09 749.863 132.92 749.738 132.795C749.613 132.67 749.443 132.6 749.266 132.6H745.933Z" fill="#E2E8F0"/>
<path d="M777.933 132.6V129.267C777.933 129.09 777.863 128.92 777.738 128.795C777.613 128.67 777.443 128.6 777.266 128.6C777.089 128.6 776.92 128.67 776.795 128.795C776.67 128.92 776.6 129.09 776.6 129.267V132.6H773.266C773.089 132.6 772.92 132.67 772.795 132.795C772.67 132.92 772.6 133.09 772.6 133.267C772.6 133.444 772.67 133.613 772.795 133.738C772.92 133.863 773.089 133.933 773.266 133.933H776.6V137.267C776.6 137.444 776.67 137.613 776.795 137.738C776.92 137.863 777.089 137.933 777.266 137.933C777.443 137.933 777.613 137.863 777.738 137.738C777.863 137.613 777.933 137.444 777.933 137.267V133.933H781.266C781.443 133.933 781.613 133.863 781.738 133.738C781.863 133.613 781.933 133.444 781.933 133.267C781.933 133.09 781.863 132.92 781.738 132.795C781.613 132.67 781.443 132.6 781.266 132.6H777.933Z" fill="#E2E8F0"/>
<path d="M617.933 164.6V161.267C617.933 161.09 617.863 160.92 617.738 160.795C617.613 160.67 617.443 160.6 617.266 160.6C617.089 160.6 616.92 160.67 616.795 160.795C616.67 160.92 616.6 161.09 616.6 161.267V164.6H613.266C613.089 164.6 612.92 164.67 612.795 164.795C612.67 164.92 612.6 165.09 612.6 165.267C612.6 165.444 612.67 165.613 612.795 165.738C612.92 165.863 613.089 165.933 613.266 165.933H616.6V169.267C616.6 169.444 616.67 169.613 616.795 169.738C616.92 169.863 617.089 169.933 617.266 169.933C617.443 169.933 617.613 169.863 617.738 169.738C617.863 169.613 617.933 169.444 617.933 169.267V165.933H621.266C621.443 165.933 621.613 165.863 621.738 165.738C621.863 165.613 621.933 165.444 621.933 165.267C621.933 165.09 621.863 164.92 621.738 164.795C621.613 164.67 621.443 164.6 621.266 164.6H617.933Z" fill="#E2E8F0"/>
<path d="M649.933 164.6V161.267C649.933 161.09 649.863 160.92 649.738 160.795C649.613 160.67 649.443 160.6 649.266 160.6C649.089 160.6 648.92 160.67 648.795 160.795C648.67 160.92 648.6 161.09 648.6 161.267V164.6H645.266C645.089 164.6 644.92 164.67 644.795 164.795C644.67 164.92 644.6 165.09 644.6 165.267C644.6 165.444 644.67 165.613 644.795 165.738C644.92 165.863 645.089 165.933 645.266 165.933H648.6V169.267C648.6 169.444 648.67 169.613 648.795 169.738C648.92 169.863 649.089 169.933 649.266 169.933C649.443 169.933 649.613 169.863 649.738 169.738C649.863 169.613 649.933 169.444 649.933 169.267V165.933H653.266C653.443 165.933 653.613 165.863 653.738 165.738C653.863 165.613 653.933 165.444 653.933 165.267C653.933 165.09 653.863 164.92 653.738 164.795C653.613 164.67 653.443 164.6 653.266 164.6H649.933Z" fill="#E2E8F0"/>
<path d="M681.933 164.6V161.267C681.933 161.09 681.863 160.92 681.738 160.795C681.613 160.67 681.443 160.6 681.266 160.6C681.089 160.6 680.92 160.67 680.795 160.795C680.67 160.92 680.6 161.09 680.6 161.267V164.6H677.266C677.089 164.6 676.92 164.67 676.795 164.795C676.67 164.92 676.6 165.09 676.6 165.267C676.6 165.444 676.67 165.613 676.795 165.738C676.92 165.863 677.089 165.933 677.266 165.933H680.6V169.267C680.6 169.444 680.67 169.613 680.795 169.738C680.92 169.863 681.089 169.933 681.266 169.933C681.443 169.933 681.613 169.863 681.738 169.738C681.863 169.613 681.933 169.444 681.933 169.267V165.933H685.266C685.443 165.933 685.613 165.863 685.738 165.738C685.863 165.613 685.933 165.444 685.933 165.267C685.933 165.09 685.863 164.92 685.738 164.795C685.613 164.67 685.443 164.6 685.266 164.6H681.933Z" fill="#E2E8F0"/>
<path d="M713.933 164.6V161.267C713.933 161.09 713.863 160.92 713.738 160.795C713.613 160.67 713.443 160.6 713.266 160.6C713.089 160.6 712.92 160.67 712.795 160.795C712.67 160.92 712.6 161.09 712.6 161.267V164.6H709.266C709.089 164.6 708.92 164.67 708.795 164.795C708.67 164.92 708.6 165.09 708.6 165.267C708.6 165.444 708.67 165.613 708.795 165.738C708.92 165.863 709.089 165.933 709.266 165.933H712.6V169.267C712.6 169.444 712.67 169.613 712.795 169.738C712.92 169.863 713.089 169.933 713.266 169.933C713.443 169.933 713.613 169.863 713.738 169.738C713.863 169.613 713.933 169.444 713.933 169.267V165.933H717.266C717.443 165.933 717.613 165.863 717.738 165.738C717.863 165.613 717.933 165.444 717.933 165.267C717.933 165.09 717.863 164.92 717.738 164.795C717.613 164.67 717.443 164.6 717.266 164.6H713.933Z" fill="#E2E8F0"/>
<path d="M745.933 164.6V161.267C745.933 161.09 745.863 160.92 745.738 160.795C745.613 160.67 745.443 160.6 745.266 160.6C745.089 160.6 744.92 160.67 744.795 160.795C744.67 160.92 744.6 161.09 744.6 161.267V164.6H741.266C741.089 164.6 740.92 164.67 740.795 164.795C740.67 164.92 740.6 165.09 740.6 165.267C740.6 165.444 740.67 165.613 740.795 165.738C740.92 165.863 741.089 165.933 741.266 165.933H744.6V169.267C744.6 169.444 744.67 169.613 744.795 169.738C744.92 169.863 745.089 169.933 745.266 169.933C745.443 169.933 745.613 169.863 745.738 169.738C745.863 169.613 745.933 169.444 745.933 169.267V165.933H749.266C749.443 165.933 749.613 165.863 749.738 165.738C749.863 165.613 749.933 165.444 749.933 165.267C749.933 165.09 749.863 164.92 749.738 164.795C749.613 164.67 749.443 164.6 749.266 164.6H745.933Z" fill="#E2E8F0"/>
<path d="M777.933 164.6V161.267C777.933 161.09 777.863 160.92 777.738 160.795C777.613 160.67 777.443 160.6 777.266 160.6C777.089 160.6 776.92 160.67 776.795 160.795C776.67 160.92 776.6 161.09 776.6 161.267V164.6H773.266C773.089 164.6 772.92 164.67 772.795 164.795C772.67 164.92 772.6 165.09 772.6 165.267C772.6 165.444 772.67 165.613 772.795 165.738C772.92 165.863 773.089 165.933 773.266 165.933H776.6V169.267C776.6 169.444 776.67 169.613 776.795 169.738C776.92 169.863 777.089 169.933 777.266 169.933C777.443 169.933 777.613 169.863 777.738 169.738C777.863 169.613 777.933 169.444 777.933 169.267V165.933H781.266C781.443 165.933 781.613 165.863 781.738 165.738C781.863 165.613 781.933 165.444 781.933 165.267C781.933 165.09 781.863 164.92 781.738 164.795C781.613 164.67 781.443 164.6 781.266 164.6H777.933Z" fill="#EA580C"/>
<path d="M617.933 196.6V193.267C617.933 193.09 617.863 192.92 617.738 192.795C617.613 192.67 617.443 192.6 617.266 192.6C617.089 192.6 616.92 192.67 616.795 192.795C616.67 192.92 616.6 193.09 616.6 193.267V196.6H613.266C613.089 196.6 612.92 196.67 612.795 196.795C612.67 196.92 612.6 197.09 612.6 197.267C612.6 197.444 612.67 197.613 612.795 197.738C612.92 197.863 613.089 197.933 613.266 197.933H616.6V201.267C616.6 201.444 616.67 201.613 616.795 201.738C616.92 201.863 617.089 201.933 617.266 201.933C617.443 201.933 617.613 201.863 617.738 201.738C617.863 201.613 617.933 201.444 617.933 201.267V197.933H621.266C621.443 197.933 621.613 197.863 621.738 197.738C621.863 197.613 621.933 197.444 621.933 197.267C621.933 197.09 621.863 196.92 621.738 196.795C621.613 196.67 621.443 196.6 621.266 196.6H617.933Z" fill="#E2E8F0"/>
<path d="M649.933 196.6V193.267C649.933 193.09 649.863 192.92 649.738 192.795C649.613 192.67 649.443 192.6 649.266 192.6C649.089 192.6 648.92 192.67 648.795 192.795C648.67 192.92 648.6 193.09 648.6 193.267V196.6H645.266C645.089 196.6 644.92 196.67 644.795 196.795C644.67 196.92 644.6 197.09 644.6 197.267C644.6 197.444 644.67 197.613 644.795 197.738C644.92 197.863 645.089 197.933 645.266 197.933H648.6V201.267C648.6 201.444 648.67 201.613 648.795 201.738C648.92 201.863 649.089 201.933 649.266 201.933C649.443 201.933 649.613 201.863 649.738 201.738C649.863 201.613 649.933 201.444 649.933 201.267V197.933H653.266C653.443 197.933 653.613 197.863 653.738 197.738C653.863 197.613 653.933 197.444 653.933 197.267C653.933 197.09 653.863 196.92 653.738 196.795C653.613 196.67 653.443 196.6 653.266 196.6H649.933Z" fill="#E2E8F0"/>
<path d="M681.933 196.6V193.267C681.933 193.09 681.863 192.92 681.738 192.795C681.613 192.67 681.443 192.6 681.266 192.6C681.089 192.6 680.92 192.67 680.795 192.795C680.67 192.92 680.6 193.09 680.6 193.267V196.6H677.266C677.089 196.6 676.92 196.67 676.795 196.795C676.67 196.92 676.6 197.09 676.6 197.267C676.6 197.444 676.67 197.613 676.795 197.738C676.92 197.863 677.089 197.933 677.266 197.933H680.6V201.267C680.6 201.444 680.67 201.613 680.795 201.738C680.92 201.863 681.089 201.933 681.266 201.933C681.443 201.933 681.613 201.863 681.738 201.738C681.863 201.613 681.933 201.444 681.933 201.267V197.933H685.266C685.443 197.933 685.613 197.863 685.738 197.738C685.863 197.613 685.933 197.444 685.933 197.267C685.933 197.09 685.863 196.92 685.738 196.795C685.613 196.67 685.443 196.6 685.266 196.6H681.933Z" fill="#E2E8F0"/>
<path d="M713.933 196.6V193.267C713.933 193.09 713.863 192.92 713.738 192.795C713.613 192.67 713.443 192.6 713.266 192.6C713.089 192.6 712.92 192.67 712.795 192.795C712.67 192.92 712.6 193.09 712.6 193.267V196.6H709.266C709.089 196.6 708.92 196.67 708.795 196.795C708.67 196.92 708.6 197.09 708.6 197.267C708.6 197.444 708.67 197.613 708.795 197.738C708.92 197.863 709.089 197.933 709.266 197.933H712.6V201.267C712.6 201.444 712.67 201.613 712.795 201.738C712.92 201.863 713.089 201.933 713.266 201.933C713.443 201.933 713.613 201.863 713.738 201.738C713.863 201.613 713.933 201.444 713.933 201.267V197.933H717.266C717.443 197.933 717.613 197.863 717.738 197.738C717.863 197.613 717.933 197.444 717.933 197.267C717.933 197.09 717.863 196.92 717.738 196.795C717.613 196.67 717.443 196.6 717.266 196.6H713.933Z" fill="#E2E8F0"/>
<path d="M745.933 196.6V193.267C745.933 193.09 745.863 192.92 745.738 192.795C745.613 192.67 745.443 192.6 745.266 192.6C745.089 192.6 744.92 192.67 744.795 192.795C744.67 192.92 744.6 193.09 744.6 193.267V196.6H741.266C741.089 196.6 740.92 196.67 740.795 196.795C740.67 196.92 740.6 197.09 740.6 197.267C740.6 197.444 740.67 197.613 740.795 197.738C740.92 197.863 741.089 197.933 741.266 197.933H744.6V201.267C744.6 201.444 744.67 201.613 744.795 201.738C744.92 201.863 745.089 201.933 745.266 201.933C745.443 201.933 745.613 201.863 745.738 201.738C745.863 201.613 745.933 201.444 745.933 201.267V197.933H749.266C749.443 197.933 749.613 197.863 749.738 197.738C749.863 197.613 749.933 197.444 749.933 197.267C749.933 197.09 749.863 196.92 749.738 196.795C749.613 196.67 749.443 196.6 749.266 196.6H745.933Z" fill="#E2E8F0"/>
<path d="M777.933 196.6V193.267C777.933 193.09 777.863 192.92 777.738 192.795C777.613 192.67 777.443 192.6 777.266 192.6C777.089 192.6 776.92 192.67 776.795 192.795C776.67 192.92 776.6 193.09 776.6 193.267V196.6H773.266C773.089 196.6 772.92 196.67 772.795 196.795C772.67 196.92 772.6 197.09 772.6 197.267C772.6 197.444 772.67 197.613 772.795 197.738C772.92 197.863 773.089 197.933 773.266 197.933H776.6V201.267C776.6 201.444 776.67 201.613 776.795 201.738C776.92 201.863 777.089 201.933 777.266 201.933C777.443 201.933 777.613 201.863 777.738 201.738C777.863 201.613 777.933 201.444 777.933 201.267V197.933H781.266C781.443 197.933 781.613 197.863 781.738 197.738C781.863 197.613 781.933 197.444 781.933 197.267C781.933 197.09 781.863 196.92 781.738 196.795C781.613 196.67 781.443 196.6 781.266 196.6H777.933Z" fill="#E2E8F0"/>
<path d="M617.933 228.6V225.267C617.933 225.09 617.863 224.92 617.738 224.795C617.613 224.67 617.443 224.6 617.266 224.6C617.089 224.6 616.92 224.67 616.795 224.795C616.67 224.92 616.6 225.09 616.6 225.267V228.6H613.266C613.089 228.6 612.92 228.67 612.795 228.795C612.67 228.92 612.6 229.09 612.6 229.267C612.6 229.444 612.67 229.613 612.795 229.738C612.92 229.863 613.089 229.933 613.266 229.933H616.6V233.267C616.6 233.444 616.67 233.613 616.795 233.738C616.92 233.863 617.089 233.933 617.266 233.933C617.443 233.933 617.613 233.863 617.738 233.738C617.863 233.613 617.933 233.444 617.933 233.267V229.933H621.266C621.443 229.933 621.613 229.863 621.738 229.738C621.863 229.613 621.933 229.444 621.933 229.267C621.933 229.09 621.863 228.92 621.738 228.795C621.613 228.67 621.443 228.6 621.266 228.6H617.933Z" fill="#E2E8F0"/>
<path d="M649.933 228.6V225.267C649.933 225.09 649.863 224.92 649.738 224.795C649.613 224.67 649.443 224.6 649.266 224.6C649.089 224.6 648.92 224.67 648.795 224.795C648.67 224.92 648.6 225.09 648.6 225.267V228.6H645.266C645.089 228.6 644.92 228.67 644.795 228.795C644.67 228.92 644.6 229.09 644.6 229.267C644.6 229.444 644.67 229.613 644.795 229.738C644.92 229.863 645.089 229.933 645.266 229.933H648.6V233.267C648.6 233.444 648.67 233.613 648.795 233.738C648.92 233.863 649.089 233.933 649.266 233.933C649.443 233.933 649.613 233.863 649.738 233.738C649.863 233.613 649.933 233.444 649.933 233.267V229.933H653.266C653.443 229.933 653.613 229.863 653.738 229.738C653.863 229.613 653.933 229.444 653.933 229.267C653.933 229.09 653.863 228.92 653.738 228.795C653.613 228.67 653.443 228.6 653.266 228.6H649.933Z" fill="#E2E8F0"/>
<path d="M681.933 228.6V225.267C681.933 225.09 681.863 224.92 681.738 224.795C681.613 224.67 681.443 224.6 681.266 224.6C681.089 224.6 680.92 224.67 680.795 224.795C680.67 224.92 680.6 225.09 680.6 225.267V228.6H677.266C677.089 228.6 676.92 228.67 676.795 228.795C676.67 228.92 676.6 229.09 676.6 229.267C676.6 229.444 676.67 229.613 676.795 229.738C676.92 229.863 677.089 229.933 677.266 229.933H680.6V233.267C680.6 233.444 680.67 233.613 680.795 233.738C680.92 233.863 681.089 233.933 681.266 233.933C681.443 233.933 681.613 233.863 681.738 233.738C681.863 233.613 681.933 233.444 681.933 233.267V229.933H685.266C685.443 229.933 685.613 229.863 685.738 229.738C685.863 229.613 685.933 229.444 685.933 229.267C685.933 229.09 685.863 228.92 685.738 228.795C685.613 228.67 685.443 228.6 685.266 228.6H681.933Z" fill="#9333EA"/>
<path d="M713.933 228.6V225.267C713.933 225.09 713.863 224.92 713.738 224.795C713.613 224.67 713.443 224.6 713.266 224.6C713.089 224.6 712.92 224.67 712.795 224.795C712.67 224.92 712.6 225.09 712.6 225.267V228.6H709.266C709.089 228.6 708.92 228.67 708.795 228.795C708.67 228.92 708.6 229.09 708.6 229.267C708.6 229.444 708.67 229.613 708.795 229.738C708.92 229.863 709.089 229.933 709.266 229.933H712.6V233.267C712.6 233.444 712.67 233.613 712.795 233.738C712.92 233.863 713.089 233.933 713.266 233.933C713.443 233.933 713.613 233.863 713.738 233.738C713.863 233.613 713.933 233.444 713.933 233.267V229.933H717.266C717.443 229.933 717.613 229.863 717.738 229.738C717.863 229.613 717.933 229.444 717.933 229.267C717.933 229.09 717.863 228.92 717.738 228.795C717.613 228.67 717.443 228.6 717.266 228.6H713.933Z" fill="#E2E8F0"/>
<path d="M745.933 228.6V225.267C745.933 225.09 745.863 224.92 745.738 224.795C745.613 224.67 745.443 224.6 745.266 224.6C745.089 224.6 744.92 224.67 744.795 224.795C744.67 224.92 744.6 225.09 744.6 225.267V228.6H741.266C741.089 228.6 740.92 228.67 740.795 228.795C740.67 228.92 740.6 229.09 740.6 229.267C740.6 229.444 740.67 229.613 740.795 229.738C740.92 229.863 741.089 229.933 741.266 229.933H744.6V233.267C744.6 233.444 744.67 233.613 744.795 233.738C744.92 233.863 745.089 233.933 745.266 233.933C745.443 233.933 745.613 233.863 745.738 233.738C745.863 233.613 745.933 233.444 745.933 233.267V229.933H749.266C749.443 229.933 749.613 229.863 749.738 229.738C749.863 229.613 749.933 229.444 749.933 229.267C749.933 229.09 749.863 228.92 749.738 228.795C749.613 228.67 749.443 228.6 749.266 228.6H745.933Z" fill="#E2E8F0"/>
<path d="M777.933 228.6V225.267C777.933 225.09 777.863 224.92 777.738 224.795C777.613 224.67 777.443 224.6 777.266 224.6C777.089 224.6 776.92 224.67 776.795 224.795C776.67 224.92 776.6 225.09 776.6 225.267V228.6H773.266C773.089 228.6 772.92 228.67 772.795 228.795C772.67 228.92 772.6 229.09 772.6 229.267C772.6 229.444 772.67 229.613 772.795 229.738C772.92 229.863 773.089 229.933 773.266 229.933H776.6V233.267C776.6 233.444 776.67 233.613 776.795 233.738C776.92 233.863 777.089 233.933 777.266 233.933C777.443 233.933 777.613 233.863 777.738 233.738C777.863 233.613 777.933 233.444 777.933 233.267V229.933H781.266C781.443 229.933 781.613 229.863 781.738 229.738C781.863 229.613 781.933 229.444 781.933 229.267C781.933 229.09 781.863 228.92 781.738 228.795C781.613 228.67 781.443 228.6 781.266 228.6H777.933Z" fill="#E2E8F0"/>
</g>
</svg>
