<svg width="44" height="44" viewBox="0 0 44 44" fill="none" xmlns="http://www.w3.org/2000/svg">
<g clip-path="url(#clip0_2003_14239)">
<path d="M6.875 17.875H15.125V20.625H6.875V17.875Z" fill="#FBBC04"/>
<path d="M0 11V38.5C0.00155416 39.9582 0.581516 41.3563 1.61263 42.3874C2.64374 43.4185 4.04179 43.9984 5.5 44H38.5C39.9582 43.9984 41.3563 43.4185 42.3874 42.3874C43.4185 41.3563 43.9984 39.9582 44 38.5V11H0ZM4.125 16.5C4.12495 16.3194 4.16049 16.1406 4.22957 15.9738C4.29865 15.8069 4.39993 15.6553 4.52762 15.5276C4.65531 15.3999 4.80691 15.2987 4.97375 15.2296C5.1406 15.1605 5.31942 15.125 5.5 15.125H16.5C16.6806 15.125 16.8594 15.1605 17.0262 15.2296C17.1931 15.2987 17.3447 15.3999 17.4724 15.5276C17.6001 15.6553 17.7013 15.8069 17.7704 15.9738C17.8395 16.1406 17.875 16.3194 17.875 16.5V22C17.875 22.1806 17.8395 22.3594 17.7704 22.5262C17.7013 22.6931 17.6001 22.8447 17.4724 22.9724C17.3447 23.1001 17.1931 23.2013 17.0262 23.2704C16.8594 23.3395 16.6806 23.375 16.5 23.375H5.5C5.31942 23.375 5.1406 23.3395 4.97375 23.2704C4.80691 23.2013 4.65531 23.1001 4.52762 22.9724C4.39993 22.8447 4.29865 22.6931 4.22957 22.5262C4.16049 22.3594 4.12495 22.1806 4.125 22V16.5ZM38.5 39.875H5.5C5.13533 39.875 4.78559 39.7301 4.52773 39.4723C4.26987 39.2144 4.125 38.8647 4.125 38.5C4.125 38.1353 4.26987 37.7856 4.52773 37.5277C4.78559 37.2699 5.13533 37.125 5.5 37.125H38.5C38.8647 37.125 39.2144 37.2699 39.4723 37.5277C39.7301 37.7856 39.875 38.1353 39.875 38.5C39.875 38.8647 39.7301 39.2144 39.4723 39.4723C39.2144 39.7301 38.8647 39.875 38.5 39.875ZM38.5 34.375H5.5C5.13533 34.375 4.78559 34.2301 4.52773 33.9723C4.26987 33.7144 4.125 33.3647 4.125 33C4.125 32.6353 4.26987 32.2856 4.52773 32.0277C4.78559 31.7699 5.13533 31.625 5.5 31.625H38.5C38.8647 31.625 39.2144 31.7699 39.4723 32.0277C39.7301 32.2856 39.875 32.6353 39.875 33C39.875 33.3647 39.7301 33.7144 39.4723 33.9723C39.2144 34.2301 38.8647 34.375 38.5 34.375ZM38.5 28.875H5.5C5.13533 28.875 4.78559 28.7301 4.52773 28.4723C4.26987 28.2144 4.125 27.8647 4.125 27.5C4.125 27.1353 4.26987 26.7856 4.52773 26.5277C4.78559 26.2699 5.13533 26.125 5.5 26.125H38.5C38.8647 26.125 39.2144 26.2699 39.4723 26.5277C39.7301 26.7856 39.875 27.1353 39.875 27.5C39.875 27.8647 39.7301 28.2144 39.4723 28.4723C39.2144 28.7301 38.8647 28.875 38.5 28.875ZM38.5 23.375H22C21.6353 23.375 21.2856 23.2301 21.0277 22.9723C20.7699 22.7144 20.625 22.3647 20.625 22C20.625 21.6353 20.7699 21.2856 21.0277 21.0277C21.2856 20.7699 21.6353 20.625 22 20.625H38.5C38.8647 20.625 39.2144 20.7699 39.4723 21.0277C39.7301 21.2856 39.875 21.6353 39.875 22C39.875 22.3647 39.7301 22.7144 39.4723 22.9723C39.2144 23.2301 38.8647 23.375 38.5 23.375ZM38.5 17.875H22C21.6353 17.875 21.2856 17.7301 21.0277 17.4723C20.7699 17.2144 20.625 16.8647 20.625 16.5C20.625 16.1353 20.7699 15.7856 21.0277 15.5277C21.2856 15.2699 21.6353 15.125 22 15.125H38.5C38.8647 15.125 39.2144 15.2699 39.4723 15.5277C39.7301 15.7856 39.875 16.1353 39.875 16.5C39.875 16.8647 39.7301 17.2144 39.4723 17.4723C39.2144 17.7301 38.8647 17.875 38.5 17.875Z" fill="#DCDCDC"/>
<path d="M44 8.25V5.5C43.9984 4.04179 43.4185 2.64374 42.3874 1.61263C41.3563 0.581516 39.9582 0.00155416 38.5 0L5.5 0C4.04179 0.00155416 2.64374 0.581516 1.61263 1.61263C0.581516 2.64374 0.00155416 4.04179 0 5.5L0 8.25H44ZM27.5 2.75H38.5C38.8647 2.75 39.2144 2.89487 39.4723 3.15273C39.7301 3.41059 39.875 3.76033 39.875 4.125C39.875 4.48967 39.7301 4.83941 39.4723 5.09727C39.2144 5.35513 38.8647 5.5 38.5 5.5H27.5C27.1353 5.5 26.7856 5.35513 26.5277 5.09727C26.2699 4.83941 26.125 4.48967 26.125 4.125C26.125 3.76033 26.2699 3.41059 26.5277 3.15273C26.7856 2.89487 27.1353 2.75 27.5 2.75ZM13.75 2.75C14.0219 2.75 14.2878 2.83064 14.5139 2.98173C14.74 3.13282 14.9163 3.34756 15.0203 3.59881C15.1244 3.85006 15.1516 4.12653 15.0986 4.39325C15.0455 4.65997 14.9146 4.90497 14.7223 5.09727C14.53 5.28957 14.285 5.42053 14.0182 5.47358C13.7515 5.52663 13.4751 5.4994 13.2238 5.39533C12.9726 5.29126 12.7578 5.11503 12.6067 4.88891C12.4556 4.66279 12.375 4.39695 12.375 4.125C12.375 3.76033 12.5199 3.41059 12.7777 3.15273C13.0356 2.89487 13.3853 2.75 13.75 2.75ZM9.625 2.75C9.89695 2.75 10.1628 2.83064 10.3889 2.98173C10.615 3.13282 10.7913 3.34756 10.8953 3.59881C10.9994 3.85006 11.0266 4.12653 10.9736 4.39325C10.9205 4.65997 10.7896 4.90497 10.5973 5.09727C10.405 5.28957 10.16 5.42053 9.89325 5.47358C9.62652 5.52663 9.35006 5.4994 9.09881 5.39533C8.84756 5.29126 8.63282 5.11503 8.48173 4.88891C8.33064 4.66279 8.25 4.39695 8.25 4.125C8.25 3.76033 8.39487 3.41059 8.65273 3.15273C8.91059 2.89487 9.26033 2.75 9.625 2.75ZM5.5 2.75C5.77195 2.75 6.03779 2.83064 6.26391 2.98173C6.49003 3.13282 6.66626 3.34756 6.77033 3.59881C6.8744 3.85006 6.90163 4.12653 6.84858 4.39325C6.79553 4.65997 6.66457 4.90497 6.47227 5.09727C6.27997 5.28957 6.03497 5.42053 5.76825 5.47358C5.50153 5.52663 5.22506 5.4994 4.97381 5.39533C4.72256 5.29126 4.50782 5.11503 4.35673 4.88891C4.20564 4.66279 4.125 4.39695 4.125 4.125C4.125 3.76033 4.26987 3.41059 4.52773 3.15273C4.78559 2.89487 5.13533 2.75 5.5 2.75Z" fill="#42387F"/>
</g>
<defs>
<clipPath id="clip0_2003_14239">
<rect width="44" height="44" fill="white"/>
</clipPath>
</defs>
</svg>
